<?xml version="1.0" encoding="UTF-8" standalone="no"?>
<svg width="612.422mm" height="110.419mm"
 xmlns="http://www.w3.org/2000/svg" xmlns:xlink="http://www.w3.org/1999/xlink"  version="1.2" baseProfile="tiny">
<title>Qt SVG Document</title>
<desc>Generated with Qt</desc>
<defs>
</defs>
<g fill="none" stroke="black" stroke-width="1" fill-rule="evenodd" stroke-linecap="square" stroke-linejoin="bevel" >

<g fill="none" stroke="#000000" stroke-opacity="1" stroke-width="1" stroke-linecap="square" stroke-linejoin="bevel" transform="matrix(1,0,0,1,0,0)"
font-family="Ubuntu" font-size="11" font-weight="400" font-style="normal" 
>
</g>

<g fill="none" stroke="#000000" stroke-opacity="1" stroke-width="1" stroke-linecap="square" stroke-linejoin="bevel" transform="matrix(1,0,0,1,0,0)"
font-family="Ubuntu" font-size="11" font-weight="400" font-style="normal" 
>
</g>

<g fill="none" stroke="#000000" stroke-opacity="1" stroke-width="1" stroke-linecap="square" stroke-linejoin="bevel" transform="matrix(2,0,0,2,-0.0016,313)"
font-family="Ubuntu" font-size="11" font-weight="400" font-style="normal" 
>
</g>

<g fill="#ffffff" fill-opacity="1" stroke="none" transform="matrix(2,0,0,2,-0.0016,313)"
font-family="Ubuntu" font-size="11" font-weight="400" font-style="normal" 
>
<rect x="0.0008" y="-156.5" width="867.846" height="156.5"/>
</g>

<g fill="none" stroke="#000000" stroke-opacity="1" stroke-width="1" stroke-linecap="square" stroke-linejoin="bevel" transform="matrix(2,0,0,2,-0.0016,313)"
font-family="Ubuntu" font-size="11" font-weight="400" font-style="normal" 
>
</g>

<g fill="none" stroke="#000000" stroke-opacity="1" stroke-width="1" stroke-linecap="square" stroke-linejoin="bevel" transform="matrix(2,0,0,2,-0.0016,313)"
font-family="Ubuntu" font-size="11" font-weight="400" font-style="normal" 
>
</g>

<g fill="none" stroke="#000000" stroke-opacity="1" stroke-width="1" stroke-linecap="square" stroke-linejoin="bevel" transform="matrix(2,0,0,2,-0.0016,313)"
font-family="Ubuntu" font-size="11" font-weight="400" font-style="normal" 
>
</g>

<g fill="none" stroke="#000000" stroke-opacity="1" stroke-width="1" stroke-linecap="square" stroke-linejoin="bevel" transform="matrix(2,0,0,2,-0.0016,313)"
font-family="Ubuntu" font-size="11" font-weight="400" font-style="normal" 
>
</g>

<g fill="none" stroke="#000000" stroke-opacity="1" stroke-width="1" stroke-linecap="square" stroke-linejoin="round" transform="matrix(2,0,0,2,-0.0016,313)"
font-family="Ubuntu" font-size="11" font-weight="400" font-style="normal" 
>
<rect x="414.37" y="-89.5" width="96.9992" height="35"/>
</g>

<g fill="none" stroke="#000000" stroke-opacity="1" stroke-width="1" stroke-linecap="square" stroke-linejoin="bevel" transform="matrix(2,0,0,2,-0.0016,313)"
font-family="Ubuntu" font-size="11" font-weight="400" font-style="normal" 
>
</g>

<g fill="none" stroke="#000000" stroke-opacity="1" stroke-width="1" stroke-linecap="square" stroke-linejoin="bevel" transform="matrix(2,0,0,2,842.192,155)"
font-family="Ubuntu" font-size="11" font-weight="400" font-style="normal" 
>
</g>

<g fill="none" stroke="#000000" stroke-opacity="1" stroke-width="1" stroke-linecap="square" stroke-linejoin="bevel" transform="matrix(2,0,0,2,842.192,155)"
font-family="sans" font-size="11" font-weight="100" font-style="normal" 
>
</g>

<g fill="#000000" fill-opacity="1" stroke="#000000" stroke-opacity="1" stroke-width="1" stroke-linecap="square" stroke-linejoin="round" transform="matrix(2,0,0,2,842.192,155)"
font-family="sans" font-size="11" font-weight="100" font-style="normal" 
>
<path vector-effect="none" fill-rule="nonzero" d="M2.79688,2.98438 L3.70313,2.98438 L0.90625,12.0156 L0,12.0156 L2.79688,2.98438 M5.70313,10.0938 L5.70313,13.2813 L4.70313,13.2813 L4.70313,4.98438 L5.70313,4.98438 L5.70313,5.89063 C5.90104,5.53646 6.15885,5.27344 6.47656,5.10156 C6.79427,4.92969 7.17708,4.84375 7.625,4.84375 C8.35417,4.84375 8.94531,5.13281 9.39844,5.71094 C9.85156,6.28906 10.0781,7.05208 10.0781,8 C10.0781,8.94792 9.85156,9.71094 9.39844,10.2891 C8.94531,10.8672 8.35417,11.1563 7.625,11.1563 C7.17708,11.1563 6.79427,11.0703 6.47656,10.8984 C6.15885,10.7266 5.90104,10.4583 5.70313,10.0938 M9.0625,8 C9.0625,7.27083 8.91146,6.70052 8.60938,6.28906 C8.30729,5.8776 7.89583,5.67188 7.375,5.67188 C6.85417,5.67188 6.44531,5.8776 6.14844,6.28906 C5.85156,6.70052 5.70313,7.27083 5.70313,8 C5.70313,8.72917 5.85156,9.29948 6.14844,9.71094 C6.44531,10.1224 6.85417,10.3281 7.375,10.3281 C7.89583,10.3281 8.30729,10.1224 8.60938,9.71094 C8.91146,9.29948 9.0625,8.72917 9.0625,8 M14.0469,5.67188 C13.5156,5.67188 13.0964,5.88021 12.7891,6.29688 C12.4818,6.71354 12.3281,7.28125 12.3281,8 C12.3281,8.71875 12.4792,9.28385 12.7813,9.69531 C13.0833,10.1068 13.5052,10.3125 14.0469,10.3125 C14.5677,10.3125 14.9818,10.1068 15.2891,9.69531 C15.5964,9.28385 15.75,8.71875 15.75,8 C15.75,7.28125 15.5964,6.71354 15.2891,6.29688 C14.9818,5.88021 14.5677,5.67188 14.0469,5.67188 M14.0469,4.84375 C14.901,4.84375 15.5729,5.1224 16.0625,5.67969 C16.5521,6.23698 16.7969,7.01042 16.7969,8 C16.7969,8.97917 16.5521,9.75 16.0625,10.3125 C15.5729,10.875 14.901,11.1563 14.0469,11.1563 C13.1823,11.1563 12.5052,10.875 12.0156,10.3125 C11.526,9.75 11.2813,8.97917 11.2813,8 C11.2813,7.01042 11.526,6.23698 12.0156,5.67969 C12.5052,5.1224 13.1823,4.84375 14.0469,4.84375 M22.2656,5.15625 L22.2656,6.09375 C21.9844,5.94792 21.6927,5.84115 21.3906,5.77344 C21.0885,5.70573 20.776,5.67188 20.4531,5.67188 C19.9635,5.67188 19.5964,5.7474 19.3516,5.89844 C19.1068,6.04948 18.9844,6.27083 18.9844,6.5625 C18.9844,6.79167 19.0729,6.97135 19.25,7.10156 C19.4271,7.23177 19.7813,7.35938 20.3125,7.48438 L20.6406,7.5625 C21.349,7.70833 21.849,7.91927 22.1406,8.19531 C22.4323,8.47135 22.5781,8.85417 22.5781,9.34375 C22.5781,9.89583 22.3594,10.3359 21.9219,10.6641 C21.4844,10.9922 20.875,11.1563 20.0938,11.1563 C19.7708,11.1563 19.4349,11.125 19.0859,11.0625 C18.737,11 18.3698,10.9063 17.9844,10.7813 L17.9844,9.76563 C18.349,9.95313 18.7083,10.0938 19.0625,10.1875 C19.4167,10.2813 19.7708,10.3281 20.125,10.3281 C20.5833,10.3281 20.9375,10.2474 21.1875,10.0859 C21.4375,9.92448 21.5625,9.70313 21.5625,9.42188 C21.5625,9.15104 21.474,8.94271 21.2969,8.79688 C21.1198,8.65104 20.724,8.51563 20.1094,8.39063 L19.7656,8.29688 C19.151,8.17188 18.7083,7.97656 18.4375,7.71094 C18.1667,7.44531 18.0313,7.07813 18.0313,6.60938 C18.0313,6.04688 18.2318,5.61198 18.6328,5.30469 C19.0339,4.9974 19.6042,4.84375 20.3438,4.84375 C20.7083,4.84375 21.0521,4.86979 21.375,4.92188 C21.6979,4.97396 21.9948,5.05208 22.2656,5.15625 M29.2969,7.75 L29.2969,8.23438 L24.75,8.23438 C24.7917,8.91146 24.9948,9.42708 25.3594,9.78125 C25.724,10.1354 26.2344,10.3125 26.8906,10.3125 C27.276,10.3125 27.6458,10.2656 28,10.1719 C28.3542,10.0781 28.7083,9.94271 29.0625,9.76563 L29.0625,10.6875 C28.7083,10.8438 28.3438,10.9609 27.9688,11.0391 C27.5938,11.1172 27.2188,11.1563 26.8438,11.1563 C25.875,11.1563 25.112,10.8776 24.5547,10.3203 C23.9974,9.76302 23.7188,9.00521 23.7188,8.04688 C23.7188,7.06771 23.9844,6.28906 24.5156,5.71094 C25.0469,5.13281 25.7656,4.84375 26.6719,4.84375 C27.474,4.84375 28.112,5.10417 28.5859,5.625 C29.0599,6.14583 29.2969,6.85417 29.2969,7.75 M28.2969,7.45313 C28.2969,6.91146 28.1484,6.47917 27.8516,6.15625 C27.5547,5.83333 27.1615,5.67188 26.6719,5.67188 C26.1198,5.67188 25.6797,5.82813 25.3516,6.14063 C25.0234,6.45313 24.8333,6.89063 24.7813,7.45313 L28.2969,7.45313 M35.4844,12.8281 L35.4844,13.5938 L29.7656,13.5938 L29.7656,12.8281 L35.4844,12.8281 M40.25,5.15625 L40.25,6.09375 C39.9688,5.94792 39.6771,5.84115 39.375,5.77344 C39.0729,5.70573 38.7604,5.67188 38.4375,5.67188 C37.9479,5.67188 37.5807,5.7474 37.3359,5.89844 C37.0911,6.04948 36.9688,6.27083 36.9688,6.5625 C36.9688,6.79167 37.0573,6.97135 37.2344,7.10156 C37.4115,7.23177 37.7656,7.35938 38.2969,7.48438 L38.625,7.5625 C39.3333,7.70833 39.8333,7.91927 40.125,8.19531 C40.4167,8.47135 40.5625,8.85417 40.5625,9.34375 C40.5625,9.89583 40.3438,10.3359 39.9063,10.6641 C39.4688,10.9922 38.8594,11.1563 38.0781,11.1563 C37.7552,11.1563 37.4193,11.125 37.0703,11.0625 C36.7214,11 36.3542,10.9063 35.9688,10.7813 L35.9688,9.76563 C36.3333,9.95313 36.6927,10.0938 37.0469,10.1875 C37.401,10.2813 37.7552,10.3281 38.1094,10.3281 C38.5677,10.3281 38.9219,10.2474 39.1719,10.0859 C39.4219,9.92448 39.5469,9.70313 39.5469,9.42188 C39.5469,9.15104 39.4583,8.94271 39.2813,8.79688 C39.1042,8.65104 38.7083,8.51563 38.0938,8.39063 L37.75,8.29688 C37.1354,8.17188 36.6927,7.97656 36.4219,7.71094 C36.151,7.44531 36.0156,7.07813 36.0156,6.60938 C36.0156,6.04688 36.2161,5.61198 36.6172,5.30469 C37.0182,4.9974 37.5885,4.84375 38.3281,4.84375 C38.6927,4.84375 39.0365,4.86979 39.3594,4.92188 C39.6823,4.97396 39.9792,5.05208 40.25,5.15625 M43.1094,3.28125 L43.1094,4.98438 L45.1406,4.98438 L45.1406,5.75 L43.1094,5.75 L43.1094,9.01563 C43.1094,9.50521 43.1771,9.82031 43.3125,9.96094 C43.4479,10.1016 43.7188,10.1719 44.125,10.1719 L45.1406,10.1719 L45.1406,11 L44.125,11 C43.3646,11 42.8385,10.8568 42.5469,10.5703 C42.2552,10.2839 42.1094,9.76563 42.1094,9.01563 L42.1094,5.75 L41.3906,5.75 L41.3906,4.98438 L42.1094,4.98438 L42.1094,3.28125 L43.1094,3.28125 M49.1719,7.96875 C48.3802,7.96875 47.8307,8.0625 47.5234,8.25 C47.2161,8.4375 47.0625,8.75 47.0625,9.1875 C47.0625,9.53125 47.1771,9.80729 47.4063,10.0156 C47.6354,10.224 47.9479,10.3281 48.3438,10.3281 C48.8958,10.3281 49.3359,10.1328 49.6641,9.74219 C49.9922,9.35156 50.1563,8.83854 50.1563,8.20313 L50.1563,7.96875 L49.1719,7.96875 M51.1406,7.5625 L51.1406,11 L50.1563,11 L50.1563,10.0938 C49.9375,10.4583 49.6589,10.7266 49.3203,10.8984 C48.9818,11.0703 48.5677,11.1563 48.0781,11.1563 C47.4635,11.1563 46.974,10.9844 46.6094,10.6406 C46.2448,10.2969 46.0625,9.83333 46.0625,9.25 C46.0625,8.57292 46.2891,8.0625 46.7422,7.71875 C47.1953,7.375 47.875,7.20313 48.7813,7.20313 L50.1563,7.20313 L50.1563,7.10938 C50.1563,6.65104 50.0078,6.29688 49.7109,6.04688 C49.4141,5.79688 48.9948,5.67188 48.4531,5.67188 C48.1094,5.67188 47.7734,5.71354 47.4453,5.79688 C47.1172,5.88021 46.8021,6.00521 46.5,6.17188 L46.5,5.26563 C46.8646,5.11979 47.2188,5.01302 47.5625,4.94531 C47.9063,4.8776 48.2344,4.84375 48.5469,4.84375 C49.4219,4.84375 50.0729,5.06771 50.5,5.51563 C50.9271,5.96354 51.1406,6.64583 51.1406,7.5625 M57.8594,6.14063 C58.1094,5.69271 58.4063,5.36458 58.75,5.15625 C59.0938,4.94792 59.5,4.84375 59.9688,4.84375 C60.5938,4.84375 61.0755,5.0625 61.4141,5.5 C61.7526,5.9375 61.9219,6.5625 61.9219,7.375 L61.9219,11 L60.9219,11 L60.9219,7.40625 C60.9219,6.82292 60.8203,6.39323 60.6172,6.11719 C60.4141,5.84115 60.1042,5.70313 59.6875,5.70313 C59.1771,5.70313 58.7734,5.8724 58.4766,6.21094 C58.1797,6.54948 58.0313,7.01042 58.0313,7.59375 L58.0313,11 L57.0313,11 L57.0313,7.40625 C57.0313,6.82292 56.9297,6.39323 56.7266,6.11719 C56.5234,5.84115 56.2083,5.70313 55.7813,5.70313 C55.2813,5.70313 54.8828,5.8724 54.5859,6.21094 C54.2891,6.54948 54.1406,7.01042 54.1406,7.59375 L54.1406,11 L53.1406,11 L53.1406,4.98438 L54.1406,4.98438 L54.1406,5.92188 C54.3594,5.54688 54.6276,5.27344 54.9453,5.10156 C55.263,4.92969 55.6354,4.84375 56.0625,4.84375 C56.5,4.84375 56.8724,4.95313 57.1797,5.17188 C57.487,5.39063 57.7135,5.71354 57.8594,6.14063 M64.8438,10.0938 L64.8438,13.2813 L63.8438,13.2813 L63.8438,4.98438 L64.8438,4.98438 L64.8438,5.89063 C65.0417,5.53646 65.2995,5.27344 65.6172,5.10156 C65.9349,4.92969 66.3177,4.84375 66.7656,4.84375 C67.4948,4.84375 68.0859,5.13281 68.5391,5.71094 C68.9922,6.28906 69.2188,7.05208 69.2188,8 C69.2188,8.94792 68.9922,9.71094 68.5391,10.2891 C68.0859,10.8672 67.4948,11.1563 66.7656,11.1563 C66.3177,11.1563 65.9349,11.0703 65.6172,10.8984 C65.2995,10.7266 65.0417,10.4583 64.8438,10.0938 M68.2031,8 C68.2031,7.27083 68.0521,6.70052 67.75,6.28906 C67.4479,5.8776 67.0365,5.67188 66.5156,5.67188 C65.9948,5.67188 65.5859,5.8776 65.2891,6.28906 C64.9922,6.70052 64.8438,7.27083 64.8438,8 C64.8438,8.72917 64.9922,9.29948 65.2891,9.71094 C65.5859,10.1224 65.9948,10.3281 66.5156,10.3281 C67.0365,10.3281 67.4479,10.1224 67.75,9.71094 C68.0521,9.29948 68.2031,8.72917 68.2031,8 M76,7.75 L76,8.23438 L71.4531,8.23438 C71.4948,8.91146 71.6979,9.42708 72.0625,9.78125 C72.4271,10.1354 72.9375,10.3125 73.5938,10.3125 C73.9792,10.3125 74.349,10.2656 74.7031,10.1719 C75.0573,10.0781 75.4115,9.94271 75.7656,9.76563 L75.7656,10.6875 C75.4115,10.8438 75.0469,10.9609 74.6719,11.0391 C74.2969,11.1172 73.9219,11.1563 73.5469,11.1563 C72.5781,11.1563 71.8151,10.8776 71.2578,10.3203 C70.7005,9.76302 70.4219,9.00521 70.4219,8.04688 C70.4219,7.06771 70.6875,6.28906 71.2188,5.71094 C71.75,5.13281 72.4688,4.84375 73.375,4.84375 C74.1771,4.84375 74.8151,5.10417 75.2891,5.625 C75.763,6.14583 76,6.85417 76,7.75 M75,7.45313 C75,6.91146 74.8516,6.47917 74.5547,6.15625 C74.2578,5.83333 73.8646,5.67188 73.375,5.67188 C72.8229,5.67188 72.3828,5.82813 72.0547,6.14063 C71.7266,6.45313 71.5365,6.89063 71.4844,7.45313 L75,7.45313 M81.5781,5.89063 L81.5781,2.64063 L82.5625,2.64063 L82.5625,11 L81.5781,11 L81.5781,10.0938 C81.3698,10.4583 81.1068,10.7266 80.7891,10.8984 C80.4714,11.0703 80.0885,11.1563 79.6406,11.1563 C78.9219,11.1563 78.3333,10.8672 77.875,10.2891 C77.4167,9.71094 77.1875,8.94792 77.1875,8 C77.1875,7.05208 77.4167,6.28906 77.875,5.71094 C78.3333,5.13281 78.9219,4.84375 79.6406,4.84375 C80.0885,4.84375 80.4714,4.92969 80.7891,5.10156 C81.1068,5.27344 81.3698,5.53646 81.5781,5.89063 M78.2031,8 C78.2031,8.72917 78.3542,9.29948 78.6563,9.71094 C78.9583,10.1224 79.3698,10.3281 79.8906,10.3281 C80.4115,10.3281 80.8229,10.1224 81.125,9.71094 C81.4271,9.29948 81.5781,8.72917 81.5781,8 C81.5781,7.27083 81.4271,6.70052 81.125,6.28906 C80.8229,5.8776 80.4115,5.67188 79.8906,5.67188 C79.3698,5.67188 78.9583,5.8776 78.6563,6.28906 C78.3542,6.70052 78.2031,7.27083 78.2031,8 "/>
</g>

<g fill="none" stroke="#000000" stroke-opacity="1" stroke-width="1" stroke-linecap="square" stroke-linejoin="bevel" transform="matrix(2,0,0,2,842.192,155)"
font-family="sans" font-size="11" font-weight="100" font-style="normal" 
>
</g>

<g fill="none" stroke="#000000" stroke-opacity="1" stroke-width="1" stroke-linecap="square" stroke-linejoin="bevel" transform="matrix(2,0,0,2,842.192,155)"
font-family="Ubuntu" font-size="11" font-weight="400" font-style="normal" 
>
</g>

<g fill="none" stroke="#000000" stroke-opacity="1" stroke-width="1" stroke-linecap="square" stroke-linejoin="bevel" transform="matrix(2,0,0,2,-0.0016,313)"
font-family="Ubuntu" font-size="11" font-weight="400" font-style="normal" 
>
</g>

<g fill="none" stroke="#000000" stroke-opacity="1" stroke-width="1" stroke-linecap="square" stroke-linejoin="bevel" transform="matrix(2,0,0,2,-0.0016,313)"
font-family="Ubuntu" font-size="11" font-weight="400" font-style="normal" 
>
</g>

<g fill="none" stroke="#000000" stroke-opacity="1" stroke-width="1" stroke-linecap="square" stroke-linejoin="bevel" transform="matrix(2,0,0,2,-0.0016,313)"
font-family="Ubuntu" font-size="11" font-weight="400" font-style="normal" 
>
</g>

<g fill="none" stroke="#000000" stroke-opacity="1" stroke-width="1" stroke-linecap="square" stroke-linejoin="round" transform="matrix(2,0,0,2,-0.0016,313)"
font-family="Ubuntu" font-size="11" font-weight="400" font-style="normal" 
>
<rect x="188.68" y="-127.5" width="81.0008" height="35"/>
</g>

<g fill="none" stroke="#000000" stroke-opacity="1" stroke-width="1" stroke-linecap="square" stroke-linejoin="bevel" transform="matrix(2,0,0,2,-0.0016,313)"
font-family="Ubuntu" font-size="11" font-weight="400" font-style="normal" 
>
</g>

<g fill="none" stroke="#000000" stroke-opacity="1" stroke-width="1" stroke-linecap="square" stroke-linejoin="bevel" transform="matrix(2,0,0,2,391.499,79)"
font-family="Ubuntu" font-size="11" font-weight="400" font-style="normal" 
>
</g>

<g fill="none" stroke="#000000" stroke-opacity="1" stroke-width="1" stroke-linecap="square" stroke-linejoin="bevel" transform="matrix(2,0,0,2,391.499,79)"
font-family="sans" font-size="11" font-weight="100" font-style="normal" 
>
</g>

<g fill="#000000" fill-opacity="1" stroke="#000000" stroke-opacity="1" stroke-width="1" stroke-linecap="square" stroke-linejoin="round" transform="matrix(2,0,0,2,391.499,79)"
font-family="sans" font-size="11" font-weight="100" font-style="normal" 
>
<path vector-effect="none" fill-rule="nonzero" d="M2.79688,2.98438 L3.70313,2.98438 L0.90625,12.0156 L0,12.0156 L2.79688,2.98438 M4.73438,4.98438 L5.73438,4.98438 L5.73438,11.1094 C5.73438,11.8698 5.58854,12.4219 5.29688,12.7656 C5.00521,13.1094 4.53125,13.2813 3.875,13.2813 L3.5,13.2813 L3.5,12.4531 L3.76563,12.4531 C4.14063,12.4531 4.39583,12.3646 4.53125,12.1875 C4.66667,12.0104 4.73438,11.651 4.73438,11.1094 L4.73438,4.98438 M4.73438,2.64063 L5.73438,2.64063 L5.73438,3.89063 L4.73438,3.89063 L4.73438,2.64063 M10.125,5.67188 C9.59375,5.67188 9.17448,5.88021 8.86719,6.29688 C8.5599,6.71354 8.40625,7.28125 8.40625,8 C8.40625,8.71875 8.55729,9.28385 8.85938,9.69531 C9.16146,10.1068 9.58333,10.3125 10.125,10.3125 C10.6458,10.3125 11.0599,10.1068 11.3672,9.69531 C11.6745,9.28385 11.8281,8.71875 11.8281,8 C11.8281,7.28125 11.6745,6.71354 11.3672,6.29688 C11.0599,5.88021 10.6458,5.67188 10.125,5.67188 M10.125,4.84375 C10.9792,4.84375 11.651,5.1224 12.1406,5.67969 C12.6302,6.23698 12.875,7.01042 12.875,8 C12.875,8.97917 12.6302,9.75 12.1406,10.3125 C11.651,10.875 10.9792,11.1563 10.125,11.1563 C9.26042,11.1563 8.58333,10.875 8.09375,10.3125 C7.60417,9.75 7.35938,8.97917 7.35938,8 C7.35938,7.01042 7.60417,6.23698 8.09375,5.67969 C8.58333,5.1224 9.26042,4.84375 10.125,4.84375 M14.5,4.98438 L15.5,4.98438 L15.5,11 L14.5,11 L14.5,4.98438 M14.5,2.64063 L15.5,2.64063 L15.5,3.89063 L14.5,3.89063 L14.5,2.64063 M22.5469,7.375 L22.5469,11 L21.5625,11 L21.5625,7.40625 C21.5625,6.83333 21.4531,6.40625 21.2344,6.125 C21.0156,5.84375 20.6823,5.70313 20.2344,5.70313 C19.7031,5.70313 19.2839,5.8724 18.9766,6.21094 C18.6693,6.54948 18.5156,7.01042 18.5156,7.59375 L18.5156,11 L17.5156,11 L17.5156,4.98438 L18.5156,4.98438 L18.5156,5.92188 C18.7448,5.55729 19.0208,5.28646 19.3438,5.10938 C19.6667,4.93229 20.0365,4.84375 20.4531,4.84375 C21.1406,4.84375 21.6615,5.05729 22.0156,5.48438 C22.3698,5.91146 22.5469,6.54167 22.5469,7.375 M25.5,3.28125 L25.5,4.98438 L27.5313,4.98438 L27.5313,5.75 L25.5,5.75 L25.5,9.01563 C25.5,9.50521 25.5677,9.82031 25.7031,9.96094 C25.8385,10.1016 26.1094,10.1719 26.5156,10.1719 L27.5313,10.1719 L27.5313,11 L26.5156,11 C25.7552,11 25.2292,10.8568 24.9375,10.5703 C24.6458,10.2839 24.5,9.76563 24.5,9.01563 L24.5,5.75 L23.7813,5.75 L23.7813,4.98438 L24.5,4.98438 L24.5,3.28125 L25.5,3.28125 M33.4063,12.8281 L33.4063,13.5938 L27.6875,13.5938 L27.6875,12.8281 L33.4063,12.8281 M38.1719,5.15625 L38.1719,6.09375 C37.8906,5.94792 37.599,5.84115 37.2969,5.77344 C36.9948,5.70573 36.6823,5.67188 36.3594,5.67188 C35.8698,5.67188 35.5026,5.7474 35.2578,5.89844 C35.013,6.04948 34.8906,6.27083 34.8906,6.5625 C34.8906,6.79167 34.9792,6.97135 35.1563,7.10156 C35.3333,7.23177 35.6875,7.35938 36.2188,7.48438 L36.5469,7.5625 C37.2552,7.70833 37.7552,7.91927 38.0469,8.19531 C38.3385,8.47135 38.4844,8.85417 38.4844,9.34375 C38.4844,9.89583 38.2656,10.3359 37.8281,10.6641 C37.3906,10.9922 36.7813,11.1563 36,11.1563 C35.6771,11.1563 35.3411,11.125 34.9922,11.0625 C34.6432,11 34.276,10.9063 33.8906,10.7813 L33.8906,9.76563 C34.2552,9.95313 34.6146,10.0938 34.9688,10.1875 C35.3229,10.2813 35.6771,10.3281 36.0313,10.3281 C36.4896,10.3281 36.8438,10.2474 37.0938,10.0859 C37.3438,9.92448 37.4688,9.70313 37.4688,9.42188 C37.4688,9.15104 37.3802,8.94271 37.2031,8.79688 C37.026,8.65104 36.6302,8.51563 36.0156,8.39063 L35.6719,8.29688 C35.0573,8.17188 34.6146,7.97656 34.3438,7.71094 C34.0729,7.44531 33.9375,7.07813 33.9375,6.60938 C33.9375,6.04688 34.138,5.61198 34.5391,5.30469 C34.9401,4.9974 35.5104,4.84375 36.25,4.84375 C36.6146,4.84375 36.9583,4.86979 37.2813,4.92188 C37.6042,4.97396 37.901,5.05208 38.1719,5.15625 M41.0313,3.28125 L41.0313,4.98438 L43.0625,4.98438 L43.0625,5.75 L41.0313,5.75 L41.0313,9.01563 C41.0313,9.50521 41.099,9.82031 41.2344,9.96094 C41.3698,10.1016 41.6406,10.1719 42.0469,10.1719 L43.0625,10.1719 L43.0625,11 L42.0469,11 C41.2865,11 40.7604,10.8568 40.4688,10.5703 C40.1771,10.2839 40.0313,9.76563 40.0313,9.01563 L40.0313,5.75 L39.3125,5.75 L39.3125,4.98438 L40.0313,4.98438 L40.0313,3.28125 L41.0313,3.28125 M47.0938,7.96875 C46.3021,7.96875 45.7526,8.0625 45.4453,8.25 C45.138,8.4375 44.9844,8.75 44.9844,9.1875 C44.9844,9.53125 45.099,9.80729 45.3281,10.0156 C45.5573,10.224 45.8698,10.3281 46.2656,10.3281 C46.8177,10.3281 47.2578,10.1328 47.5859,9.74219 C47.9141,9.35156 48.0781,8.83854 48.0781,8.20313 L48.0781,7.96875 L47.0938,7.96875 M49.0625,7.5625 L49.0625,11 L48.0781,11 L48.0781,10.0938 C47.8594,10.4583 47.5807,10.7266 47.2422,10.8984 C46.9036,11.0703 46.4896,11.1563 46,11.1563 C45.3854,11.1563 44.8958,10.9844 44.5313,10.6406 C44.1667,10.2969 43.9844,9.83333 43.9844,9.25 C43.9844,8.57292 44.2109,8.0625 44.6641,7.71875 C45.1172,7.375 45.7969,7.20313 46.7031,7.20313 L48.0781,7.20313 L48.0781,7.10938 C48.0781,6.65104 47.9297,6.29688 47.6328,6.04688 C47.3359,5.79688 46.9167,5.67188 46.375,5.67188 C46.0313,5.67188 45.6953,5.71354 45.3672,5.79688 C45.0391,5.88021 44.724,6.00521 44.4219,6.17188 L44.4219,5.26563 C44.7865,5.11979 45.1406,5.01302 45.4844,4.94531 C45.8281,4.8776 46.1563,4.84375 46.4688,4.84375 C47.3438,4.84375 47.9948,5.06771 48.4219,5.51563 C48.849,5.96354 49.0625,6.64583 49.0625,7.5625 M52.0781,3.28125 L52.0781,4.98438 L54.1094,4.98438 L54.1094,5.75 L52.0781,5.75 L52.0781,9.01563 C52.0781,9.50521 52.1458,9.82031 52.2813,9.96094 C52.4167,10.1016 52.6875,10.1719 53.0938,10.1719 L54.1094,10.1719 L54.1094,11 L53.0938,11 C52.3333,11 51.8073,10.8568 51.5156,10.5703 C51.224,10.2839 51.0781,9.76563 51.0781,9.01563 L51.0781,5.75 L50.3594,5.75 L50.3594,4.98438 L51.0781,4.98438 L51.0781,3.28125 L52.0781,3.28125 M60.5625,7.75 L60.5625,8.23438 L56.0156,8.23438 C56.0573,8.91146 56.2604,9.42708 56.625,9.78125 C56.9896,10.1354 57.5,10.3125 58.1563,10.3125 C58.5417,10.3125 58.9115,10.2656 59.2656,10.1719 C59.6198,10.0781 59.974,9.94271 60.3281,9.76563 L60.3281,10.6875 C59.974,10.8438 59.6094,10.9609 59.2344,11.0391 C58.8594,11.1172 58.4844,11.1563 58.1094,11.1563 C57.1406,11.1563 56.3776,10.8776 55.8203,10.3203 C55.263,9.76302 54.9844,9.00521 54.9844,8.04688 C54.9844,7.06771 55.25,6.28906 55.7813,5.71094 C56.3125,5.13281 57.0313,4.84375 57.9375,4.84375 C58.7396,4.84375 59.3776,5.10417 59.8516,5.625 C60.3255,6.14583 60.5625,6.85417 60.5625,7.75 M59.5625,7.45313 C59.5625,6.91146 59.4141,6.47917 59.1172,6.15625 C58.8203,5.83333 58.4271,5.67188 57.9375,5.67188 C57.3854,5.67188 56.9453,5.82813 56.6172,6.14063 C56.2891,6.45313 56.099,6.89063 56.0469,7.45313 L59.5625,7.45313 M66.0156,5.15625 L66.0156,6.09375 C65.7344,5.94792 65.4427,5.84115 65.1406,5.77344 C64.8385,5.70573 64.526,5.67188 64.2031,5.67188 C63.7135,5.67188 63.3464,5.7474 63.1016,5.89844 C62.8568,6.04948 62.7344,6.27083 62.7344,6.5625 C62.7344,6.79167 62.8229,6.97135 63,7.10156 C63.1771,7.23177 63.5313,7.35938 64.0625,7.48438 L64.3906,7.5625 C65.099,7.70833 65.599,7.91927 65.8906,8.19531 C66.1823,8.47135 66.3281,8.85417 66.3281,9.34375 C66.3281,9.89583 66.1094,10.3359 65.6719,10.6641 C65.2344,10.9922 64.625,11.1563 63.8438,11.1563 C63.5208,11.1563 63.1849,11.125 62.8359,11.0625 C62.487,11 62.1198,10.9063 61.7344,10.7813 L61.7344,9.76563 C62.099,9.95313 62.4583,10.0938 62.8125,10.1875 C63.1667,10.2813 63.5208,10.3281 63.875,10.3281 C64.3333,10.3281 64.6875,10.2474 64.9375,10.0859 C65.1875,9.92448 65.3125,9.70313 65.3125,9.42188 C65.3125,9.15104 65.224,8.94271 65.0469,8.79688 C64.8698,8.65104 64.474,8.51563 63.8594,8.39063 L63.5156,8.29688 C62.901,8.17188 62.4583,7.97656 62.1875,7.71094 C61.9167,7.44531 61.7813,7.07813 61.7813,6.60938 C61.7813,6.04688 61.9818,5.61198 62.3828,5.30469 C62.7839,4.9974 63.3542,4.84375 64.0938,4.84375 C64.4583,4.84375 64.8021,4.86979 65.125,4.92188 C65.4479,4.97396 65.7448,5.05208 66.0156,5.15625 "/>
</g>

<g fill="none" stroke="#000000" stroke-opacity="1" stroke-width="1" stroke-linecap="square" stroke-linejoin="bevel" transform="matrix(2,0,0,2,391.499,79)"
font-family="sans" font-size="11" font-weight="100" font-style="normal" 
>
</g>

<g fill="none" stroke="#000000" stroke-opacity="1" stroke-width="1" stroke-linecap="square" stroke-linejoin="bevel" transform="matrix(2,0,0,2,391.499,79)"
font-family="Ubuntu" font-size="11" font-weight="400" font-style="normal" 
>
</g>

<g fill="none" stroke="#000000" stroke-opacity="1" stroke-width="1" stroke-linecap="square" stroke-linejoin="bevel" transform="matrix(2,0,0,2,-0.0016,313)"
font-family="Ubuntu" font-size="11" font-weight="400" font-style="normal" 
>
</g>

<g fill="none" stroke="#000000" stroke-opacity="1" stroke-width="1" stroke-linecap="square" stroke-linejoin="bevel" transform="matrix(2,0,0,2,-0.0016,313)"
font-family="Ubuntu" font-size="11" font-weight="400" font-style="normal" 
>
</g>

<g fill="none" stroke="#000000" stroke-opacity="1" stroke-width="1" stroke-linecap="square" stroke-linejoin="bevel" transform="matrix(2,0,0,2,-0.0016,313)"
font-family="Ubuntu" font-size="11" font-weight="400" font-style="normal" 
>
</g>

<g fill="none" stroke="#000000" stroke-opacity="1" stroke-width="1" stroke-linecap="square" stroke-linejoin="round" transform="matrix(2,0,0,2,-0.0016,313)"
font-family="Ubuntu" font-size="11" font-weight="400" font-style="normal" 
>
<ellipse cx="342.03" cy="-110" rx="57.3448" ry="17.5"/>
</g>

<g fill="none" stroke="#000000" stroke-opacity="1" stroke-width="1" stroke-linecap="square" stroke-linejoin="bevel" transform="matrix(2,0,0,2,-0.0016,313)"
font-family="Ubuntu" font-size="11" font-weight="400" font-style="normal" 
>
</g>

<g fill="none" stroke="#000000" stroke-opacity="1" stroke-width="1" stroke-linecap="square" stroke-linejoin="bevel" transform="matrix(2,0,0,2,625.933,79)"
font-family="Ubuntu" font-size="11" font-weight="400" font-style="normal" 
>
</g>

<g fill="none" stroke="#000000" stroke-opacity="1" stroke-width="1" stroke-linecap="square" stroke-linejoin="bevel" transform="matrix(2,0,0,2,625.933,79)"
font-family="sans" font-size="11" font-weight="100" font-style="normal" 
>
</g>

<g fill="#000000" fill-opacity="1" stroke="#000000" stroke-opacity="1" stroke-width="1" stroke-linecap="square" stroke-linejoin="round" transform="matrix(2,0,0,2,625.933,79)"
font-family="sans" font-size="11" font-weight="100" font-style="normal" 
>
<path vector-effect="none" fill-rule="nonzero" d="M2.79688,2.98438 L3.70313,2.98438 L0.90625,12.0156 L0,12.0156 L2.79688,2.98438 M4.78125,2.98438 L5.875,2.98438 L5.875,6.375 L9.46875,2.98438 L10.8594,2.98438 L6.89063,6.71875 L11.1406,11 L9.71875,11 L5.875,7.14063 L5.875,11 L4.78125,11 L4.78125,2.98438 M13.0781,3.875 L13.0781,10.1094 L14.375,10.1094 C15.4896,10.1094 16.3021,9.85938 16.8125,9.35938 C17.3229,8.85938 17.5781,8.06771 17.5781,6.98438 C17.5781,5.91146 17.3229,5.125 16.8125,4.625 C16.3021,4.125 15.4896,3.875 14.375,3.875 L13.0781,3.875 M11.9844,2.98438 L14.2188,2.98438 C15.7708,2.98438 16.9115,3.30729 17.6406,3.95313 C18.3698,4.59896 18.7344,5.60938 18.7344,6.98438 C18.7344,8.36979 18.3672,9.38542 17.6328,10.0313 C16.8984,10.6771 15.7604,11 14.2188,11 L11.9844,11 L11.9844,2.98438 M20.4531,2.98438 L21.5469,2.98438 L21.5469,10.0938 L25.4375,10.0938 L25.4375,11 L20.4531,11 L20.4531,2.98438 M31.1094,12.8281 L31.1094,13.5938 L25.3906,13.5938 L25.3906,12.8281 L31.1094,12.8281 M33.1719,3.875 L33.1719,10.1094 L34.4688,10.1094 C35.5833,10.1094 36.3958,9.85938 36.9063,9.35938 C37.4167,8.85938 37.6719,8.06771 37.6719,6.98438 C37.6719,5.91146 37.4167,5.125 36.9063,4.625 C36.3958,4.125 35.5833,3.875 34.4688,3.875 L33.1719,3.875 M32.0781,2.98438 L34.3125,2.98438 C35.8646,2.98438 37.0052,3.30729 37.7344,3.95313 C38.4635,4.59896 38.8281,5.60938 38.8281,6.98438 C38.8281,8.36979 38.4609,9.38542 37.7266,10.0313 C36.9922,10.6771 35.8542,11 34.3125,11 L32.0781,11 L32.0781,2.98438 M40.5469,2.98438 L41.6406,2.98438 L41.6406,6.375 L45.2344,2.98438 L46.625,2.98438 L42.6563,6.71875 L46.9063,11 L45.4844,11 L41.6406,7.14063 L41.6406,11 L40.5469,11 L40.5469,2.98438 M47.75,2.98438 L48.8438,2.98438 L48.8438,11 L47.75,11 L47.75,2.98438 M50.9844,2.98438 L52.4531,2.98438 L56,9.6875 L56,2.98438 L57.0625,2.98438 L57.0625,11 L55.5938,11 L52.0313,4.29688 L52.0313,11 L50.9844,11 L50.9844,2.98438"/>
</g>

<g fill="none" stroke="#000000" stroke-opacity="1" stroke-width="1" stroke-linecap="square" stroke-linejoin="bevel" transform="matrix(2,0,0,2,625.933,79)"
font-family="sans" font-size="11" font-weight="100" font-style="normal" 
>
</g>

<g fill="none" stroke="#000000" stroke-opacity="1" stroke-width="1" stroke-linecap="square" stroke-linejoin="bevel" transform="matrix(2,0,0,2,625.933,79)"
font-family="Ubuntu" font-size="11" font-weight="400" font-style="normal" 
>
</g>

<g fill="none" stroke="#000000" stroke-opacity="1" stroke-width="1" stroke-linecap="square" stroke-linejoin="bevel" transform="matrix(2,0,0,2,-0.0016,313)"
font-family="Ubuntu" font-size="11" font-weight="400" font-style="normal" 
>
</g>

<g fill="none" stroke="#000000" stroke-opacity="1" stroke-width="1" stroke-linecap="square" stroke-linejoin="bevel" transform="matrix(2,0,0,2,-0.0016,313)"
font-family="Ubuntu" font-size="11" font-weight="400" font-style="normal" 
>
</g>

<g fill="none" stroke="#000000" stroke-opacity="1" stroke-width="1" stroke-linecap="square" stroke-linejoin="bevel" transform="matrix(2,0,0,2,-0.0016,313)"
font-family="Ubuntu" font-size="11" font-weight="400" font-style="normal" 
>
</g>

<g fill="none" stroke="#000000" stroke-opacity="1" stroke-width="1" stroke-linecap="square" stroke-linejoin="round" transform="matrix(2,0,0,2,-0.0016,313)"
font-family="Ubuntu" font-size="11" font-weight="400" font-style="normal" 
>
<ellipse cx="620.77" cy="-18" rx="94.3924" ry="17.5"/>
</g>

<g fill="none" stroke="#000000" stroke-opacity="1" stroke-width="1" stroke-linecap="square" stroke-linejoin="bevel" transform="matrix(2,0,0,2,-0.0016,313)"
font-family="Ubuntu" font-size="11" font-weight="400" font-style="normal" 
>
</g>

<g fill="none" stroke="#000000" stroke-opacity="1" stroke-width="1" stroke-linecap="square" stroke-linejoin="bevel" transform="matrix(2,0,0,2,1114.23,263)"
font-family="Ubuntu" font-size="11" font-weight="400" font-style="normal" 
>
</g>

<g fill="none" stroke="#000000" stroke-opacity="1" stroke-width="1" stroke-linecap="square" stroke-linejoin="bevel" transform="matrix(2,0,0,2,1114.23,263)"
font-family="sans" font-size="11" font-weight="100" font-style="normal" 
>
</g>

<g fill="#000000" fill-opacity="1" stroke="#000000" stroke-opacity="1" stroke-width="1" stroke-linecap="square" stroke-linejoin="round" transform="matrix(2,0,0,2,1114.23,263)"
font-family="sans" font-size="11" font-weight="100" font-style="normal" 
>
<path vector-effect="none" fill-rule="nonzero" d="M2.79688,2.98438 L3.70313,2.98438 L0.90625,12.0156 L0,12.0156 L2.79688,2.98438 M8.21875,5.90625 C8.11458,5.84375 7.9974,5.79688 7.86719,5.76563 C7.73698,5.73438 7.59375,5.71875 7.4375,5.71875 C6.875,5.71875 6.44531,5.90104 6.14844,6.26563 C5.85156,6.63021 5.70313,7.15104 5.70313,7.82813 L5.70313,11 L4.70313,11 L4.70313,4.98438 L5.70313,4.98438 L5.70313,5.92188 C5.90104,5.55729 6.16667,5.28646 6.5,5.10938 C6.83333,4.93229 7.23958,4.84375 7.71875,4.84375 C7.79167,4.84375 7.86719,4.84635 7.94531,4.85156 C8.02344,4.85677 8.11458,4.86979 8.21875,4.89063 L8.21875,5.90625 M9.84375,8 C9.84375,8.72917 9.99479,9.29948 10.2969,9.71094 C10.599,10.1224 11.0104,10.3281 11.5313,10.3281 C12.0521,10.3281 12.4635,10.1224 12.7656,9.71094 C13.0677,9.29948 13.2188,8.72917 13.2188,8 C13.2188,7.27083 13.0677,6.70052 12.7656,6.28906 C12.4635,5.8776 12.0521,5.67188 11.5313,5.67188 C11.0104,5.67188 10.599,5.8776 10.2969,6.28906 C9.99479,6.70052 9.84375,7.27083 9.84375,8 M13.2188,10.0938 C13.0104,10.4583 12.7474,10.7266 12.4297,10.8984 C12.112,11.0703 11.7292,11.1563 11.2813,11.1563 C10.5625,11.1563 9.97396,10.8672 9.51563,10.2891 C9.05729,9.71094 8.82813,8.94792 8.82813,8 C8.82813,7.05208 9.05729,6.28906 9.51563,5.71094 C9.97396,5.13281 10.5625,4.84375 11.2813,4.84375 C11.7292,4.84375 12.112,4.92969 12.4297,5.10156 C12.7474,5.27344 13.0104,5.53646 13.2188,5.89063 L13.2188,4.98438 L14.2031,4.98438 L14.2031,13.2813 L13.2188,13.2813 L13.2188,10.0938 M17.2031,3.28125 L17.2031,4.98438 L19.2344,4.98438 L19.2344,5.75 L17.2031,5.75 L17.2031,9.01563 C17.2031,9.50521 17.2708,9.82031 17.4063,9.96094 C17.5417,10.1016 17.8125,10.1719 18.2188,10.1719 L19.2344,10.1719 L19.2344,11 L18.2188,11 C17.4583,11 16.9323,10.8568 16.6406,10.5703 C16.349,10.2839 16.2031,9.76563 16.2031,9.01563 L16.2031,5.75 L15.4844,5.75 L15.4844,4.98438 L16.2031,4.98438 L16.2031,3.28125 L17.2031,3.28125 M25.1094,12.8281 L25.1094,13.5938 L19.3906,13.5938 L19.3906,12.8281 L25.1094,12.8281 M30,7.92188 C30,7.20313 29.8516,6.64844 29.5547,6.25781 C29.2578,5.86719 28.8438,5.67188 28.3125,5.67188 C27.7813,5.67188 27.3672,5.86719 27.0703,6.25781 C26.7734,6.64844 26.625,7.20313 26.625,7.92188 C26.625,8.63021 26.7734,9.18229 27.0703,9.57813 C27.3672,9.97396 27.7813,10.1719 28.3125,10.1719 C28.8438,10.1719 29.2578,9.97396 29.5547,9.57813 C29.8516,9.18229 30,8.63021 30,7.92188 M30.9844,10.25 C30.9844,11.2813 30.7578,12.0443 30.3047,12.5391 C29.8516,13.0339 29.1563,13.2813 28.2188,13.2813 C27.8646,13.2813 27.5339,13.2552 27.2266,13.2031 C26.9193,13.151 26.6198,13.0729 26.3281,12.9688 L26.3281,12.0156 C26.6198,12.1719 26.9063,12.2865 27.1875,12.3594 C27.4688,12.4323 27.7604,12.4688 28.0625,12.4688 C28.7083,12.4688 29.1927,12.2995 29.5156,11.9609 C29.8385,11.6224 30,11.1146 30,10.4375 L30,9.9375 C29.7917,10.2917 29.5286,10.5573 29.2109,10.7344 C28.8932,10.9115 28.5104,11 28.0625,11 C27.3229,11 26.7292,10.7188 26.2813,10.1563 C25.8333,9.59375 25.6094,8.84896 25.6094,7.92188 C25.6094,6.99479 25.8333,6.25 26.2813,5.6875 C26.7292,5.125 27.3229,4.84375 28.0625,4.84375 C28.5104,4.84375 28.8932,4.92969 29.2109,5.10156 C29.5286,5.27344 29.7917,5.53646 30,5.89063 L30,4.98438 L30.9844,4.98438 L30.9844,10.25 M32.9063,8.625 L32.9063,4.98438 L33.8906,4.98438 L33.8906,8.59375 C33.8906,9.15625 34.0026,9.58073 34.2266,9.86719 C34.4505,10.1536 34.7813,10.2969 35.2188,10.2969 C35.7604,10.2969 36.1849,10.1276 36.4922,9.78906 C36.7995,9.45052 36.9531,8.98438 36.9531,8.39063 L36.9531,4.98438 L37.9375,4.98438 L37.9375,11 L36.9531,11 L36.9531,10.0781 C36.7135,10.4427 36.4349,10.7135 36.1172,10.8906 C35.7995,11.0677 35.4323,11.1563 35.0156,11.1563 C34.3281,11.1563 33.8047,10.9401 33.4453,10.5078 C33.0859,10.0755 32.9063,9.44792 32.9063,8.625 M39.9688,4.98438 L40.9688,4.98438 L40.9688,11 L39.9688,11 L39.9688,4.98438 M39.9688,2.64063 L40.9688,2.64063 L40.9688,3.89063 L39.9688,3.89063 L39.9688,2.64063 M47.5938,12.8281 L47.5938,13.5938 L41.875,13.5938 L41.875,12.8281 L47.5938,12.8281 M49.4844,10.0938 L49.4844,13.2813 L48.4844,13.2813 L48.4844,4.98438 L49.4844,4.98438 L49.4844,5.89063 C49.6823,5.53646 49.9401,5.27344 50.2578,5.10156 C50.5755,4.92969 50.9583,4.84375 51.4063,4.84375 C52.1354,4.84375 52.7266,5.13281 53.1797,5.71094 C53.6328,6.28906 53.8594,7.05208 53.8594,8 C53.8594,8.94792 53.6328,9.71094 53.1797,10.2891 C52.7266,10.8672 52.1354,11.1563 51.4063,11.1563 C50.9583,11.1563 50.5755,11.0703 50.2578,10.8984 C49.9401,10.7266 49.6823,10.4583 49.4844,10.0938 M52.8438,8 C52.8438,7.27083 52.6927,6.70052 52.3906,6.28906 C52.0885,5.8776 51.6771,5.67188 51.1563,5.67188 C50.6354,5.67188 50.2266,5.8776 49.9297,6.28906 C49.6328,6.70052 49.4844,7.27083 49.4844,8 C49.4844,8.72917 49.6328,9.29948 49.9297,9.71094 C50.2266,10.1224 50.6354,10.3281 51.1563,10.3281 C51.6771,10.3281 52.0885,10.1224 52.3906,9.71094 C52.6927,9.29948 52.8438,8.72917 52.8438,8 M58,11.5625 C57.7188,12.2813 57.4453,12.7474 57.1797,12.9609 C56.9141,13.1745 56.5573,13.2813 56.1094,13.2813 L55.3281,13.2813 L55.3281,12.4688 L55.9063,12.4688 C56.1771,12.4688 56.388,12.4036 56.5391,12.2734 C56.6901,12.1432 56.8542,11.8385 57.0313,11.3594 L57.2188,10.9063 L54.7813,4.98438 L55.8281,4.98438 L57.7031,9.6875 L59.5938,4.98438 L60.6406,4.98438 L58,11.5625 M66.5625,12.8281 L66.5625,13.5938 L60.8438,13.5938 L60.8438,12.8281 L66.5625,12.8281 M72.4844,7.375 L72.4844,11 L71.5,11 L71.5,7.40625 C71.5,6.83333 71.3906,6.40625 71.1719,6.125 C70.9531,5.84375 70.6198,5.70313 70.1719,5.70313 C69.6406,5.70313 69.2214,5.8724 68.9141,6.21094 C68.6068,6.54948 68.4531,7.01042 68.4531,7.59375 L68.4531,11 L67.4531,11 L67.4531,4.98438 L68.4531,4.98438 L68.4531,5.92188 C68.6823,5.55729 68.9583,5.28646 69.2813,5.10938 C69.6042,4.93229 69.974,4.84375 70.3906,4.84375 C71.0781,4.84375 71.599,5.05729 71.9531,5.48438 C72.3073,5.91146 72.4844,6.54167 72.4844,7.375 M76.7969,5.67188 C76.2656,5.67188 75.8464,5.88021 75.5391,6.29688 C75.2318,6.71354 75.0781,7.28125 75.0781,8 C75.0781,8.71875 75.2292,9.28385 75.5313,9.69531 C75.8333,10.1068 76.2552,10.3125 76.7969,10.3125 C77.3177,10.3125 77.7318,10.1068 78.0391,9.69531 C78.3464,9.28385 78.5,8.71875 78.5,8 C78.5,7.28125 78.3464,6.71354 78.0391,6.29688 C77.7318,5.88021 77.3177,5.67188 76.7969,5.67188 M76.7969,4.84375 C77.651,4.84375 78.3229,5.1224 78.8125,5.67969 C79.3021,6.23698 79.5469,7.01042 79.5469,8 C79.5469,8.97917 79.3021,9.75 78.8125,10.3125 C78.3229,10.875 77.651,11.1563 76.7969,11.1563 C75.9323,11.1563 75.2552,10.875 74.7656,10.3125 C74.276,9.75 74.0313,8.97917 74.0313,8 C74.0313,7.01042 74.276,6.23698 74.7656,5.67969 C75.2552,5.1224 75.9323,4.84375 76.7969,4.84375 M85.1406,5.89063 L85.1406,2.64063 L86.125,2.64063 L86.125,11 L85.1406,11 L85.1406,10.0938 C84.9323,10.4583 84.6693,10.7266 84.3516,10.8984 C84.0339,11.0703 83.651,11.1563 83.2031,11.1563 C82.4844,11.1563 81.8958,10.8672 81.4375,10.2891 C80.9792,9.71094 80.75,8.94792 80.75,8 C80.75,7.05208 80.9792,6.28906 81.4375,5.71094 C81.8958,5.13281 82.4844,4.84375 83.2031,4.84375 C83.651,4.84375 84.0339,4.92969 84.3516,5.10156 C84.6693,5.27344 84.9323,5.53646 85.1406,5.89063 M81.7656,8 C81.7656,8.72917 81.9167,9.29948 82.2188,9.71094 C82.5208,10.1224 82.9323,10.3281 83.4531,10.3281 C83.974,10.3281 84.3854,10.1224 84.6875,9.71094 C84.9896,9.29948 85.1406,8.72917 85.1406,8 C85.1406,7.27083 84.9896,6.70052 84.6875,6.28906 C84.3854,5.8776 83.974,5.67188 83.4531,5.67188 C82.9323,5.67188 82.5208,5.8776 82.2188,6.28906 C81.9167,6.70052 81.7656,7.27083 81.7656,8 M93.2969,7.75 L93.2969,8.23438 L88.75,8.23438 C88.7917,8.91146 88.9948,9.42708 89.3594,9.78125 C89.724,10.1354 90.2344,10.3125 90.8906,10.3125 C91.276,10.3125 91.6458,10.2656 92,10.1719 C92.3542,10.0781 92.7083,9.94271 93.0625,9.76563 L93.0625,10.6875 C92.7083,10.8438 92.3438,10.9609 91.9688,11.0391 C91.5938,11.1172 91.2188,11.1563 90.8438,11.1563 C89.875,11.1563 89.112,10.8776 88.5547,10.3203 C87.9974,9.76302 87.7188,9.00521 87.7188,8.04688 C87.7188,7.06771 87.9844,6.28906 88.5156,5.71094 C89.0469,5.13281 89.7656,4.84375 90.6719,4.84375 C91.474,4.84375 92.112,5.10417 92.5859,5.625 C93.0599,6.14583 93.2969,6.85417 93.2969,7.75 M92.2969,7.45313 C92.2969,6.91146 92.1484,6.47917 91.8516,6.15625 C91.5547,5.83333 91.1615,5.67188 90.6719,5.67188 C90.1198,5.67188 89.6797,5.82813 89.3516,6.14063 C89.0234,6.45313 88.8333,6.89063 88.7813,7.45313 L92.2969,7.45313 M99.4844,12.8281 L99.4844,13.5938 L93.7656,13.5938 L93.7656,12.8281 L99.4844,12.8281 M100.578,10.8281 L100.578,9.84375 C100.849,9.96875 101.125,10.0677 101.406,10.1406 C101.688,10.2135 101.964,10.25 102.234,10.25 C102.953,10.25 103.5,10.0078 103.875,9.52344 C104.25,9.03906 104.464,8.30729 104.516,7.32813 C104.307,7.63021 104.044,7.86458 103.727,8.03125 C103.409,8.19792 103.057,8.28125 102.672,8.28125 C101.87,8.28125 101.234,8.03906 100.766,7.55469 C100.297,7.07031 100.063,6.40625 100.063,5.5625 C100.063,4.73958 100.307,4.07813 100.797,3.57813 C101.286,3.07813 101.938,2.82813 102.75,2.82813 C103.677,2.82813 104.383,3.1849 104.867,3.89844 C105.352,4.61198 105.594,5.64583 105.594,7 C105.594,8.26042 105.294,9.26823 104.695,10.0234 C104.096,10.7786 103.292,11.1563 102.281,11.1563 C102.01,11.1563 101.734,11.1302 101.453,11.0781 C101.172,11.026 100.88,10.9427 100.578,10.8281 M102.75,7.4375 C103.229,7.4375 103.612,7.27083 103.898,6.9375 C104.185,6.60417 104.328,6.14583 104.328,5.5625 C104.328,4.98958 104.185,4.53385 103.898,4.19531 C103.612,3.85677 103.229,3.6875 102.75,3.6875 C102.26,3.6875 101.872,3.85677 101.586,4.19531 C101.299,4.53385 101.156,4.98958 101.156,5.5625 C101.156,6.14583 101.299,6.60417 101.586,6.9375 C101.872,7.27083 102.26,7.4375 102.75,7.4375 M110.516,3.92188 L107.781,8.20313 L110.516,8.20313 L110.516,3.92188 M110.234,2.98438 L111.594,2.98438 L111.594,8.20313 L112.734,8.20313 L112.734,9.10938 L111.594,9.10938 L111.594,11 L110.516,11 L110.516,9.10938 L106.891,9.10938 L106.891,8.0625 L110.234,2.98438 M116.969,6.5625 C116.49,6.5625 116.107,6.72917 115.82,7.0625 C115.534,7.39583 115.391,7.84896 115.391,8.42188 C115.391,9.00521 115.534,9.46354 115.82,9.79688 C116.107,10.1302 116.49,10.2969 116.969,10.2969 C117.458,10.2969 117.846,10.1302 118.133,9.79688 C118.419,9.46354 118.563,9.00521 118.563,8.42188 C118.563,7.84896 118.419,7.39583 118.133,7.0625 C117.846,6.72917 117.458,6.5625 116.969,6.5625 M119.125,3.15625 L119.125,4.14063 C118.854,4.01563 118.581,3.91927 118.305,3.85156 C118.029,3.78385 117.755,3.75 117.484,3.75 C116.766,3.75 116.216,3.99219 115.836,4.47656 C115.456,4.96094 115.24,5.69271 115.188,6.67188 C115.406,6.35938 115.674,6.11979 115.992,5.95313 C116.31,5.78646 116.661,5.70313 117.047,5.70313 C117.849,5.70313 118.484,5.94792 118.953,6.4375 C119.422,6.92708 119.656,7.58854 119.656,8.42188 C119.656,9.24479 119.411,9.90625 118.922,10.4063 C118.432,10.9063 117.781,11.1563 116.969,11.1563 C116.042,11.1563 115.333,10.7995 114.844,10.0859 C114.354,9.3724 114.109,8.34375 114.109,7 C114.109,5.72917 114.411,4.71615 115.016,3.96094 C115.62,3.20573 116.427,2.82813 117.438,2.82813 C117.708,2.82813 117.982,2.85677 118.258,2.91406 C118.534,2.97135 118.823,3.05208 119.125,3.15625 M121.531,10.8281 L121.531,9.84375 C121.802,9.96875 122.078,10.0677 122.359,10.1406 C122.641,10.2135 122.917,10.25 123.188,10.25 C123.906,10.25 124.453,10.0078 124.828,9.52344 C125.203,9.03906 125.417,8.30729 125.469,7.32813 C125.26,7.63021 124.997,7.86458 124.68,8.03125 C124.362,8.19792 124.01,8.28125 123.625,8.28125 C122.823,8.28125 122.188,8.03906 121.719,7.55469 C121.25,7.07031 121.016,6.40625 121.016,5.5625 C121.016,4.73958 121.26,4.07813 121.75,3.57813 C122.24,3.07813 122.891,2.82813 123.703,2.82813 C124.63,2.82813 125.336,3.1849 125.82,3.89844 C126.305,4.61198 126.547,5.64583 126.547,7 C126.547,8.26042 126.247,9.26823 125.648,10.0234 C125.049,10.7786 124.245,11.1563 123.234,11.1563 C122.964,11.1563 122.688,11.1302 122.406,11.0781 C122.125,11.026 121.833,10.9427 121.531,10.8281 M123.703,7.4375 C124.182,7.4375 124.565,7.27083 124.852,6.9375 C125.138,6.60417 125.281,6.14583 125.281,5.5625 C125.281,4.98958 125.138,4.53385 124.852,4.19531 C124.565,3.85677 124.182,3.6875 123.703,3.6875 C123.214,3.6875 122.826,3.85677 122.539,4.19531 C122.253,4.53385 122.109,4.98958 122.109,5.5625 C122.109,6.14583 122.253,6.60417 122.539,6.9375 C122.826,7.27083 123.214,7.4375 123.703,7.4375 "/>
</g>

<g fill="none" stroke="#000000" stroke-opacity="1" stroke-width="1" stroke-linecap="square" stroke-linejoin="bevel" transform="matrix(2,0,0,2,1114.23,263)"
font-family="sans" font-size="11" font-weight="100" font-style="normal" 
>
</g>

<g fill="none" stroke="#000000" stroke-opacity="1" stroke-width="1" stroke-linecap="square" stroke-linejoin="bevel" transform="matrix(2,0,0,2,1114.23,263)"
font-family="Ubuntu" font-size="11" font-weight="400" font-style="normal" 
>
</g>

<g fill="none" stroke="#000000" stroke-opacity="1" stroke-width="1" stroke-linecap="square" stroke-linejoin="bevel" transform="matrix(2,0,0,2,-0.0016,313)"
font-family="Ubuntu" font-size="11" font-weight="400" font-style="normal" 
>
</g>

<g fill="none" stroke="#000000" stroke-opacity="1" stroke-width="1" stroke-linecap="square" stroke-linejoin="bevel" transform="matrix(2,0,0,2,-0.0016,313)"
font-family="Ubuntu" font-size="11" font-weight="400" font-style="normal" 
>
</g>

<g fill="none" stroke="#000000" stroke-opacity="1" stroke-width="1" stroke-linecap="square" stroke-linejoin="bevel" transform="matrix(2,0,0,2,-0.0016,313)"
font-family="Ubuntu" font-size="11" font-weight="400" font-style="normal" 
>
</g>

<g fill="none" stroke="#000000" stroke-opacity="1" stroke-width="1" stroke-linecap="square" stroke-linejoin="round" transform="matrix(2,0,0,2,-0.0016,313)"
font-family="Ubuntu" font-size="11" font-weight="400" font-style="normal" 
>
<ellipse cx="832.75" cy="-95" rx="34.5968" ry="17.5"/>
</g>

<g fill="none" stroke="#000000" stroke-opacity="1" stroke-width="1" stroke-linecap="square" stroke-linejoin="bevel" transform="matrix(2,0,0,2,-0.0016,313)"
font-family="Ubuntu" font-size="11" font-weight="400" font-style="normal" 
>
</g>

<g fill="none" stroke="#000000" stroke-opacity="1" stroke-width="1" stroke-linecap="square" stroke-linejoin="bevel" transform="matrix(2,0,0,2,1625.84,109)"
font-family="Ubuntu" font-size="11" font-weight="400" font-style="normal" 
>
</g>

<g fill="none" stroke="#000000" stroke-opacity="1" stroke-width="1" stroke-linecap="square" stroke-linejoin="bevel" transform="matrix(2,0,0,2,1625.84,109)"
font-family="sans" font-size="11" font-weight="100" font-style="normal" 
>
</g>

<g fill="#000000" fill-opacity="1" stroke="#000000" stroke-opacity="1" stroke-width="1" stroke-linecap="square" stroke-linejoin="round" transform="matrix(2,0,0,2,1625.84,109)"
font-family="sans" font-size="11" font-weight="100" font-style="normal" 
>
<path vector-effect="none" fill-rule="nonzero" d="M2.79688,2.98438 L3.70313,2.98438 L0.90625,12.0156 L0,12.0156 L2.79688,2.98438 M8.21875,5.90625 C8.11458,5.84375 7.9974,5.79688 7.86719,5.76563 C7.73698,5.73438 7.59375,5.71875 7.4375,5.71875 C6.875,5.71875 6.44531,5.90104 6.14844,6.26563 C5.85156,6.63021 5.70313,7.15104 5.70313,7.82813 L5.70313,11 L4.70313,11 L4.70313,4.98438 L5.70313,4.98438 L5.70313,5.92188 C5.90104,5.55729 6.16667,5.28646 6.5,5.10938 C6.83333,4.93229 7.23958,4.84375 7.71875,4.84375 C7.79167,4.84375 7.86719,4.84635 7.94531,4.85156 C8.02344,4.85677 8.11458,4.86979 8.21875,4.89063 L8.21875,5.90625 M11.5938,5.67188 C11.0625,5.67188 10.6432,5.88021 10.3359,6.29688 C10.0286,6.71354 9.875,7.28125 9.875,8 C9.875,8.71875 10.026,9.28385 10.3281,9.69531 C10.6302,10.1068 11.0521,10.3125 11.5938,10.3125 C12.1146,10.3125 12.5286,10.1068 12.8359,9.69531 C13.1432,9.28385 13.2969,8.71875 13.2969,8 C13.2969,7.28125 13.1432,6.71354 12.8359,6.29688 C12.5286,5.88021 12.1146,5.67188 11.5938,5.67188 M11.5938,4.84375 C12.4479,4.84375 13.1198,5.1224 13.6094,5.67969 C14.099,6.23698 14.3438,7.01042 14.3438,8 C14.3438,8.97917 14.099,9.75 13.6094,10.3125 C13.1198,10.875 12.4479,11.1563 11.5938,11.1563 C10.7292,11.1563 10.0521,10.875 9.5625,10.3125 C9.07292,9.75 8.82813,8.97917 8.82813,8 C8.82813,7.01042 9.07292,6.23698 9.5625,5.67969 C10.0521,5.1224 10.7292,4.84375 11.5938,4.84375 M19.8125,5.15625 L19.8125,6.09375 C19.5313,5.94792 19.2396,5.84115 18.9375,5.77344 C18.6354,5.70573 18.3229,5.67188 18,5.67188 C17.5104,5.67188 17.1432,5.7474 16.8984,5.89844 C16.6536,6.04948 16.5313,6.27083 16.5313,6.5625 C16.5313,6.79167 16.6198,6.97135 16.7969,7.10156 C16.974,7.23177 17.3281,7.35938 17.8594,7.48438 L18.1875,7.5625 C18.8958,7.70833 19.3958,7.91927 19.6875,8.19531 C19.9792,8.47135 20.125,8.85417 20.125,9.34375 C20.125,9.89583 19.9063,10.3359 19.4688,10.6641 C19.0313,10.9922 18.4219,11.1563 17.6406,11.1563 C17.3177,11.1563 16.9818,11.125 16.6328,11.0625 C16.2839,11 15.9167,10.9063 15.5313,10.7813 L15.5313,9.76563 C15.8958,9.95313 16.2552,10.0938 16.6094,10.1875 C16.9635,10.2813 17.3177,10.3281 17.6719,10.3281 C18.1302,10.3281 18.4844,10.2474 18.7344,10.0859 C18.9844,9.92448 19.1094,9.70313 19.1094,9.42188 C19.1094,9.15104 19.0208,8.94271 18.8438,8.79688 C18.6667,8.65104 18.2708,8.51563 17.6563,8.39063 L17.3125,8.29688 C16.6979,8.17188 16.2552,7.97656 15.9844,7.71094 C15.7135,7.44531 15.5781,7.07813 15.5781,6.60938 C15.5781,6.04688 15.7786,5.61198 16.1797,5.30469 C16.5807,4.9974 17.151,4.84375 17.8906,4.84375 C18.2552,4.84375 18.599,4.86979 18.9219,4.92188 C19.2448,4.97396 19.5417,5.05208 19.8125,5.15625 M24.0313,5.67188 C23.5,5.67188 23.0807,5.88021 22.7734,6.29688 C22.4661,6.71354 22.3125,7.28125 22.3125,8 C22.3125,8.71875 22.4635,9.28385 22.7656,9.69531 C23.0677,10.1068 23.4896,10.3125 24.0313,10.3125 C24.5521,10.3125 24.9661,10.1068 25.2734,9.69531 C25.5807,9.28385 25.7344,8.71875 25.7344,8 C25.7344,7.28125 25.5807,6.71354 25.2734,6.29688 C24.9661,5.88021 24.5521,5.67188 24.0313,5.67188 M24.0313,4.84375 C24.8854,4.84375 25.5573,5.1224 26.0469,5.67969 C26.5365,6.23698 26.7813,7.01042 26.7813,8 C26.7813,8.97917 26.5365,9.75 26.0469,10.3125 C25.5573,10.875 24.8854,11.1563 24.0313,11.1563 C23.1667,11.1563 22.4896,10.875 22,10.3125 C21.5104,9.75 21.2656,8.97917 21.2656,8 C21.2656,7.01042 21.5104,6.23698 22,5.67969 C22.4896,5.1224 23.1667,4.84375 24.0313,4.84375 M28.3125,8.625 L28.3125,4.98438 L29.2969,4.98438 L29.2969,8.59375 C29.2969,9.15625 29.4089,9.58073 29.6328,9.86719 C29.8568,10.1536 30.1875,10.2969 30.625,10.2969 C31.1667,10.2969 31.5911,10.1276 31.8984,9.78906 C32.2057,9.45052 32.3594,8.98438 32.3594,8.39063 L32.3594,4.98438 L33.3438,4.98438 L33.3438,11 L32.3594,11 L32.3594,10.0781 C32.1198,10.4427 31.8411,10.7135 31.5234,10.8906 C31.2057,11.0677 30.8385,11.1563 30.4219,11.1563 C29.7344,11.1563 29.2109,10.9401 28.8516,10.5078 C28.4922,10.0755 28.3125,9.44792 28.3125,8.625 M36.3594,3.28125 L36.3594,4.98438 L38.3906,4.98438 L38.3906,5.75 L36.3594,5.75 L36.3594,9.01563 C36.3594,9.50521 36.4271,9.82031 36.5625,9.96094 C36.6979,10.1016 36.9688,10.1719 37.375,10.1719 L38.3906,10.1719 L38.3906,11 L37.375,11 C36.6146,11 36.0885,10.8568 35.7969,10.5703 C35.5052,10.2839 35.3594,9.76563 35.3594,9.01563 L35.3594,5.75 L34.6406,5.75 L34.6406,4.98438 L35.3594,4.98438 L35.3594,3.28125 L36.3594,3.28125"/>
</g>

<g fill="none" stroke="#000000" stroke-opacity="1" stroke-width="1" stroke-linecap="square" stroke-linejoin="bevel" transform="matrix(2,0,0,2,1625.84,109)"
font-family="sans" font-size="11" font-weight="100" font-style="normal" 
>
</g>

<g fill="none" stroke="#000000" stroke-opacity="1" stroke-width="1" stroke-linecap="square" stroke-linejoin="bevel" transform="matrix(2,0,0,2,1625.84,109)"
font-family="Ubuntu" font-size="11" font-weight="400" font-style="normal" 
>
</g>

<g fill="none" stroke="#000000" stroke-opacity="1" stroke-width="1" stroke-linecap="square" stroke-linejoin="bevel" transform="matrix(2,0,0,2,-0.0016,313)"
font-family="Ubuntu" font-size="11" font-weight="400" font-style="normal" 
>
</g>

<g fill="none" stroke="#000000" stroke-opacity="1" stroke-width="1" stroke-linecap="square" stroke-linejoin="bevel" transform="matrix(2,0,0,2,-0.0016,313)"
font-family="Ubuntu" font-size="11" font-weight="400" font-style="normal" 
>
</g>

<g fill="none" stroke="#000000" stroke-opacity="1" stroke-width="1" stroke-linecap="square" stroke-linejoin="bevel" transform="matrix(2,0,0,2,-0.0016,313)"
font-family="Ubuntu" font-size="11" font-weight="400" font-style="normal" 
>
</g>

<g fill="none" stroke="#000000" stroke-opacity="1" stroke-width="1" stroke-linecap="square" stroke-linejoin="round" transform="matrix(2,0,0,2,-0.0016,313)"
font-family="Ubuntu" font-size="11" font-weight="400" font-style="normal" 
>
<ellipse cx="87.092" cy="-133" rx="86.5912" ry="17.5"/>
</g>

<g fill="none" stroke="#000000" stroke-opacity="1" stroke-width="1" stroke-linecap="square" stroke-linejoin="bevel" transform="matrix(2,0,0,2,-0.0016,313)"
font-family="Ubuntu" font-size="11" font-weight="400" font-style="normal" 
>
</g>

<g fill="none" stroke="#000000" stroke-opacity="1" stroke-width="1" stroke-linecap="square" stroke-linejoin="bevel" transform="matrix(2,0,0,2,56.573,33)"
font-family="Ubuntu" font-size="11" font-weight="400" font-style="normal" 
>
</g>

<g fill="none" stroke="#000000" stroke-opacity="1" stroke-width="1" stroke-linecap="square" stroke-linejoin="bevel" transform="matrix(2,0,0,2,56.573,33)"
font-family="sans" font-size="11" font-weight="100" font-style="normal" 
>
</g>

<g fill="#000000" fill-opacity="1" stroke="#000000" stroke-opacity="1" stroke-width="1" stroke-linecap="square" stroke-linejoin="round" transform="matrix(2,0,0,2,56.573,33)"
font-family="sans" font-size="11" font-weight="100" font-style="normal" 
>
<path vector-effect="none" fill-rule="nonzero" d="M2.79688,2.98438 L3.70313,2.98438 L0.90625,12.0156 L0,12.0156 L2.79688,2.98438 M4.73438,4.98438 L5.73438,4.98438 L5.73438,11.1094 C5.73438,11.8698 5.58854,12.4219 5.29688,12.7656 C5.00521,13.1094 4.53125,13.2813 3.875,13.2813 L3.5,13.2813 L3.5,12.4531 L3.76563,12.4531 C4.14063,12.4531 4.39583,12.3646 4.53125,12.1875 C4.66667,12.0104 4.73438,11.651 4.73438,11.1094 L4.73438,4.98438 M4.73438,2.64063 L5.73438,2.64063 L5.73438,3.89063 L4.73438,3.89063 L4.73438,2.64063 M10.125,5.67188 C9.59375,5.67188 9.17448,5.88021 8.86719,6.29688 C8.5599,6.71354 8.40625,7.28125 8.40625,8 C8.40625,8.71875 8.55729,9.28385 8.85938,9.69531 C9.16146,10.1068 9.58333,10.3125 10.125,10.3125 C10.6458,10.3125 11.0599,10.1068 11.3672,9.69531 C11.6745,9.28385 11.8281,8.71875 11.8281,8 C11.8281,7.28125 11.6745,6.71354 11.3672,6.29688 C11.0599,5.88021 10.6458,5.67188 10.125,5.67188 M10.125,4.84375 C10.9792,4.84375 11.651,5.1224 12.1406,5.67969 C12.6302,6.23698 12.875,7.01042 12.875,8 C12.875,8.97917 12.6302,9.75 12.1406,10.3125 C11.651,10.875 10.9792,11.1563 10.125,11.1563 C9.26042,11.1563 8.58333,10.875 8.09375,10.3125 C7.60417,9.75 7.35938,8.97917 7.35938,8 C7.35938,7.01042 7.60417,6.23698 8.09375,5.67969 C8.58333,5.1224 9.26042,4.84375 10.125,4.84375 M14.5,4.98438 L15.5,4.98438 L15.5,11 L14.5,11 L14.5,4.98438 M14.5,2.64063 L15.5,2.64063 L15.5,3.89063 L14.5,3.89063 L14.5,2.64063 M22.5469,7.375 L22.5469,11 L21.5625,11 L21.5625,7.40625 C21.5625,6.83333 21.4531,6.40625 21.2344,6.125 C21.0156,5.84375 20.6823,5.70313 20.2344,5.70313 C19.7031,5.70313 19.2839,5.8724 18.9766,6.21094 C18.6693,6.54948 18.5156,7.01042 18.5156,7.59375 L18.5156,11 L17.5156,11 L17.5156,4.98438 L18.5156,4.98438 L18.5156,5.92188 C18.7448,5.55729 19.0208,5.28646 19.3438,5.10938 C19.6667,4.93229 20.0365,4.84375 20.4531,4.84375 C21.1406,4.84375 21.6615,5.05729 22.0156,5.48438 C22.3698,5.91146 22.5469,6.54167 22.5469,7.375 M25.5,3.28125 L25.5,4.98438 L27.5313,4.98438 L27.5313,5.75 L25.5,5.75 L25.5,9.01563 C25.5,9.50521 25.5677,9.82031 25.7031,9.96094 C25.8385,10.1016 26.1094,10.1719 26.5156,10.1719 L27.5313,10.1719 L27.5313,11 L26.5156,11 C25.7552,11 25.2292,10.8568 24.9375,10.5703 C24.6458,10.2839 24.5,9.76563 24.5,9.01563 L24.5,5.75 L23.7813,5.75 L23.7813,4.98438 L24.5,4.98438 L24.5,3.28125 L25.5,3.28125 M33.4063,12.8281 L33.4063,13.5938 L27.6875,13.5938 L27.6875,12.8281 L33.4063,12.8281 M38.1719,5.15625 L38.1719,6.09375 C37.8906,5.94792 37.599,5.84115 37.2969,5.77344 C36.9948,5.70573 36.6823,5.67188 36.3594,5.67188 C35.8698,5.67188 35.5026,5.7474 35.2578,5.89844 C35.013,6.04948 34.8906,6.27083 34.8906,6.5625 C34.8906,6.79167 34.9792,6.97135 35.1563,7.10156 C35.3333,7.23177 35.6875,7.35938 36.2188,7.48438 L36.5469,7.5625 C37.2552,7.70833 37.7552,7.91927 38.0469,8.19531 C38.3385,8.47135 38.4844,8.85417 38.4844,9.34375 C38.4844,9.89583 38.2656,10.3359 37.8281,10.6641 C37.3906,10.9922 36.7813,11.1563 36,11.1563 C35.6771,11.1563 35.3411,11.125 34.9922,11.0625 C34.6432,11 34.276,10.9063 33.8906,10.7813 L33.8906,9.76563 C34.2552,9.95313 34.6146,10.0938 34.9688,10.1875 C35.3229,10.2813 35.6771,10.3281 36.0313,10.3281 C36.4896,10.3281 36.8438,10.2474 37.0938,10.0859 C37.3438,9.92448 37.4688,9.70313 37.4688,9.42188 C37.4688,9.15104 37.3802,8.94271 37.2031,8.79688 C37.026,8.65104 36.6302,8.51563 36.0156,8.39063 L35.6719,8.29688 C35.0573,8.17188 34.6146,7.97656 34.3438,7.71094 C34.0729,7.44531 33.9375,7.07813 33.9375,6.60938 C33.9375,6.04688 34.138,5.61198 34.5391,5.30469 C34.9401,4.9974 35.5104,4.84375 36.25,4.84375 C36.6146,4.84375 36.9583,4.86979 37.2813,4.92188 C37.6042,4.97396 37.901,5.05208 38.1719,5.15625 M41.0313,3.28125 L41.0313,4.98438 L43.0625,4.98438 L43.0625,5.75 L41.0313,5.75 L41.0313,9.01563 C41.0313,9.50521 41.099,9.82031 41.2344,9.96094 C41.3698,10.1016 41.6406,10.1719 42.0469,10.1719 L43.0625,10.1719 L43.0625,11 L42.0469,11 C41.2865,11 40.7604,10.8568 40.4688,10.5703 C40.1771,10.2839 40.0313,9.76563 40.0313,9.01563 L40.0313,5.75 L39.3125,5.75 L39.3125,4.98438 L40.0313,4.98438 L40.0313,3.28125 L41.0313,3.28125 M47.0938,7.96875 C46.3021,7.96875 45.7526,8.0625 45.4453,8.25 C45.138,8.4375 44.9844,8.75 44.9844,9.1875 C44.9844,9.53125 45.099,9.80729 45.3281,10.0156 C45.5573,10.224 45.8698,10.3281 46.2656,10.3281 C46.8177,10.3281 47.2578,10.1328 47.5859,9.74219 C47.9141,9.35156 48.0781,8.83854 48.0781,8.20313 L48.0781,7.96875 L47.0938,7.96875 M49.0625,7.5625 L49.0625,11 L48.0781,11 L48.0781,10.0938 C47.8594,10.4583 47.5807,10.7266 47.2422,10.8984 C46.9036,11.0703 46.4896,11.1563 46,11.1563 C45.3854,11.1563 44.8958,10.9844 44.5313,10.6406 C44.1667,10.2969 43.9844,9.83333 43.9844,9.25 C43.9844,8.57292 44.2109,8.0625 44.6641,7.71875 C45.1172,7.375 45.7969,7.20313 46.7031,7.20313 L48.0781,7.20313 L48.0781,7.10938 C48.0781,6.65104 47.9297,6.29688 47.6328,6.04688 C47.3359,5.79688 46.9167,5.67188 46.375,5.67188 C46.0313,5.67188 45.6953,5.71354 45.3672,5.79688 C45.0391,5.88021 44.724,6.00521 44.4219,6.17188 L44.4219,5.26563 C44.7865,5.11979 45.1406,5.01302 45.4844,4.94531 C45.8281,4.8776 46.1563,4.84375 46.4688,4.84375 C47.3438,4.84375 47.9948,5.06771 48.4219,5.51563 C48.849,5.96354 49.0625,6.64583 49.0625,7.5625 M52.0781,3.28125 L52.0781,4.98438 L54.1094,4.98438 L54.1094,5.75 L52.0781,5.75 L52.0781,9.01563 C52.0781,9.50521 52.1458,9.82031 52.2813,9.96094 C52.4167,10.1016 52.6875,10.1719 53.0938,10.1719 L54.1094,10.1719 L54.1094,11 L53.0938,11 C52.3333,11 51.8073,10.8568 51.5156,10.5703 C51.224,10.2839 51.0781,9.76563 51.0781,9.01563 L51.0781,5.75 L50.3594,5.75 L50.3594,4.98438 L51.0781,4.98438 L51.0781,3.28125 L52.0781,3.28125 M60.5625,7.75 L60.5625,8.23438 L56.0156,8.23438 C56.0573,8.91146 56.2604,9.42708 56.625,9.78125 C56.9896,10.1354 57.5,10.3125 58.1563,10.3125 C58.5417,10.3125 58.9115,10.2656 59.2656,10.1719 C59.6198,10.0781 59.974,9.94271 60.3281,9.76563 L60.3281,10.6875 C59.974,10.8438 59.6094,10.9609 59.2344,11.0391 C58.8594,11.1172 58.4844,11.1563 58.1094,11.1563 C57.1406,11.1563 56.3776,10.8776 55.8203,10.3203 C55.263,9.76302 54.9844,9.00521 54.9844,8.04688 C54.9844,7.06771 55.25,6.28906 55.7813,5.71094 C56.3125,5.13281 57.0313,4.84375 57.9375,4.84375 C58.7396,4.84375 59.3776,5.10417 59.8516,5.625 C60.3255,6.14583 60.5625,6.85417 60.5625,7.75 M59.5625,7.45313 C59.5625,6.91146 59.4141,6.47917 59.1172,6.15625 C58.8203,5.83333 58.4271,5.67188 57.9375,5.67188 C57.3854,5.67188 56.9453,5.82813 56.6172,6.14063 C56.2891,6.45313 56.099,6.89063 56.0469,7.45313 L59.5625,7.45313 M66.75,12.8281 L66.75,13.5938 L61.0313,13.5938 L61.0313,12.8281 L66.75,12.8281 M68.6406,10.0938 L68.6406,13.2813 L67.6406,13.2813 L67.6406,4.98438 L68.6406,4.98438 L68.6406,5.89063 C68.8385,5.53646 69.0964,5.27344 69.4141,5.10156 C69.7318,4.92969 70.1146,4.84375 70.5625,4.84375 C71.2917,4.84375 71.8828,5.13281 72.3359,5.71094 C72.7891,6.28906 73.0156,7.05208 73.0156,8 C73.0156,8.94792 72.7891,9.71094 72.3359,10.2891 C71.8828,10.8672 71.2917,11.1563 70.5625,11.1563 C70.1146,11.1563 69.7318,11.0703 69.4141,10.8984 C69.0964,10.7266 68.8385,10.4583 68.6406,10.0938 M72,8 C72,7.27083 71.849,6.70052 71.5469,6.28906 C71.2448,5.8776 70.8333,5.67188 70.3125,5.67188 C69.7917,5.67188 69.3828,5.8776 69.0859,6.28906 C68.7891,6.70052 68.6406,7.27083 68.6406,8 C68.6406,8.72917 68.7891,9.29948 69.0859,9.71094 C69.3828,10.1224 69.7917,10.3281 70.3125,10.3281 C70.8333,10.3281 71.2448,10.1224 71.5469,9.71094 C71.849,9.29948 72,8.72917 72,8 M74.5469,8.625 L74.5469,4.98438 L75.5313,4.98438 L75.5313,8.59375 C75.5313,9.15625 75.6432,9.58073 75.8672,9.86719 C76.0911,10.1536 76.4219,10.2969 76.8594,10.2969 C77.401,10.2969 77.8255,10.1276 78.1328,9.78906 C78.4401,9.45052 78.5938,8.98438 78.5938,8.39063 L78.5938,4.98438 L79.5781,4.98438 L79.5781,11 L78.5938,11 L78.5938,10.0781 C78.3542,10.4427 78.0755,10.7135 77.7578,10.8906 C77.4401,11.0677 77.0729,11.1563 76.6563,11.1563 C75.9688,11.1563 75.4453,10.9401 75.0859,10.5078 C74.7266,10.0755 74.5469,9.44792 74.5469,8.625 M85.9375,8 C85.9375,7.27083 85.7865,6.70052 85.4844,6.28906 C85.1823,5.8776 84.7708,5.67188 84.25,5.67188 C83.7292,5.67188 83.3203,5.8776 83.0234,6.28906 C82.7266,6.70052 82.5781,7.27083 82.5781,8 C82.5781,8.72917 82.7266,9.29948 83.0234,9.71094 C83.3203,10.1224 83.7292,10.3281 84.25,10.3281 C84.7708,10.3281 85.1823,10.1224 85.4844,9.71094 C85.7865,9.29948 85.9375,8.72917 85.9375,8 M82.5781,5.89063 C82.776,5.53646 83.0339,5.27344 83.3516,5.10156 C83.6693,4.92969 84.0521,4.84375 84.5,4.84375 C85.2292,4.84375 85.8203,5.13281 86.2734,5.71094 C86.7266,6.28906 86.9531,7.05208 86.9531,8 C86.9531,8.94792 86.7266,9.71094 86.2734,10.2891 C85.8203,10.8672 85.2292,11.1563 84.5,11.1563 C84.0521,11.1563 83.6693,11.0703 83.3516,10.8984 C83.0339,10.7266 82.776,10.4583 82.5781,10.0938 L82.5781,11 L81.5781,11 L81.5781,2.64063 L82.5781,2.64063 L82.5781,5.89063 M88.5781,2.64063 L89.5781,2.64063 L89.5781,11 L88.5781,11 L88.5781,2.64063 M91.625,4.98438 L92.625,4.98438 L92.625,11 L91.625,11 L91.625,4.98438 M91.625,2.64063 L92.625,2.64063 L92.625,3.89063 L91.625,3.89063 L91.625,2.64063 M98.5156,5.15625 L98.5156,6.09375 C98.2344,5.94792 97.9427,5.84115 97.6406,5.77344 C97.3385,5.70573 97.026,5.67188 96.7031,5.67188 C96.2135,5.67188 95.8464,5.7474 95.6016,5.89844 C95.3568,6.04948 95.2344,6.27083 95.2344,6.5625 C95.2344,6.79167 95.3229,6.97135 95.5,7.10156 C95.6771,7.23177 96.0313,7.35938 96.5625,7.48438 L96.8906,7.5625 C97.599,7.70833 98.099,7.91927 98.3906,8.19531 C98.6823,8.47135 98.8281,8.85417 98.8281,9.34375 C98.8281,9.89583 98.6094,10.3359 98.1719,10.6641 C97.7344,10.9922 97.125,11.1563 96.3438,11.1563 C96.0208,11.1563 95.6849,11.125 95.3359,11.0625 C94.987,11 94.6198,10.9063 94.2344,10.7813 L94.2344,9.76563 C94.599,9.95313 94.9583,10.0938 95.3125,10.1875 C95.6667,10.2813 96.0208,10.3281 96.375,10.3281 C96.8333,10.3281 97.1875,10.2474 97.4375,10.0859 C97.6875,9.92448 97.8125,9.70313 97.8125,9.42188 C97.8125,9.15104 97.724,8.94271 97.5469,8.79688 C97.3698,8.65104 96.974,8.51563 96.3594,8.39063 L96.0156,8.29688 C95.401,8.17188 94.9583,7.97656 94.6875,7.71094 C94.4167,7.44531 94.2813,7.07813 94.2813,6.60938 C94.2813,6.04688 94.4818,5.61198 94.8828,5.30469 C95.2839,4.9974 95.8542,4.84375 96.5938,4.84375 C96.9583,4.84375 97.3021,4.86979 97.625,4.92188 C97.9479,4.97396 98.2448,5.05208 98.5156,5.15625 M105.391,7.375 L105.391,11 L104.406,11 L104.406,7.40625 C104.406,6.83333 104.297,6.40625 104.078,6.125 C103.859,5.84375 103.526,5.70313 103.078,5.70313 C102.547,5.70313 102.128,5.8724 101.82,6.21094 C101.513,6.54948 101.359,7.01042 101.359,7.59375 L101.359,11 L100.359,11 L100.359,2.64063 L101.359,2.64063 L101.359,5.92188 C101.589,5.55729 101.865,5.28646 102.188,5.10938 C102.51,4.93229 102.88,4.84375 103.297,4.84375 C103.984,4.84375 104.505,5.05729 104.859,5.48438 C105.214,5.91146 105.391,6.54167 105.391,7.375 M112.516,7.75 L112.516,8.23438 L107.969,8.23438 C108.01,8.91146 108.214,9.42708 108.578,9.78125 C108.943,10.1354 109.453,10.3125 110.109,10.3125 C110.495,10.3125 110.865,10.2656 111.219,10.1719 C111.573,10.0781 111.927,9.94271 112.281,9.76563 L112.281,10.6875 C111.927,10.8438 111.563,10.9609 111.188,11.0391 C110.813,11.1172 110.438,11.1563 110.063,11.1563 C109.094,11.1563 108.331,10.8776 107.773,10.3203 C107.216,9.76302 106.938,9.00521 106.938,8.04688 C106.938,7.06771 107.203,6.28906 107.734,5.71094 C108.266,5.13281 108.984,4.84375 109.891,4.84375 C110.693,4.84375 111.331,5.10417 111.805,5.625 C112.279,6.14583 112.516,6.85417 112.516,7.75 M111.516,7.45313 C111.516,6.91146 111.367,6.47917 111.07,6.15625 C110.773,5.83333 110.38,5.67188 109.891,5.67188 C109.339,5.67188 108.898,5.82813 108.57,6.14063 C108.242,6.45313 108.052,6.89063 108,7.45313 L111.516,7.45313 M117.609,5.90625 C117.505,5.84375 117.388,5.79688 117.258,5.76563 C117.128,5.73438 116.984,5.71875 116.828,5.71875 C116.266,5.71875 115.836,5.90104 115.539,6.26563 C115.242,6.63021 115.094,7.15104 115.094,7.82813 L115.094,11 L114.094,11 L114.094,4.98438 L115.094,4.98438 L115.094,5.92188 C115.292,5.55729 115.557,5.28646 115.891,5.10938 C116.224,4.93229 116.63,4.84375 117.109,4.84375 C117.182,4.84375 117.258,4.84635 117.336,4.85156 C117.414,4.85677 117.505,4.86979 117.609,4.89063 L117.609,5.90625"/>
</g>

<g fill="none" stroke="#000000" stroke-opacity="1" stroke-width="1" stroke-linecap="square" stroke-linejoin="bevel" transform="matrix(2,0,0,2,56.573,33)"
font-family="sans" font-size="11" font-weight="100" font-style="normal" 
>
</g>

<g fill="none" stroke="#000000" stroke-opacity="1" stroke-width="1" stroke-linecap="square" stroke-linejoin="bevel" transform="matrix(2,0,0,2,56.573,33)"
font-family="Ubuntu" font-size="11" font-weight="400" font-style="normal" 
>
</g>

<g fill="none" stroke="#000000" stroke-opacity="1" stroke-width="1" stroke-linecap="square" stroke-linejoin="bevel" transform="matrix(2,0,0,2,-0.0016,313)"
font-family="Ubuntu" font-size="11" font-weight="400" font-style="normal" 
>
</g>

<g fill="none" stroke="#000000" stroke-opacity="1" stroke-width="1" stroke-linecap="square" stroke-linejoin="bevel" transform="matrix(2,0,0,2,-0.0016,313)"
font-family="Ubuntu" font-size="11" font-weight="400" font-style="normal" 
>
</g>

<g fill="none" stroke="#000000" stroke-opacity="1" stroke-width="1" stroke-linecap="square" stroke-linejoin="bevel" transform="matrix(2,0,0,2,-0.0016,313)"
font-family="Ubuntu" font-size="11" font-weight="400" font-style="normal" 
>
</g>

<g fill="none" stroke="#000000" stroke-opacity="1" stroke-width="1" stroke-linecap="square" stroke-linejoin="round" transform="matrix(2,0,0,2,-0.0016,313)"
font-family="Ubuntu" font-size="11" font-weight="400" font-style="normal" 
>
<ellipse cx="620.77" cy="-72" rx="26.5" ry="17.5"/>
</g>

<g fill="none" stroke="#000000" stroke-opacity="1" stroke-width="1" stroke-linecap="square" stroke-linejoin="bevel" transform="matrix(2,0,0,2,-0.0016,313)"
font-family="Ubuntu" font-size="11" font-weight="400" font-style="normal" 
>
</g>

<g fill="none" stroke="#000000" stroke-opacity="1" stroke-width="1" stroke-linecap="square" stroke-linejoin="bevel" transform="matrix(2,0,0,2,1218.01,155)"
font-family="Ubuntu" font-size="11" font-weight="400" font-style="normal" 
>
</g>

<g fill="none" stroke="#000000" stroke-opacity="1" stroke-width="1" stroke-linecap="square" stroke-linejoin="bevel" transform="matrix(2,0,0,2,1218.01,155)"
font-family="sans" font-size="11" font-weight="100" font-style="normal" 
>
</g>

<g fill="#000000" fill-opacity="1" stroke="#000000" stroke-opacity="1" stroke-width="1" stroke-linecap="square" stroke-linejoin="round" transform="matrix(2,0,0,2,1218.01,155)"
font-family="sans" font-size="11" font-weight="100" font-style="normal" 
>
<path vector-effect="none" fill-rule="nonzero" d="M2.79688,2.98438 L3.70313,2.98438 L0.90625,12.0156 L0,12.0156 L2.79688,2.98438 M8.21875,5.90625 C8.11458,5.84375 7.9974,5.79688 7.86719,5.76563 C7.73698,5.73438 7.59375,5.71875 7.4375,5.71875 C6.875,5.71875 6.44531,5.90104 6.14844,6.26563 C5.85156,6.63021 5.70313,7.15104 5.70313,7.82813 L5.70313,11 L4.70313,11 L4.70313,4.98438 L5.70313,4.98438 L5.70313,5.92188 C5.90104,5.55729 6.16667,5.28646 6.5,5.10938 C6.83333,4.93229 7.23958,4.84375 7.71875,4.84375 C7.79167,4.84375 7.86719,4.84635 7.94531,4.85156 C8.02344,4.85677 8.11458,4.86979 8.21875,4.89063 L8.21875,5.90625 M8.54688,4.98438 L9.59375,4.98438 L11.4688,10.0313 L13.3594,4.98438 L14.4063,4.98438 L12.1406,11 L10.7969,11 L8.54688,4.98438 M15.75,4.98438 L16.75,4.98438 L16.75,11 L15.75,11 L15.75,4.98438 M15.75,2.64063 L16.75,2.64063 L16.75,3.89063 L15.75,3.89063 L15.75,2.64063 M18.375,4.98438 L23.0625,4.98438 L23.0625,5.89063 L19.3438,10.2031 L23.0625,10.2031 L23.0625,11 L18.2344,11 L18.2344,10.0938 L21.9531,5.78125 L18.375,5.78125 L18.375,4.98438"/>
</g>

<g fill="none" stroke="#000000" stroke-opacity="1" stroke-width="1" stroke-linecap="square" stroke-linejoin="bevel" transform="matrix(2,0,0,2,1218.01,155)"
font-family="sans" font-size="11" font-weight="100" font-style="normal" 
>
</g>

<g fill="none" stroke="#000000" stroke-opacity="1" stroke-width="1" stroke-linecap="square" stroke-linejoin="bevel" transform="matrix(2,0,0,2,1218.01,155)"
font-family="Ubuntu" font-size="11" font-weight="400" font-style="normal" 
>
</g>

<g fill="none" stroke="#000000" stroke-opacity="1" stroke-width="1" stroke-linecap="square" stroke-linejoin="bevel" transform="matrix(2,0,0,2,-0.0016,313)"
font-family="Ubuntu" font-size="11" font-weight="400" font-style="normal" 
>
</g>

<g fill="none" stroke="#000000" stroke-opacity="1" stroke-width="1" stroke-linecap="square" stroke-linejoin="bevel" transform="matrix(2,0,0,2,-0.0016,313)"
font-family="Ubuntu" font-size="11" font-weight="400" font-style="normal" 
>
</g>

<g fill="none" stroke="#000000" stroke-opacity="1" stroke-width="1" stroke-linecap="square" stroke-linejoin="bevel" transform="matrix(2,0,0,2,-0.0016,313)"
font-family="Ubuntu" font-size="11" font-weight="400" font-style="normal" 
>
</g>

<g fill="none" stroke="#000000" stroke-opacity="1" stroke-width="1" stroke-linecap="square" stroke-linejoin="round" transform="matrix(2,0,0,2,-0.0016,313)"
font-family="Ubuntu" font-size="11" font-weight="400" font-style="normal" 
>
<rect x="730.16" y="-112.5" width="53" height="35"/>
</g>

<g fill="none" stroke="#000000" stroke-opacity="1" stroke-width="1" stroke-linecap="square" stroke-linejoin="bevel" transform="matrix(2,0,0,2,-0.0016,313)"
font-family="Ubuntu" font-size="11" font-weight="400" font-style="normal" 
>
</g>

<g fill="none" stroke="#000000" stroke-opacity="1" stroke-width="1" stroke-linecap="square" stroke-linejoin="bevel" transform="matrix(2,0,0,2,1473.66,109)"
font-family="Ubuntu" font-size="11" font-weight="400" font-style="normal" 
>
</g>

<g fill="none" stroke="#000000" stroke-opacity="1" stroke-width="1" stroke-linecap="square" stroke-linejoin="bevel" transform="matrix(2,0,0,2,1473.66,109)"
font-family="sans" font-size="11" font-weight="100" font-style="normal" 
>
</g>

<g fill="#000000" fill-opacity="1" stroke="#000000" stroke-opacity="1" stroke-width="1" stroke-linecap="square" stroke-linejoin="round" transform="matrix(2,0,0,2,1473.66,109)"
font-family="sans" font-size="11" font-weight="100" font-style="normal" 
>
<path vector-effect="none" fill-rule="nonzero" d="M2.79688,2.98438 L3.70313,2.98438 L0.90625,12.0156 L0,12.0156 L2.79688,2.98438 M8.21875,5.90625 C8.11458,5.84375 7.9974,5.79688 7.86719,5.76563 C7.73698,5.73438 7.59375,5.71875 7.4375,5.71875 C6.875,5.71875 6.44531,5.90104 6.14844,6.26563 C5.85156,6.63021 5.70313,7.15104 5.70313,7.82813 L5.70313,11 L4.70313,11 L4.70313,4.98438 L5.70313,4.98438 L5.70313,5.92188 C5.90104,5.55729 6.16667,5.28646 6.5,5.10938 C6.83333,4.93229 7.23958,4.84375 7.71875,4.84375 C7.79167,4.84375 7.86719,4.84635 7.94531,4.85156 C8.02344,4.85677 8.11458,4.86979 8.21875,4.89063 L8.21875,5.90625 M11.5938,5.67188 C11.0625,5.67188 10.6432,5.88021 10.3359,6.29688 C10.0286,6.71354 9.875,7.28125 9.875,8 C9.875,8.71875 10.026,9.28385 10.3281,9.69531 C10.6302,10.1068 11.0521,10.3125 11.5938,10.3125 C12.1146,10.3125 12.5286,10.1068 12.8359,9.69531 C13.1432,9.28385 13.2969,8.71875 13.2969,8 C13.2969,7.28125 13.1432,6.71354 12.8359,6.29688 C12.5286,5.88021 12.1146,5.67188 11.5938,5.67188 M11.5938,4.84375 C12.4479,4.84375 13.1198,5.1224 13.6094,5.67969 C14.099,6.23698 14.3438,7.01042 14.3438,8 C14.3438,8.97917 14.099,9.75 13.6094,10.3125 C13.1198,10.875 12.4479,11.1563 11.5938,11.1563 C10.7292,11.1563 10.0521,10.875 9.5625,10.3125 C9.07292,9.75 8.82813,8.97917 8.82813,8 C8.82813,7.01042 9.07292,6.23698 9.5625,5.67969 C10.0521,5.1224 10.7292,4.84375 11.5938,4.84375 M19.8125,5.15625 L19.8125,6.09375 C19.5313,5.94792 19.2396,5.84115 18.9375,5.77344 C18.6354,5.70573 18.3229,5.67188 18,5.67188 C17.5104,5.67188 17.1432,5.7474 16.8984,5.89844 C16.6536,6.04948 16.5313,6.27083 16.5313,6.5625 C16.5313,6.79167 16.6198,6.97135 16.7969,7.10156 C16.974,7.23177 17.3281,7.35938 17.8594,7.48438 L18.1875,7.5625 C18.8958,7.70833 19.3958,7.91927 19.6875,8.19531 C19.9792,8.47135 20.125,8.85417 20.125,9.34375 C20.125,9.89583 19.9063,10.3359 19.4688,10.6641 C19.0313,10.9922 18.4219,11.1563 17.6406,11.1563 C17.3177,11.1563 16.9818,11.125 16.6328,11.0625 C16.2839,11 15.9167,10.9063 15.5313,10.7813 L15.5313,9.76563 C15.8958,9.95313 16.2552,10.0938 16.6094,10.1875 C16.9635,10.2813 17.3177,10.3281 17.6719,10.3281 C18.1302,10.3281 18.4844,10.2474 18.7344,10.0859 C18.9844,9.92448 19.1094,9.70313 19.1094,9.42188 C19.1094,9.15104 19.0208,8.94271 18.8438,8.79688 C18.6667,8.65104 18.2708,8.51563 17.6563,8.39063 L17.3125,8.29688 C16.6979,8.17188 16.2552,7.97656 15.9844,7.71094 C15.7135,7.44531 15.5781,7.07813 15.5781,6.60938 C15.5781,6.04688 15.7786,5.61198 16.1797,5.30469 C16.5807,4.9974 17.151,4.84375 17.8906,4.84375 C18.2552,4.84375 18.599,4.86979 18.9219,4.92188 C19.2448,4.97396 19.5417,5.05208 19.8125,5.15625 M24.0313,5.67188 C23.5,5.67188 23.0807,5.88021 22.7734,6.29688 C22.4661,6.71354 22.3125,7.28125 22.3125,8 C22.3125,8.71875 22.4635,9.28385 22.7656,9.69531 C23.0677,10.1068 23.4896,10.3125 24.0313,10.3125 C24.5521,10.3125 24.9661,10.1068 25.2734,9.69531 C25.5807,9.28385 25.7344,8.71875 25.7344,8 C25.7344,7.28125 25.5807,6.71354 25.2734,6.29688 C24.9661,5.88021 24.5521,5.67188 24.0313,5.67188 M24.0313,4.84375 C24.8854,4.84375 25.5573,5.1224 26.0469,5.67969 C26.5365,6.23698 26.7813,7.01042 26.7813,8 C26.7813,8.97917 26.5365,9.75 26.0469,10.3125 C25.5573,10.875 24.8854,11.1563 24.0313,11.1563 C23.1667,11.1563 22.4896,10.875 22,10.3125 C21.5104,9.75 21.2656,8.97917 21.2656,8 C21.2656,7.01042 21.5104,6.23698 22,5.67969 C22.4896,5.1224 23.1667,4.84375 24.0313,4.84375 M28.3125,8.625 L28.3125,4.98438 L29.2969,4.98438 L29.2969,8.59375 C29.2969,9.15625 29.4089,9.58073 29.6328,9.86719 C29.8568,10.1536 30.1875,10.2969 30.625,10.2969 C31.1667,10.2969 31.5911,10.1276 31.8984,9.78906 C32.2057,9.45052 32.3594,8.98438 32.3594,8.39063 L32.3594,4.98438 L33.3438,4.98438 L33.3438,11 L32.3594,11 L32.3594,10.0781 C32.1198,10.4427 31.8411,10.7135 31.5234,10.8906 C31.2057,11.0677 30.8385,11.1563 30.4219,11.1563 C29.7344,11.1563 29.2109,10.9401 28.8516,10.5078 C28.4922,10.0755 28.3125,9.44792 28.3125,8.625 M36.3594,3.28125 L36.3594,4.98438 L38.3906,4.98438 L38.3906,5.75 L36.3594,5.75 L36.3594,9.01563 C36.3594,9.50521 36.4271,9.82031 36.5625,9.96094 C36.6979,10.1016 36.9688,10.1719 37.375,10.1719 L38.3906,10.1719 L38.3906,11 L37.375,11 C36.6146,11 36.0885,10.8568 35.7969,10.5703 C35.5052,10.2839 35.3594,9.76563 35.3594,9.01563 L35.3594,5.75 L34.6406,5.75 L34.6406,4.98438 L35.3594,4.98438 L35.3594,3.28125 L36.3594,3.28125"/>
</g>

<g fill="none" stroke="#000000" stroke-opacity="1" stroke-width="1" stroke-linecap="square" stroke-linejoin="bevel" transform="matrix(2,0,0,2,1473.66,109)"
font-family="sans" font-size="11" font-weight="100" font-style="normal" 
>
</g>

<g fill="none" stroke="#000000" stroke-opacity="1" stroke-width="1" stroke-linecap="square" stroke-linejoin="bevel" transform="matrix(2,0,0,2,1473.66,109)"
font-family="Ubuntu" font-size="11" font-weight="400" font-style="normal" 
>
</g>

<g fill="none" stroke="#000000" stroke-opacity="1" stroke-width="1" stroke-linecap="square" stroke-linejoin="bevel" transform="matrix(2,0,0,2,-0.0016,313)"
font-family="Ubuntu" font-size="11" font-weight="400" font-style="normal" 
>
</g>

<g fill="none" stroke="#000000" stroke-opacity="1" stroke-width="1" stroke-linecap="square" stroke-linejoin="bevel" transform="matrix(2,0,0,2,-0.0016,313)"
font-family="Ubuntu" font-size="11" font-weight="400" font-style="normal" 
>
</g>

<g fill="none" stroke="#000000" stroke-opacity="1" stroke-width="1" stroke-linecap="square" stroke-linejoin="bevel" transform="matrix(2,0,0,2,-0.0016,313)"
font-family="Ubuntu" font-size="11" font-weight="400" font-style="normal" 
>
</g>

<g fill="none" stroke="#000000" stroke-opacity="1" stroke-width="1" stroke-linecap="square" stroke-linejoin="round" transform="matrix(2,0,0,2,-0.0016,313)"
font-family="Ubuntu" font-size="11" font-weight="400" font-style="normal" 
>
<path vector-effect="none" fill-rule="evenodd" d="M270.24,-110 C271.52,-110 272.81,-110 274.1,-110 "/>
</g>

<g fill="none" stroke="#000000" stroke-opacity="1" stroke-width="1" stroke-linecap="square" stroke-linejoin="bevel" transform="matrix(2,0,0,2,-0.0016,313)"
font-family="Ubuntu" font-size="11" font-weight="400" font-style="normal" 
>
</g>

<g fill="none" stroke="#000000" stroke-opacity="1" stroke-width="1" stroke-linecap="square" stroke-linejoin="bevel" transform="matrix(2,0,0,2,-0.0016,313)"
font-family="Ubuntu" font-size="11" font-weight="400" font-style="normal" 
>
</g>

<g fill="#000000" fill-opacity="1" stroke="#000000" stroke-opacity="1" stroke-width="1" stroke-linecap="square" stroke-linejoin="round" transform="matrix(2,0,0,2,-0.0016,313)"
font-family="Ubuntu" font-size="11" font-weight="400" font-style="normal" 
>
<path vector-effect="none" fill-rule="evenodd" d="M274.1,-110 L274.1,-106.479 L284.16,-110 L274.1,-113.521 L274.1,-110"/>
</g>

<g fill="none" stroke="#000000" stroke-opacity="1" stroke-width="1" stroke-linecap="square" stroke-linejoin="bevel" transform="matrix(2,0,0,2,-0.0016,313)"
font-family="Ubuntu" font-size="11" font-weight="400" font-style="normal" 
>
</g>

<g fill="none" stroke="#000000" stroke-opacity="1" stroke-width="1" stroke-linecap="square" stroke-linejoin="bevel" transform="matrix(2,0,0,2,-0.0016,313)"
font-family="Ubuntu" font-size="11" font-weight="400" font-style="normal" 
>
</g>

<g fill="none" stroke="#000000" stroke-opacity="1" stroke-width="1" stroke-linecap="square" stroke-linejoin="bevel" transform="matrix(2,0,0,2,-0.0016,313)"
font-family="Ubuntu" font-size="11" font-weight="400" font-style="normal" 
>
</g>

<g fill="none" stroke="#000000" stroke-opacity="1" stroke-width="1" stroke-linecap="square" stroke-linejoin="bevel" transform="matrix(2,0,0,2,-0.0016,313)"
font-family="Ubuntu" font-size="11" font-weight="400" font-style="normal" 
>
</g>

<g fill="none" stroke="#000000" stroke-opacity="1" stroke-width="1" stroke-linecap="square" stroke-linejoin="round" transform="matrix(2,0,0,2,-0.0016,313)"
font-family="Ubuntu" font-size="11" font-weight="400" font-style="normal" 
>
<path vector-effect="none" fill-rule="evenodd" d="M646.97,-76.435 C667.57,-79.921 696.53,-84.822 719.51,-88.714 "/>
</g>

<g fill="none" stroke="#000000" stroke-opacity="1" stroke-width="1" stroke-linecap="square" stroke-linejoin="bevel" transform="matrix(2,0,0,2,-0.0016,313)"
font-family="Ubuntu" font-size="11" font-weight="400" font-style="normal" 
>
</g>

<g fill="none" stroke="#000000" stroke-opacity="1" stroke-width="1" stroke-linecap="square" stroke-linejoin="bevel" transform="matrix(2,0,0,2,-0.0016,313)"
font-family="Ubuntu" font-size="11" font-weight="400" font-style="normal" 
>
</g>

<g fill="#000000" fill-opacity="1" stroke="#000000" stroke-opacity="1" stroke-width="1" stroke-linecap="square" stroke-linejoin="round" transform="matrix(2,0,0,2,-0.0016,313)"
font-family="Ubuntu" font-size="11" font-weight="400" font-style="normal" 
>
<path vector-effect="none" fill-rule="evenodd" d="M719.51,-88.714 L720.108,-85.179 L729.61,-90.422 L718.912,-92.249 L719.51,-88.714"/>
</g>

<g fill="none" stroke="#000000" stroke-opacity="1" stroke-width="1" stroke-linecap="square" stroke-linejoin="bevel" transform="matrix(2,0,0,2,-0.0016,313)"
font-family="Ubuntu" font-size="11" font-weight="400" font-style="normal" 
>
</g>

<g fill="none" stroke="#000000" stroke-opacity="1" stroke-width="1" stroke-linecap="square" stroke-linejoin="bevel" transform="matrix(2,0,0,2,-0.0016,313)"
font-family="Ubuntu" font-size="11" font-weight="400" font-style="normal" 
>
</g>

<g fill="none" stroke="#000000" stroke-opacity="1" stroke-width="1" stroke-linecap="square" stroke-linejoin="bevel" transform="matrix(2,0,0,2,-0.0016,313)"
font-family="Ubuntu" font-size="11" font-weight="400" font-style="normal" 
>
</g>

<g fill="none" stroke="#000000" stroke-opacity="1" stroke-width="1" stroke-linecap="square" stroke-linejoin="bevel" transform="matrix(2,0,0,2,-0.0016,313)"
font-family="Ubuntu" font-size="11" font-weight="400" font-style="normal" 
>
</g>

<g fill="none" stroke="#000000" stroke-opacity="1" stroke-width="1" stroke-linecap="square" stroke-linejoin="round" transform="matrix(2,0,0,2,-0.0016,313)"
font-family="Ubuntu" font-size="11" font-weight="400" font-style="normal" 
>
<path vector-effect="none" fill-rule="evenodd" d="M382.94,-97.135 C389.72,-95.003 396.87,-92.756 403.98,-90.518 "/>
</g>

<g fill="none" stroke="#000000" stroke-opacity="1" stroke-width="1" stroke-linecap="square" stroke-linejoin="bevel" transform="matrix(2,0,0,2,-0.0016,313)"
font-family="Ubuntu" font-size="11" font-weight="400" font-style="normal" 
>
</g>

<g fill="none" stroke="#000000" stroke-opacity="1" stroke-width="1" stroke-linecap="square" stroke-linejoin="bevel" transform="matrix(2,0,0,2,-0.0016,313)"
font-family="Ubuntu" font-size="11" font-weight="400" font-style="normal" 
>
</g>

<g fill="#000000" fill-opacity="1" stroke="#000000" stroke-opacity="1" stroke-width="1" stroke-linecap="square" stroke-linejoin="round" transform="matrix(2,0,0,2,-0.0016,313)"
font-family="Ubuntu" font-size="11" font-weight="400" font-style="normal" 
>
<path vector-effect="none" fill-rule="evenodd" d="M403.98,-90.518 L402.918,-87.1405 L413.63,-87.483 L405.042,-93.8955 L403.98,-90.518"/>
</g>

<g fill="none" stroke="#000000" stroke-opacity="1" stroke-width="1" stroke-linecap="square" stroke-linejoin="bevel" transform="matrix(2,0,0,2,-0.0016,313)"
font-family="Ubuntu" font-size="11" font-weight="400" font-style="normal" 
>
</g>

<g fill="none" stroke="#000000" stroke-opacity="1" stroke-width="1" stroke-linecap="square" stroke-linejoin="bevel" transform="matrix(2,0,0,2,-0.0016,313)"
font-family="Ubuntu" font-size="11" font-weight="400" font-style="normal" 
>
</g>

<g fill="none" stroke="#000000" stroke-opacity="1" stroke-width="1" stroke-linecap="square" stroke-linejoin="bevel" transform="matrix(2,0,0,2,-0.0016,313)"
font-family="Ubuntu" font-size="11" font-weight="400" font-style="normal" 
>
</g>

<g fill="none" stroke="#000000" stroke-opacity="1" stroke-width="1" stroke-linecap="square" stroke-linejoin="bevel" transform="matrix(2,0,0,2,-0.0016,313)"
font-family="Ubuntu" font-size="11" font-weight="400" font-style="normal" 
>
</g>

<g fill="none" stroke="#000000" stroke-opacity="1" stroke-width="1" stroke-linecap="square" stroke-linejoin="round" transform="matrix(2,0,0,2,-0.0016,313)"
font-family="Ubuntu" font-size="11" font-weight="400" font-style="normal" 
>
<path vector-effect="none" fill-rule="evenodd" d="M511.97,-72 C534.89,-72 561.75,-72 583.05,-72 "/>
</g>

<g fill="none" stroke="#000000" stroke-opacity="1" stroke-width="1" stroke-linecap="square" stroke-linejoin="bevel" transform="matrix(2,0,0,2,-0.0016,313)"
font-family="Ubuntu" font-size="11" font-weight="400" font-style="normal" 
>
</g>

<g fill="none" stroke="#000000" stroke-opacity="1" stroke-width="1" stroke-linecap="square" stroke-linejoin="bevel" transform="matrix(2,0,0,2,-0.0016,313)"
font-family="Ubuntu" font-size="11" font-weight="400" font-style="normal" 
>
</g>

<g fill="#000000" fill-opacity="1" stroke="#000000" stroke-opacity="1" stroke-width="1" stroke-linecap="square" stroke-linejoin="round" transform="matrix(2,0,0,2,-0.0016,313)"
font-family="Ubuntu" font-size="11" font-weight="400" font-style="normal" 
>
<path vector-effect="none" fill-rule="evenodd" d="M583.05,-72 L583.05,-68.4055 L593.32,-72 L583.05,-75.5945 L583.05,-72"/>
</g>

<g fill="none" stroke="#000000" stroke-opacity="1" stroke-width="1" stroke-linecap="square" stroke-linejoin="bevel" transform="matrix(2,0,0,2,-0.0016,313)"
font-family="Ubuntu" font-size="11" font-weight="400" font-style="normal" 
>
</g>

<g fill="none" stroke="#000000" stroke-opacity="1" stroke-width="1" stroke-linecap="square" stroke-linejoin="bevel" transform="matrix(2,0,0,2,-0.0016,313)"
font-family="Ubuntu" font-size="11" font-weight="400" font-style="normal" 
>
</g>

<g fill="none" stroke="#000000" stroke-opacity="1" stroke-width="1" stroke-linecap="square" stroke-linejoin="bevel" transform="matrix(2,0,0,2,-0.0016,313)"
font-family="Ubuntu" font-size="11" font-weight="400" font-style="normal" 
>
</g>

<g fill="none" stroke="#000000" stroke-opacity="1" stroke-width="1" stroke-linecap="square" stroke-linejoin="bevel" transform="matrix(2,0,0,2,-0.0016,313)"
font-family="Ubuntu" font-size="11" font-weight="400" font-style="normal" 
>
</g>

<g fill="none" stroke="#000000" stroke-opacity="1" stroke-width="1" stroke-linecap="square" stroke-linejoin="round" transform="matrix(2,0,0,2,-0.0016,313)"
font-family="Ubuntu" font-size="11" font-weight="400" font-style="normal" 
>
<path vector-effect="none" fill-rule="evenodd" d="M400.01,-109.51 C473.51,-108.61 604.1,-106.08 715.66,-99 C716.76,-98.93 717.89,-98.853 719.02,-98.772 "/>
</g>

<g fill="none" stroke="#000000" stroke-opacity="1" stroke-width="1" stroke-linecap="square" stroke-linejoin="bevel" transform="matrix(2,0,0,2,-0.0016,313)"
font-family="Ubuntu" font-size="11" font-weight="400" font-style="normal" 
>
</g>

<g fill="none" stroke="#000000" stroke-opacity="1" stroke-width="1" stroke-linecap="square" stroke-linejoin="bevel" transform="matrix(2,0,0,2,-0.0016,313)"
font-family="Ubuntu" font-size="11" font-weight="400" font-style="normal" 
>
</g>

<g fill="#000000" fill-opacity="1" stroke="#000000" stroke-opacity="1" stroke-width="1" stroke-linecap="square" stroke-linejoin="round" transform="matrix(2,0,0,2,-0.0016,313)"
font-family="Ubuntu" font-size="11" font-weight="400" font-style="normal" 
>
<path vector-effect="none" fill-rule="evenodd" d="M719.02,-98.772 L718.724,-95.1635 L729.33,-97.926 L719.316,-102.381 L719.02,-98.772"/>
</g>

<g fill="none" stroke="#000000" stroke-opacity="1" stroke-width="1" stroke-linecap="square" stroke-linejoin="bevel" transform="matrix(2,0,0,2,-0.0016,313)"
font-family="Ubuntu" font-size="11" font-weight="400" font-style="normal" 
>
</g>

<g fill="none" stroke="#000000" stroke-opacity="1" stroke-width="1" stroke-linecap="square" stroke-linejoin="bevel" transform="matrix(2,0,0,2,-0.0016,313)"
font-family="Ubuntu" font-size="11" font-weight="400" font-style="normal" 
>
</g>

<g fill="none" stroke="#000000" stroke-opacity="1" stroke-width="1" stroke-linecap="square" stroke-linejoin="bevel" transform="matrix(2,0,0,2,-0.0016,313)"
font-family="Ubuntu" font-size="11" font-weight="400" font-style="normal" 
>
</g>

<g fill="none" stroke="#000000" stroke-opacity="1" stroke-width="1" stroke-linecap="square" stroke-linejoin="bevel" transform="matrix(2,0,0,2,-0.0016,313)"
font-family="Ubuntu" font-size="11" font-weight="400" font-style="normal" 
>
</g>

<g fill="none" stroke="#000000" stroke-opacity="1" stroke-width="1" stroke-linecap="square" stroke-linejoin="round" transform="matrix(2,0,0,2,-0.0016,313)"
font-family="Ubuntu" font-size="11" font-weight="400" font-style="normal" 
>
<path vector-effect="none" fill-rule="evenodd" d="M156.06,-121.84 C163.37,-120.65 170.72,-119.46 177.78,-118.32 "/>
</g>

<g fill="none" stroke="#000000" stroke-opacity="1" stroke-width="1" stroke-linecap="square" stroke-linejoin="bevel" transform="matrix(2,0,0,2,-0.0016,313)"
font-family="Ubuntu" font-size="11" font-weight="400" font-style="normal" 
>
</g>

<g fill="none" stroke="#000000" stroke-opacity="1" stroke-width="1" stroke-linecap="square" stroke-linejoin="bevel" transform="matrix(2,0,0,2,-0.0016,313)"
font-family="Ubuntu" font-size="11" font-weight="400" font-style="normal" 
>
</g>

<g fill="#000000" fill-opacity="1" stroke="#000000" stroke-opacity="1" stroke-width="1" stroke-linecap="square" stroke-linejoin="round" transform="matrix(2,0,0,2,-0.0016,313)"
font-family="Ubuntu" font-size="11" font-weight="400" font-style="normal" 
>
<path vector-effect="none" fill-rule="evenodd" d="M177.78,-118.32 L177.206,-114.778 L187.9,-116.68 L178.354,-121.862 L177.78,-118.32"/>
</g>

<g fill="none" stroke="#000000" stroke-opacity="1" stroke-width="1" stroke-linecap="square" stroke-linejoin="bevel" transform="matrix(2,0,0,2,-0.0016,313)"
font-family="Ubuntu" font-size="11" font-weight="400" font-style="normal" 
>
</g>

<g fill="none" stroke="#000000" stroke-opacity="1" stroke-width="1" stroke-linecap="square" stroke-linejoin="bevel" transform="matrix(2,0,0,2,-0.0016,313)"
font-family="Ubuntu" font-size="11" font-weight="400" font-style="normal" 
>
</g>

<g fill="none" stroke="#000000" stroke-opacity="1" stroke-width="1" stroke-linecap="square" stroke-linejoin="bevel" transform="matrix(2,0,0,2,-0.0016,313)"
font-family="Ubuntu" font-size="11" font-weight="400" font-style="normal" 
>
</g>

<g fill="none" stroke="#000000" stroke-opacity="1" stroke-width="1" stroke-linecap="square" stroke-linejoin="bevel" transform="matrix(2,0,0,2,-0.0016,313)"
font-family="Ubuntu" font-size="11" font-weight="400" font-style="normal" 
>
</g>

<g fill="none" stroke="#000000" stroke-opacity="1" stroke-width="1" stroke-linecap="square" stroke-linejoin="round" transform="matrix(2,0,0,2,-0.0016,313)"
font-family="Ubuntu" font-size="11" font-weight="400" font-style="normal" 
>
<path vector-effect="none" fill-rule="evenodd" d="M159.46,-143.02 C210.41,-149.22 280.26,-156 342.03,-156 C342.03,-156 342.03,-156 462.87,-156 C576.55,-156 607.85,-153.06 715.66,-117 C717.09,-116.52 718.54,-115.99 719.99,-115.43 "/>
</g>

<g fill="none" stroke="#000000" stroke-opacity="1" stroke-width="1" stroke-linecap="square" stroke-linejoin="bevel" transform="matrix(2,0,0,2,-0.0016,313)"
font-family="Ubuntu" font-size="11" font-weight="400" font-style="normal" 
>
</g>

<g fill="none" stroke="#000000" stroke-opacity="1" stroke-width="1" stroke-linecap="square" stroke-linejoin="bevel" transform="matrix(2,0,0,2,-0.0016,313)"
font-family="Ubuntu" font-size="11" font-weight="400" font-style="normal" 
>
</g>

<g fill="#000000" fill-opacity="1" stroke="#000000" stroke-opacity="1" stroke-width="1" stroke-linecap="square" stroke-linejoin="round" transform="matrix(2,0,0,2,-0.0016,313)"
font-family="Ubuntu" font-size="11" font-weight="400" font-style="normal" 
>
<path vector-effect="none" fill-rule="evenodd" d="M719.99,-115.43 L718.524,-112.122 L729.44,-111.24 L721.457,-118.738 L719.99,-115.43"/>
</g>

<g fill="none" stroke="#000000" stroke-opacity="1" stroke-width="1" stroke-linecap="square" stroke-linejoin="bevel" transform="matrix(2,0,0,2,-0.0016,313)"
font-family="Ubuntu" font-size="11" font-weight="400" font-style="normal" 
>
</g>

<g fill="none" stroke="#000000" stroke-opacity="1" stroke-width="1" stroke-linecap="square" stroke-linejoin="bevel" transform="matrix(2,0,0,2,-0.0016,313)"
font-family="Ubuntu" font-size="11" font-weight="400" font-style="normal" 
>
</g>

<g fill="none" stroke="#000000" stroke-opacity="1" stroke-width="1" stroke-linecap="square" stroke-linejoin="bevel" transform="matrix(2,0,0,2,-0.0016,313)"
font-family="Ubuntu" font-size="11" font-weight="400" font-style="normal" 
>
</g>

<g fill="none" stroke="#000000" stroke-opacity="1" stroke-width="1" stroke-linecap="square" stroke-linejoin="bevel" transform="matrix(2,0,0,2,-0.0016,313)"
font-family="Ubuntu" font-size="11" font-weight="400" font-style="normal" 
>
</g>

<g fill="none" stroke="#000000" stroke-opacity="1" stroke-width="1" stroke-linecap="square" stroke-linejoin="round" transform="matrix(2,0,0,2,-0.0016,313)"
font-family="Ubuntu" font-size="11" font-weight="400" font-style="normal" 
>
<path vector-effect="none" fill-rule="evenodd" d="M783.7,-95 C784.81,-95 785.94,-95 787.07,-95 "/>
</g>

<g fill="none" stroke="#000000" stroke-opacity="1" stroke-width="1" stroke-linecap="square" stroke-linejoin="bevel" transform="matrix(2,0,0,2,-0.0016,313)"
font-family="Ubuntu" font-size="11" font-weight="400" font-style="normal" 
>
</g>

<g fill="none" stroke="#000000" stroke-opacity="1" stroke-width="1" stroke-linecap="square" stroke-linejoin="bevel" transform="matrix(2,0,0,2,-0.0016,313)"
font-family="Ubuntu" font-size="11" font-weight="400" font-style="normal" 
>
</g>

<g fill="#000000" fill-opacity="1" stroke="#000000" stroke-opacity="1" stroke-width="1" stroke-linecap="square" stroke-linejoin="round" transform="matrix(2,0,0,2,-0.0016,313)"
font-family="Ubuntu" font-size="11" font-weight="400" font-style="normal" 
>
<path vector-effect="none" fill-rule="evenodd" d="M787.07,-95 L787.07,-91.381 L797.41,-95 L787.07,-98.619 L787.07,-95"/>
</g>

<g fill="none" stroke="#000000" stroke-opacity="1" stroke-width="1" stroke-linecap="square" stroke-linejoin="bevel" transform="matrix(2,0,0,2,-0.0016,313)"
font-family="Ubuntu" font-size="11" font-weight="400" font-style="normal" 
>
</g>

<g fill="none" stroke="#000000" stroke-opacity="1" stroke-width="1" stroke-linecap="square" stroke-linejoin="bevel" transform="matrix(2,0,0,2,-0.0016,313)"
font-family="Ubuntu" font-size="11" font-weight="400" font-style="normal" 
>
</g>

<g fill="none" stroke="#000000" stroke-opacity="1" stroke-width="1" stroke-linecap="square" stroke-linejoin="bevel" transform="matrix(2,0,0,2,-0.0016,313)"
font-family="Ubuntu" font-size="11" font-weight="400" font-style="normal" 
>
</g>

<g fill="none" stroke="#000000" stroke-opacity="1" stroke-width="1" stroke-linecap="square" stroke-linejoin="bevel" transform="matrix(2,0,0,2,-0.0016,313)"
font-family="Ubuntu" font-size="11" font-weight="400" font-style="normal" 
>
</g>

<g fill="none" stroke="#000000" stroke-opacity="1" stroke-width="1" stroke-linecap="square" stroke-linejoin="round" transform="matrix(2,0,0,2,-0.0016,313)"
font-family="Ubuntu" font-size="11" font-weight="400" font-style="normal" 
>
<path vector-effect="none" fill-rule="evenodd" d="M686.86,-31.156 C696.96,-34.736 706.92,-39.269 715.66,-45 C724.95,-51.096 733.19,-59.955 739.79,-68.528 "/>
</g>

<g fill="none" stroke="#000000" stroke-opacity="1" stroke-width="1" stroke-linecap="square" stroke-linejoin="bevel" transform="matrix(2,0,0,2,-0.0016,313)"
font-family="Ubuntu" font-size="11" font-weight="400" font-style="normal" 
>
</g>

<g fill="none" stroke="#000000" stroke-opacity="1" stroke-width="1" stroke-linecap="square" stroke-linejoin="bevel" transform="matrix(2,0,0,2,-0.0016,313)"
font-family="Ubuntu" font-size="11" font-weight="400" font-style="normal" 
>
</g>

<g fill="#000000" fill-opacity="1" stroke="#000000" stroke-opacity="1" stroke-width="1" stroke-linecap="square" stroke-linejoin="round" transform="matrix(2,0,0,2,-0.0016,313)"
font-family="Ubuntu" font-size="11" font-weight="400" font-style="normal" 
>
<path vector-effect="none" fill-rule="evenodd" d="M739.79,-68.528 L742.717,-66.4105 L745.84,-76.892 L736.863,-70.6455 L739.79,-68.528"/>
</g>

<g fill="none" stroke="#000000" stroke-opacity="1" stroke-width="1" stroke-linecap="square" stroke-linejoin="bevel" transform="matrix(2,0,0,2,-0.0016,313)"
font-family="Ubuntu" font-size="11" font-weight="400" font-style="normal" 
>
</g>

<g fill="none" stroke="#000000" stroke-opacity="1" stroke-width="1" stroke-linecap="square" stroke-linejoin="bevel" transform="matrix(1,0,0,1,0,0)"
font-family="Ubuntu" font-size="11" font-weight="400" font-style="normal" 
>
</g>
</g>
</svg>
