<?xml version="1.0" encoding="UTF-8" standalone="no"?>
<svg width="361.95mm" height="93.4861mm"
 xmlns="http://www.w3.org/2000/svg" xmlns:xlink="http://www.w3.org/1999/xlink"  version="1.2" baseProfile="tiny">
<title>Qt SVG Document</title>
<desc>Generated with Qt</desc>
<defs>
</defs>
<g fill="none" stroke="black" stroke-width="1" fill-rule="evenodd" stroke-linecap="square" stroke-linejoin="bevel" >

<g fill="none" stroke="#000000" stroke-opacity="1" stroke-width="1" stroke-linecap="square" stroke-linejoin="bevel" transform="matrix(1,0,0,1,0,0)"
font-family="Ubuntu" font-size="11" font-weight="400" font-style="normal" 
>
</g>

<g fill="none" stroke="#000000" stroke-opacity="1" stroke-width="1" stroke-linecap="square" stroke-linejoin="bevel" transform="matrix(1,0,0,1,0,0)"
font-family="Ubuntu" font-size="11" font-weight="400" font-style="normal" 
>
</g>

<g fill="none" stroke="#000000" stroke-opacity="1" stroke-width="1" stroke-linecap="square" stroke-linejoin="bevel" transform="matrix(1.99818,0,0,1.99818,0,265)"
font-family="Ubuntu" font-size="11" font-weight="400" font-style="normal" 
>
</g>

<g fill="#ffffff" fill-opacity="1" stroke="none" transform="matrix(1.99818,0,0,1.99818,0,265)"
font-family="Ubuntu" font-size="11" font-weight="400" font-style="normal" 
>
<rect x="0" y="-132.621" width="512.977" height="132.621"/>
</g>

<g fill="none" stroke="#000000" stroke-opacity="1" stroke-width="1" stroke-linecap="square" stroke-linejoin="bevel" transform="matrix(1.99818,0,0,1.99818,0,265)"
font-family="Ubuntu" font-size="11" font-weight="400" font-style="normal" 
>
</g>

<g fill="none" stroke="#000000" stroke-opacity="1" stroke-width="1" stroke-linecap="square" stroke-linejoin="bevel" transform="matrix(1.99818,0,0,1.99818,0,265)"
font-family="Ubuntu" font-size="11" font-weight="400" font-style="normal" 
>
</g>

<g fill="none" stroke="#000000" stroke-opacity="1" stroke-width="1" stroke-linecap="square" stroke-linejoin="bevel" transform="matrix(1.99818,0,0,1.99818,0,265)"
font-family="Ubuntu" font-size="11" font-weight="400" font-style="normal" 
>
</g>

<g fill="none" stroke="#000000" stroke-opacity="1" stroke-width="1" stroke-linecap="square" stroke-linejoin="bevel" transform="matrix(1.99818,0,0,1.99818,0,265)"
font-family="Ubuntu" font-size="11" font-weight="400" font-style="normal" 
>
</g>

<g fill="none" stroke="#000000" stroke-opacity="1" stroke-width="1" stroke-linecap="square" stroke-linejoin="round" transform="matrix(1.99818,0,0,1.99818,0,265)"
font-family="Ubuntu" font-size="11" font-weight="400" font-style="normal" 
>
<ellipse cx="265.89" cy="-18" rx="94.3924" ry="17.5"/>
</g>

<g fill="none" stroke="#000000" stroke-opacity="1" stroke-width="1" stroke-linecap="square" stroke-linejoin="bevel" transform="matrix(1.99818,0,0,1.99818,0,265)"
font-family="Ubuntu" font-size="11" font-weight="400" font-style="normal" 
>
</g>

<g fill="none" stroke="#000000" stroke-opacity="1" stroke-width="1" stroke-linecap="square" stroke-linejoin="bevel" transform="matrix(1.99818,0,0,1.99818,404.099,215.046)"
font-family="Ubuntu" font-size="11" font-weight="400" font-style="normal" 
>
</g>

<g fill="none" stroke="#000000" stroke-opacity="1" stroke-width="1" stroke-linecap="square" stroke-linejoin="bevel" transform="matrix(1.99818,0,0,1.99818,404.099,215.046)"
font-family="sans" font-size="11" font-weight="100" font-style="normal" 
>
</g>

<g fill="#000000" fill-opacity="1" stroke="#000000" stroke-opacity="1" stroke-width="1" stroke-linecap="square" stroke-linejoin="round" transform="matrix(1.99818,0,0,1.99818,404.099,215.046)"
font-family="sans" font-size="11" font-weight="100" font-style="normal" 
>
<path vector-effect="none" fill-rule="nonzero" d="M2.79688,2.98438 L3.70313,2.98438 L0.90625,12.0156 L0,12.0156 L2.79688,2.98438 M8.21875,5.90625 C8.11458,5.84375 7.9974,5.79688 7.86719,5.76563 C7.73698,5.73438 7.59375,5.71875 7.4375,5.71875 C6.875,5.71875 6.44531,5.90104 6.14844,6.26563 C5.85156,6.63021 5.70313,7.15104 5.70313,7.82813 L5.70313,11 L4.70313,11 L4.70313,4.98438 L5.70313,4.98438 L5.70313,5.92188 C5.90104,5.55729 6.16667,5.28646 6.5,5.10938 C6.83333,4.93229 7.23958,4.84375 7.71875,4.84375 C7.79167,4.84375 7.86719,4.84635 7.94531,4.85156 C8.02344,4.85677 8.11458,4.86979 8.21875,4.89063 L8.21875,5.90625 M9.84375,8 C9.84375,8.72917 9.99479,9.29948 10.2969,9.71094 C10.599,10.1224 11.0104,10.3281 11.5313,10.3281 C12.0521,10.3281 12.4635,10.1224 12.7656,9.71094 C13.0677,9.29948 13.2188,8.72917 13.2188,8 C13.2188,7.27083 13.0677,6.70052 12.7656,6.28906 C12.4635,5.8776 12.0521,5.67188 11.5313,5.67188 C11.0104,5.67188 10.599,5.8776 10.2969,6.28906 C9.99479,6.70052 9.84375,7.27083 9.84375,8 M13.2188,10.0938 C13.0104,10.4583 12.7474,10.7266 12.4297,10.8984 C12.112,11.0703 11.7292,11.1563 11.2813,11.1563 C10.5625,11.1563 9.97396,10.8672 9.51563,10.2891 C9.05729,9.71094 8.82813,8.94792 8.82813,8 C8.82813,7.05208 9.05729,6.28906 9.51563,5.71094 C9.97396,5.13281 10.5625,4.84375 11.2813,4.84375 C11.7292,4.84375 12.112,4.92969 12.4297,5.10156 C12.7474,5.27344 13.0104,5.53646 13.2188,5.89063 L13.2188,4.98438 L14.2031,4.98438 L14.2031,13.2813 L13.2188,13.2813 L13.2188,10.0938 M17.2031,3.28125 L17.2031,4.98438 L19.2344,4.98438 L19.2344,5.75 L17.2031,5.75 L17.2031,9.01563 C17.2031,9.50521 17.2708,9.82031 17.4063,9.96094 C17.5417,10.1016 17.8125,10.1719 18.2188,10.1719 L19.2344,10.1719 L19.2344,11 L18.2188,11 C17.4583,11 16.9323,10.8568 16.6406,10.5703 C16.349,10.2839 16.2031,9.76563 16.2031,9.01563 L16.2031,5.75 L15.4844,5.75 L15.4844,4.98438 L16.2031,4.98438 L16.2031,3.28125 L17.2031,3.28125 M25.1094,12.8281 L25.1094,13.5938 L19.3906,13.5938 L19.3906,12.8281 L25.1094,12.8281 M30,7.92188 C30,7.20313 29.8516,6.64844 29.5547,6.25781 C29.2578,5.86719 28.8438,5.67188 28.3125,5.67188 C27.7813,5.67188 27.3672,5.86719 27.0703,6.25781 C26.7734,6.64844 26.625,7.20313 26.625,7.92188 C26.625,8.63021 26.7734,9.18229 27.0703,9.57813 C27.3672,9.97396 27.7813,10.1719 28.3125,10.1719 C28.8438,10.1719 29.2578,9.97396 29.5547,9.57813 C29.8516,9.18229 30,8.63021 30,7.92188 M30.9844,10.25 C30.9844,11.2813 30.7578,12.0443 30.3047,12.5391 C29.8516,13.0339 29.1563,13.2813 28.2188,13.2813 C27.8646,13.2813 27.5339,13.2552 27.2266,13.2031 C26.9193,13.151 26.6198,13.0729 26.3281,12.9688 L26.3281,12.0156 C26.6198,12.1719 26.9063,12.2865 27.1875,12.3594 C27.4688,12.4323 27.7604,12.4688 28.0625,12.4688 C28.7083,12.4688 29.1927,12.2995 29.5156,11.9609 C29.8385,11.6224 30,11.1146 30,10.4375 L30,9.9375 C29.7917,10.2917 29.5286,10.5573 29.2109,10.7344 C28.8932,10.9115 28.5104,11 28.0625,11 C27.3229,11 26.7292,10.7188 26.2813,10.1563 C25.8333,9.59375 25.6094,8.84896 25.6094,7.92188 C25.6094,6.99479 25.8333,6.25 26.2813,5.6875 C26.7292,5.125 27.3229,4.84375 28.0625,4.84375 C28.5104,4.84375 28.8932,4.92969 29.2109,5.10156 C29.5286,5.27344 29.7917,5.53646 30,5.89063 L30,4.98438 L30.9844,4.98438 L30.9844,10.25 M32.9063,8.625 L32.9063,4.98438 L33.8906,4.98438 L33.8906,8.59375 C33.8906,9.15625 34.0026,9.58073 34.2266,9.86719 C34.4505,10.1536 34.7813,10.2969 35.2188,10.2969 C35.7604,10.2969 36.1849,10.1276 36.4922,9.78906 C36.7995,9.45052 36.9531,8.98438 36.9531,8.39063 L36.9531,4.98438 L37.9375,4.98438 L37.9375,11 L36.9531,11 L36.9531,10.0781 C36.7135,10.4427 36.4349,10.7135 36.1172,10.8906 C35.7995,11.0677 35.4323,11.1563 35.0156,11.1563 C34.3281,11.1563 33.8047,10.9401 33.4453,10.5078 C33.0859,10.0755 32.9063,9.44792 32.9063,8.625 M39.9688,4.98438 L40.9688,4.98438 L40.9688,11 L39.9688,11 L39.9688,4.98438 M39.9688,2.64063 L40.9688,2.64063 L40.9688,3.89063 L39.9688,3.89063 L39.9688,2.64063 M47.5938,12.8281 L47.5938,13.5938 L41.875,13.5938 L41.875,12.8281 L47.5938,12.8281 M49.4844,10.0938 L49.4844,13.2813 L48.4844,13.2813 L48.4844,4.98438 L49.4844,4.98438 L49.4844,5.89063 C49.6823,5.53646 49.9401,5.27344 50.2578,5.10156 C50.5755,4.92969 50.9583,4.84375 51.4063,4.84375 C52.1354,4.84375 52.7266,5.13281 53.1797,5.71094 C53.6328,6.28906 53.8594,7.05208 53.8594,8 C53.8594,8.94792 53.6328,9.71094 53.1797,10.2891 C52.7266,10.8672 52.1354,11.1563 51.4063,11.1563 C50.9583,11.1563 50.5755,11.0703 50.2578,10.8984 C49.9401,10.7266 49.6823,10.4583 49.4844,10.0938 M52.8438,8 C52.8438,7.27083 52.6927,6.70052 52.3906,6.28906 C52.0885,5.8776 51.6771,5.67188 51.1563,5.67188 C50.6354,5.67188 50.2266,5.8776 49.9297,6.28906 C49.6328,6.70052 49.4844,7.27083 49.4844,8 C49.4844,8.72917 49.6328,9.29948 49.9297,9.71094 C50.2266,10.1224 50.6354,10.3281 51.1563,10.3281 C51.6771,10.3281 52.0885,10.1224 52.3906,9.71094 C52.6927,9.29948 52.8438,8.72917 52.8438,8 M58,11.5625 C57.7188,12.2813 57.4453,12.7474 57.1797,12.9609 C56.9141,13.1745 56.5573,13.2813 56.1094,13.2813 L55.3281,13.2813 L55.3281,12.4688 L55.9063,12.4688 C56.1771,12.4688 56.388,12.4036 56.5391,12.2734 C56.6901,12.1432 56.8542,11.8385 57.0313,11.3594 L57.2188,10.9063 L54.7813,4.98438 L55.8281,4.98438 L57.7031,9.6875 L59.5938,4.98438 L60.6406,4.98438 L58,11.5625 M66.5625,12.8281 L66.5625,13.5938 L60.8438,13.5938 L60.8438,12.8281 L66.5625,12.8281 M72.4844,7.375 L72.4844,11 L71.5,11 L71.5,7.40625 C71.5,6.83333 71.3906,6.40625 71.1719,6.125 C70.9531,5.84375 70.6198,5.70313 70.1719,5.70313 C69.6406,5.70313 69.2214,5.8724 68.9141,6.21094 C68.6068,6.54948 68.4531,7.01042 68.4531,7.59375 L68.4531,11 L67.4531,11 L67.4531,4.98438 L68.4531,4.98438 L68.4531,5.92188 C68.6823,5.55729 68.9583,5.28646 69.2813,5.10938 C69.6042,4.93229 69.974,4.84375 70.3906,4.84375 C71.0781,4.84375 71.599,5.05729 71.9531,5.48438 C72.3073,5.91146 72.4844,6.54167 72.4844,7.375 M76.7969,5.67188 C76.2656,5.67188 75.8464,5.88021 75.5391,6.29688 C75.2318,6.71354 75.0781,7.28125 75.0781,8 C75.0781,8.71875 75.2292,9.28385 75.5313,9.69531 C75.8333,10.1068 76.2552,10.3125 76.7969,10.3125 C77.3177,10.3125 77.7318,10.1068 78.0391,9.69531 C78.3464,9.28385 78.5,8.71875 78.5,8 C78.5,7.28125 78.3464,6.71354 78.0391,6.29688 C77.7318,5.88021 77.3177,5.67188 76.7969,5.67188 M76.7969,4.84375 C77.651,4.84375 78.3229,5.1224 78.8125,5.67969 C79.3021,6.23698 79.5469,7.01042 79.5469,8 C79.5469,8.97917 79.3021,9.75 78.8125,10.3125 C78.3229,10.875 77.651,11.1563 76.7969,11.1563 C75.9323,11.1563 75.2552,10.875 74.7656,10.3125 C74.276,9.75 74.0313,8.97917 74.0313,8 C74.0313,7.01042 74.276,6.23698 74.7656,5.67969 C75.2552,5.1224 75.9323,4.84375 76.7969,4.84375 M85.1406,5.89063 L85.1406,2.64063 L86.125,2.64063 L86.125,11 L85.1406,11 L85.1406,10.0938 C84.9323,10.4583 84.6693,10.7266 84.3516,10.8984 C84.0339,11.0703 83.651,11.1563 83.2031,11.1563 C82.4844,11.1563 81.8958,10.8672 81.4375,10.2891 C80.9792,9.71094 80.75,8.94792 80.75,8 C80.75,7.05208 80.9792,6.28906 81.4375,5.71094 C81.8958,5.13281 82.4844,4.84375 83.2031,4.84375 C83.651,4.84375 84.0339,4.92969 84.3516,5.10156 C84.6693,5.27344 84.9323,5.53646 85.1406,5.89063 M81.7656,8 C81.7656,8.72917 81.9167,9.29948 82.2188,9.71094 C82.5208,10.1224 82.9323,10.3281 83.4531,10.3281 C83.974,10.3281 84.3854,10.1224 84.6875,9.71094 C84.9896,9.29948 85.1406,8.72917 85.1406,8 C85.1406,7.27083 84.9896,6.70052 84.6875,6.28906 C84.3854,5.8776 83.974,5.67188 83.4531,5.67188 C82.9323,5.67188 82.5208,5.8776 82.2188,6.28906 C81.9167,6.70052 81.7656,7.27083 81.7656,8 M93.2969,7.75 L93.2969,8.23438 L88.75,8.23438 C88.7917,8.91146 88.9948,9.42708 89.3594,9.78125 C89.724,10.1354 90.2344,10.3125 90.8906,10.3125 C91.276,10.3125 91.6458,10.2656 92,10.1719 C92.3542,10.0781 92.7083,9.94271 93.0625,9.76563 L93.0625,10.6875 C92.7083,10.8438 92.3438,10.9609 91.9688,11.0391 C91.5938,11.1172 91.2188,11.1563 90.8438,11.1563 C89.875,11.1563 89.112,10.8776 88.5547,10.3203 C87.9974,9.76302 87.7188,9.00521 87.7188,8.04688 C87.7188,7.06771 87.9844,6.28906 88.5156,5.71094 C89.0469,5.13281 89.7656,4.84375 90.6719,4.84375 C91.474,4.84375 92.112,5.10417 92.5859,5.625 C93.0599,6.14583 93.2969,6.85417 93.2969,7.75 M92.2969,7.45313 C92.2969,6.91146 92.1484,6.47917 91.8516,6.15625 C91.5547,5.83333 91.1615,5.67188 90.6719,5.67188 C90.1198,5.67188 89.6797,5.82813 89.3516,6.14063 C89.0234,6.45313 88.8333,6.89063 88.7813,7.45313 L92.2969,7.45313 M99.4844,12.8281 L99.4844,13.5938 L93.7656,13.5938 L93.7656,12.8281 L99.4844,12.8281 M100.281,2.98438 L105.438,2.98438 L105.438,3.4375 L102.516,11 L101.391,11 L104.125,3.89063 L100.281,3.89063 L100.281,2.98438 M108.469,10.0938 L112.25,10.0938 L112.25,11 L107.172,11 L107.172,10.0938 C107.578,9.66667 108.138,9.09375 108.852,8.375 C109.565,7.65625 110.01,7.19271 110.188,6.98438 C110.531,6.58854 110.773,6.25521 110.914,5.98438 C111.055,5.71354 111.125,5.44792 111.125,5.1875 C111.125,4.76042 110.977,4.41406 110.68,4.14844 C110.383,3.88281 109.99,3.75 109.5,3.75 C109.167,3.75 108.81,3.8099 108.43,3.92969 C108.049,4.04948 107.646,4.22917 107.219,4.46875 L107.219,3.375 C107.656,3.19792 108.065,3.0625 108.445,2.96875 C108.826,2.875 109.172,2.82813 109.484,2.82813 C110.318,2.82813 110.982,3.03646 111.477,3.45313 C111.971,3.86979 112.219,4.42708 112.219,5.125 C112.219,5.45833 112.156,5.77083 112.031,6.0625 C111.906,6.35417 111.682,6.70313 111.359,7.10938 C111.266,7.21354 110.979,7.51302 110.5,8.00781 C110.021,8.5026 109.344,9.19792 108.469,10.0938 M116.844,3.6875 C116.281,3.6875 115.859,3.96354 115.578,4.51563 C115.297,5.06771 115.156,5.89583 115.156,7 C115.156,8.09375 115.297,8.91667 115.578,9.46875 C115.859,10.0208 116.281,10.2969 116.844,10.2969 C117.406,10.2969 117.828,10.0208 118.109,9.46875 C118.391,8.91667 118.531,8.09375 118.531,7 C118.531,5.89583 118.391,5.06771 118.109,4.51563 C117.828,3.96354 117.406,3.6875 116.844,3.6875 M116.844,2.82813 C117.74,2.82813 118.424,3.1849 118.898,3.89844 C119.372,4.61198 119.609,5.64583 119.609,7 C119.609,8.34375 119.372,9.3724 118.898,10.0859 C118.424,10.7995 117.74,11.1563 116.844,11.1563 C115.948,11.1563 115.26,10.7995 114.781,10.0859 C114.302,9.3724 114.063,8.34375 114.063,7 C114.063,5.64583 114.302,4.61198 114.781,3.89844 C115.26,3.1849 115.948,2.82813 116.844,2.82813 M124.484,3.92188 L121.75,8.20313 L124.484,8.20313 L124.484,3.92188 M124.203,2.98438 L125.563,2.98438 L125.563,8.20313 L126.703,8.20313 L126.703,9.10938 L125.563,9.10938 L125.563,11 L124.484,11 L124.484,9.10938 L120.859,9.10938 L120.859,8.0625 L124.203,2.98438"/>
</g>

<g fill="none" stroke="#000000" stroke-opacity="1" stroke-width="1" stroke-linecap="square" stroke-linejoin="bevel" transform="matrix(1.99818,0,0,1.99818,404.099,215.046)"
font-family="sans" font-size="11" font-weight="100" font-style="normal" 
>
</g>

<g fill="none" stroke="#000000" stroke-opacity="1" stroke-width="1" stroke-linecap="square" stroke-linejoin="bevel" transform="matrix(1.99818,0,0,1.99818,404.099,215.046)"
font-family="Ubuntu" font-size="11" font-weight="400" font-style="normal" 
>
</g>

<g fill="none" stroke="#000000" stroke-opacity="1" stroke-width="1" stroke-linecap="square" stroke-linejoin="bevel" transform="matrix(1.99818,0,0,1.99818,0,265)"
font-family="Ubuntu" font-size="11" font-weight="400" font-style="normal" 
>
</g>

<g fill="none" stroke="#000000" stroke-opacity="1" stroke-width="1" stroke-linecap="square" stroke-linejoin="bevel" transform="matrix(1.99818,0,0,1.99818,0,265)"
font-family="Ubuntu" font-size="11" font-weight="400" font-style="normal" 
>
</g>

<g fill="none" stroke="#000000" stroke-opacity="1" stroke-width="1" stroke-linecap="square" stroke-linejoin="bevel" transform="matrix(1.99818,0,0,1.99818,0,265)"
font-family="Ubuntu" font-size="11" font-weight="400" font-style="normal" 
>
</g>

<g fill="none" stroke="#000000" stroke-opacity="1" stroke-width="1" stroke-linecap="square" stroke-linejoin="round" transform="matrix(1.99818,0,0,1.99818,0,265)"
font-family="Ubuntu" font-size="11" font-weight="400" font-style="normal" 
>
<rect x="68.5004" y="-89.5" width="87.9992" height="35"/>
</g>

<g fill="none" stroke="#000000" stroke-opacity="1" stroke-width="1" stroke-linecap="square" stroke-linejoin="bevel" transform="matrix(1.99818,0,0,1.99818,0,265)"
font-family="Ubuntu" font-size="11" font-weight="400" font-style="normal" 
>
</g>

<g fill="none" stroke="#000000" stroke-opacity="1" stroke-width="1" stroke-linecap="square" stroke-linejoin="bevel" transform="matrix(1.99818,0,0,1.99818,151.034,107.144)"
font-family="Ubuntu" font-size="11" font-weight="400" font-style="normal" 
>
</g>

<g fill="none" stroke="#000000" stroke-opacity="1" stroke-width="1" stroke-linecap="square" stroke-linejoin="bevel" transform="matrix(1.99818,0,0,1.99818,151.034,107.144)"
font-family="sans" font-size="11" font-weight="100" font-style="normal" 
>
</g>

<g fill="#000000" fill-opacity="1" stroke="#000000" stroke-opacity="1" stroke-width="1" stroke-linecap="square" stroke-linejoin="round" transform="matrix(1.99818,0,0,1.99818,151.034,107.144)"
font-family="sans" font-size="11" font-weight="100" font-style="normal" 
>
<path vector-effect="none" fill-rule="nonzero" d="M2.79688,2.98438 L3.70313,2.98438 L0.90625,12.0156 L0,12.0156 L2.79688,2.98438 M4.73438,4.98438 L5.73438,4.98438 L5.73438,11 L4.73438,11 L4.73438,4.98438 M4.73438,2.64063 L5.73438,2.64063 L5.73438,3.89063 L4.73438,3.89063 L4.73438,2.64063 M12.7813,7.375 L12.7813,11 L11.7969,11 L11.7969,7.40625 C11.7969,6.83333 11.6875,6.40625 11.4688,6.125 C11.25,5.84375 10.9167,5.70313 10.4688,5.70313 C9.9375,5.70313 9.51823,5.8724 9.21094,6.21094 C8.90365,6.54948 8.75,7.01042 8.75,7.59375 L8.75,11 L7.75,11 L7.75,4.98438 L8.75,4.98438 L8.75,5.92188 C8.97917,5.55729 9.25521,5.28646 9.57813,5.10938 C9.90104,4.93229 10.2708,4.84375 10.6875,4.84375 C11.375,4.84375 11.8958,5.05729 12.25,5.48438 C12.6042,5.91146 12.7813,6.54167 12.7813,7.375 M15.7344,3.28125 L15.7344,4.98438 L17.7656,4.98438 L17.7656,5.75 L15.7344,5.75 L15.7344,9.01563 C15.7344,9.50521 15.8021,9.82031 15.9375,9.96094 C16.0729,10.1016 16.3438,10.1719 16.75,10.1719 L17.7656,10.1719 L17.7656,11 L16.75,11 C15.9896,11 15.4635,10.8568 15.1719,10.5703 C14.8802,10.2839 14.7344,9.76563 14.7344,9.01563 L14.7344,5.75 L14.0156,5.75 L14.0156,4.98438 L14.7344,4.98438 L14.7344,3.28125 L15.7344,3.28125 M24.2188,7.75 L24.2188,8.23438 L19.6719,8.23438 C19.7135,8.91146 19.9167,9.42708 20.2813,9.78125 C20.6458,10.1354 21.1563,10.3125 21.8125,10.3125 C22.1979,10.3125 22.5677,10.2656 22.9219,10.1719 C23.276,10.0781 23.6302,9.94271 23.9844,9.76563 L23.9844,10.6875 C23.6302,10.8438 23.2656,10.9609 22.8906,11.0391 C22.5156,11.1172 22.1406,11.1563 21.7656,11.1563 C20.7969,11.1563 20.0339,10.8776 19.4766,10.3203 C18.9193,9.76302 18.6406,9.00521 18.6406,8.04688 C18.6406,7.06771 18.9063,6.28906 19.4375,5.71094 C19.9688,5.13281 20.6875,4.84375 21.5938,4.84375 C22.3958,4.84375 23.0339,5.10417 23.5078,5.625 C23.9818,6.14583 24.2188,6.85417 24.2188,7.75 M23.2188,7.45313 C23.2188,6.91146 23.0703,6.47917 22.7734,6.15625 C22.4766,5.83333 22.0833,5.67188 21.5938,5.67188 C21.0417,5.67188 20.6016,5.82813 20.2734,6.14063 C19.9453,6.45313 19.7552,6.89063 19.7031,7.45313 L23.2188,7.45313 M29.3125,5.90625 C29.2083,5.84375 29.0911,5.79688 28.9609,5.76563 C28.8307,5.73438 28.6875,5.71875 28.5313,5.71875 C27.9688,5.71875 27.5391,5.90104 27.2422,6.26563 C26.9453,6.63021 26.7969,7.15104 26.7969,7.82813 L26.7969,11 L25.7969,11 L25.7969,4.98438 L26.7969,4.98438 L26.7969,5.92188 C26.9948,5.55729 27.2604,5.28646 27.5938,5.10938 C27.9271,4.93229 28.3333,4.84375 28.8125,4.84375 C28.8854,4.84375 28.9609,4.84635 29.0391,4.85156 C29.1172,4.85677 29.2083,4.86979 29.3125,4.89063 L29.3125,5.90625 M31.3125,10.0938 L31.3125,13.2813 L30.3125,13.2813 L30.3125,4.98438 L31.3125,4.98438 L31.3125,5.89063 C31.5104,5.53646 31.7682,5.27344 32.0859,5.10156 C32.4036,4.92969 32.7865,4.84375 33.2344,4.84375 C33.9635,4.84375 34.5547,5.13281 35.0078,5.71094 C35.4609,6.28906 35.6875,7.05208 35.6875,8 C35.6875,8.94792 35.4609,9.71094 35.0078,10.2891 C34.5547,10.8672 33.9635,11.1563 33.2344,11.1563 C32.7865,11.1563 32.4036,11.0703 32.0859,10.8984 C31.7682,10.7266 31.5104,10.4583 31.3125,10.0938 M34.6719,8 C34.6719,7.27083 34.5208,6.70052 34.2188,6.28906 C33.9167,5.8776 33.5052,5.67188 32.9844,5.67188 C32.4635,5.67188 32.0547,5.8776 31.7578,6.28906 C31.4609,6.70052 31.3125,7.27083 31.3125,8 C31.3125,8.72917 31.4609,9.29948 31.7578,9.71094 C32.0547,10.1224 32.4635,10.3281 32.9844,10.3281 C33.5052,10.3281 33.9167,10.1224 34.2188,9.71094 C34.5208,9.29948 34.6719,8.72917 34.6719,8 M39.6563,5.67188 C39.125,5.67188 38.7057,5.88021 38.3984,6.29688 C38.0911,6.71354 37.9375,7.28125 37.9375,8 C37.9375,8.71875 38.0885,9.28385 38.3906,9.69531 C38.6927,10.1068 39.1146,10.3125 39.6563,10.3125 C40.1771,10.3125 40.5911,10.1068 40.8984,9.69531 C41.2057,9.28385 41.3594,8.71875 41.3594,8 C41.3594,7.28125 41.2057,6.71354 40.8984,6.29688 C40.5911,5.88021 40.1771,5.67188 39.6563,5.67188 M39.6563,4.84375 C40.5104,4.84375 41.1823,5.1224 41.6719,5.67969 C42.1615,6.23698 42.4063,7.01042 42.4063,8 C42.4063,8.97917 42.1615,9.75 41.6719,10.3125 C41.1823,10.875 40.5104,11.1563 39.6563,11.1563 C38.7917,11.1563 38.1146,10.875 37.625,10.3125 C37.1354,9.75 36.8906,8.97917 36.8906,8 C36.8906,7.01042 37.1354,6.23698 37.625,5.67969 C38.1146,5.1224 38.7917,4.84375 39.6563,4.84375 M44.0313,2.64063 L45.0313,2.64063 L45.0313,11 L44.0313,11 L44.0313,2.64063 M49.8125,7.96875 C49.0208,7.96875 48.4714,8.0625 48.1641,8.25 C47.8568,8.4375 47.7031,8.75 47.7031,9.1875 C47.7031,9.53125 47.8177,9.80729 48.0469,10.0156 C48.276,10.224 48.5885,10.3281 48.9844,10.3281 C49.5365,10.3281 49.9766,10.1328 50.3047,9.74219 C50.6328,9.35156 50.7969,8.83854 50.7969,8.20313 L50.7969,7.96875 L49.8125,7.96875 M51.7813,7.5625 L51.7813,11 L50.7969,11 L50.7969,10.0938 C50.5781,10.4583 50.2995,10.7266 49.9609,10.8984 C49.6224,11.0703 49.2083,11.1563 48.7188,11.1563 C48.1042,11.1563 47.6146,10.9844 47.25,10.6406 C46.8854,10.2969 46.7031,9.83333 46.7031,9.25 C46.7031,8.57292 46.9297,8.0625 47.3828,7.71875 C47.8359,7.375 48.5156,7.20313 49.4219,7.20313 L50.7969,7.20313 L50.7969,7.10938 C50.7969,6.65104 50.6484,6.29688 50.3516,6.04688 C50.0547,5.79688 49.6354,5.67188 49.0938,5.67188 C48.75,5.67188 48.4141,5.71354 48.0859,5.79688 C47.7578,5.88021 47.4427,6.00521 47.1406,6.17188 L47.1406,5.26563 C47.5052,5.11979 47.8594,5.01302 48.2031,4.94531 C48.5469,4.8776 48.875,4.84375 49.1875,4.84375 C50.0625,4.84375 50.7135,5.06771 51.1406,5.51563 C51.5677,5.96354 51.7813,6.64583 51.7813,7.5625 M54.7969,3.28125 L54.7969,4.98438 L56.8281,4.98438 L56.8281,5.75 L54.7969,5.75 L54.7969,9.01563 C54.7969,9.50521 54.8646,9.82031 55,9.96094 C55.1354,10.1016 55.4063,10.1719 55.8125,10.1719 L56.8281,10.1719 L56.8281,11 L55.8125,11 C55.0521,11 54.526,10.8568 54.2344,10.5703 C53.9427,10.2839 53.7969,9.76563 53.7969,9.01563 L53.7969,5.75 L53.0781,5.75 L53.0781,4.98438 L53.7969,4.98438 L53.7969,3.28125 L54.7969,3.28125 M58.125,4.98438 L59.125,4.98438 L59.125,11 L58.125,11 L58.125,4.98438 M58.125,2.64063 L59.125,2.64063 L59.125,3.89063 L58.125,3.89063 L58.125,2.64063 M63.5156,5.67188 C62.9844,5.67188 62.5651,5.88021 62.2578,6.29688 C61.9505,6.71354 61.7969,7.28125 61.7969,8 C61.7969,8.71875 61.9479,9.28385 62.25,9.69531 C62.5521,10.1068 62.974,10.3125 63.5156,10.3125 C64.0365,10.3125 64.4505,10.1068 64.7578,9.69531 C65.0651,9.28385 65.2188,8.71875 65.2188,8 C65.2188,7.28125 65.0651,6.71354 64.7578,6.29688 C64.4505,5.88021 64.0365,5.67188 63.5156,5.67188 M63.5156,4.84375 C64.3698,4.84375 65.0417,5.1224 65.5313,5.67969 C66.0208,6.23698 66.2656,7.01042 66.2656,8 C66.2656,8.97917 66.0208,9.75 65.5313,10.3125 C65.0417,10.875 64.3698,11.1563 63.5156,11.1563 C62.651,11.1563 61.974,10.875 61.4844,10.3125 C60.9948,9.75 60.75,8.97917 60.75,8 C60.75,7.01042 60.9948,6.23698 61.4844,5.67969 C61.974,5.1224 62.651,4.84375 63.5156,4.84375 M72.8906,7.375 L72.8906,11 L71.9063,11 L71.9063,7.40625 C71.9063,6.83333 71.7969,6.40625 71.5781,6.125 C71.3594,5.84375 71.026,5.70313 70.5781,5.70313 C70.0469,5.70313 69.6276,5.8724 69.3203,6.21094 C69.013,6.54948 68.8594,7.01042 68.8594,7.59375 L68.8594,11 L67.8594,11 L67.8594,4.98438 L68.8594,4.98438 L68.8594,5.92188 C69.0885,5.55729 69.3646,5.28646 69.6875,5.10938 C70.0104,4.93229 70.3802,4.84375 70.7969,4.84375 C71.4844,4.84375 72.0052,5.05729 72.3594,5.48438 C72.7135,5.91146 72.8906,6.54167 72.8906,7.375 "/>
</g>

<g fill="none" stroke="#000000" stroke-opacity="1" stroke-width="1" stroke-linecap="square" stroke-linejoin="bevel" transform="matrix(1.99818,0,0,1.99818,151.034,107.144)"
font-family="sans" font-size="11" font-weight="100" font-style="normal" 
>
</g>

<g fill="none" stroke="#000000" stroke-opacity="1" stroke-width="1" stroke-linecap="square" stroke-linejoin="bevel" transform="matrix(1.99818,0,0,1.99818,151.034,107.144)"
font-family="Ubuntu" font-size="11" font-weight="400" font-style="normal" 
>
</g>

<g fill="none" stroke="#000000" stroke-opacity="1" stroke-width="1" stroke-linecap="square" stroke-linejoin="bevel" transform="matrix(1.99818,0,0,1.99818,0,265)"
font-family="Ubuntu" font-size="11" font-weight="400" font-style="normal" 
>
</g>

<g fill="none" stroke="#000000" stroke-opacity="1" stroke-width="1" stroke-linecap="square" stroke-linejoin="bevel" transform="matrix(1.99818,0,0,1.99818,0,265)"
font-family="Ubuntu" font-size="11" font-weight="400" font-style="normal" 
>
</g>

<g fill="none" stroke="#000000" stroke-opacity="1" stroke-width="1" stroke-linecap="square" stroke-linejoin="bevel" transform="matrix(1.99818,0,0,1.99818,0,265)"
font-family="Ubuntu" font-size="11" font-weight="400" font-style="normal" 
>
</g>

<g fill="none" stroke="#000000" stroke-opacity="1" stroke-width="1" stroke-linecap="square" stroke-linejoin="round" transform="matrix(1.99818,0,0,1.99818,0,265)"
font-family="Ubuntu" font-size="11" font-weight="400" font-style="normal" 
>
<ellipse cx="27" cy="-95" rx="26.5" ry="17.5"/>
</g>

<g fill="none" stroke="#000000" stroke-opacity="1" stroke-width="1" stroke-linecap="square" stroke-linejoin="bevel" transform="matrix(1.99818,0,0,1.99818,0,265)"
font-family="Ubuntu" font-size="11" font-weight="400" font-style="normal" 
>
</g>

<g fill="none" stroke="#000000" stroke-opacity="1" stroke-width="1" stroke-linecap="square" stroke-linejoin="bevel" transform="matrix(1.99818,0,0,1.99818,28.2242,61.186)"
font-family="Ubuntu" font-size="11" font-weight="400" font-style="normal" 
>
</g>

<g fill="none" stroke="#000000" stroke-opacity="1" stroke-width="1" stroke-linecap="square" stroke-linejoin="bevel" transform="matrix(1.99818,0,0,1.99818,28.2242,61.186)"
font-family="sans" font-size="11" font-weight="100" font-style="normal" 
>
</g>

<g fill="#000000" fill-opacity="1" stroke="#000000" stroke-opacity="1" stroke-width="1" stroke-linecap="square" stroke-linejoin="round" transform="matrix(1.99818,0,0,1.99818,28.2242,61.186)"
font-family="sans" font-size="11" font-weight="100" font-style="normal" 
>
<path vector-effect="none" fill-rule="nonzero" d="M2.79688,2.98438 L3.70313,2.98438 L0.90625,12.0156 L0,12.0156 L2.79688,2.98438 M7.07813,5.67188 C6.54688,5.67188 6.1276,5.88021 5.82031,6.29688 C5.51302,6.71354 5.35938,7.28125 5.35938,8 C5.35938,8.71875 5.51042,9.28385 5.8125,9.69531 C6.11458,10.1068 6.53646,10.3125 7.07813,10.3125 C7.59896,10.3125 8.01302,10.1068 8.32031,9.69531 C8.6276,9.28385 8.78125,8.71875 8.78125,8 C8.78125,7.28125 8.6276,6.71354 8.32031,6.29688 C8.01302,5.88021 7.59896,5.67188 7.07813,5.67188 M7.07813,4.84375 C7.93229,4.84375 8.60417,5.1224 9.09375,5.67969 C9.58333,6.23698 9.82813,7.01042 9.82813,8 C9.82813,8.97917 9.58333,9.75 9.09375,10.3125 C8.60417,10.875 7.93229,11.1563 7.07813,11.1563 C6.21354,11.1563 5.53646,10.875 5.04688,10.3125 C4.55729,9.75 4.3125,8.97917 4.3125,8 C4.3125,7.01042 4.55729,6.23698 5.04688,5.67969 C5.53646,5.1224 6.21354,4.84375 7.07813,4.84375 M11.4531,4.98438 L12.4531,4.98438 L12.4531,11 L11.4531,11 L11.4531,4.98438 M11.4531,2.64063 L12.4531,2.64063 L12.4531,3.89063 L11.4531,3.89063 L11.4531,2.64063 M19.5,7.375 L19.5,11 L18.5156,11 L18.5156,7.40625 C18.5156,6.83333 18.4063,6.40625 18.1875,6.125 C17.9688,5.84375 17.6354,5.70313 17.1875,5.70313 C16.6563,5.70313 16.237,5.8724 15.9297,6.21094 C15.6224,6.54948 15.4688,7.01042 15.4688,7.59375 L15.4688,11 L14.4688,11 L14.4688,4.98438 L15.4688,4.98438 L15.4688,5.92188 C15.6979,5.55729 15.974,5.28646 16.2969,5.10938 C16.6198,4.93229 16.9896,4.84375 17.4063,4.84375 C18.0938,4.84375 18.6146,5.05729 18.9688,5.48438 C19.3229,5.91146 19.5,6.54167 19.5,7.375 M22.4531,3.28125 L22.4531,4.98438 L24.4844,4.98438 L24.4844,5.75 L22.4531,5.75 L22.4531,9.01563 C22.4531,9.50521 22.5208,9.82031 22.6563,9.96094 C22.7917,10.1016 23.0625,10.1719 23.4688,10.1719 L24.4844,10.1719 L24.4844,11 L23.4688,11 C22.7083,11 22.1823,10.8568 21.8906,10.5703 C21.599,10.2839 21.4531,9.76563 21.4531,9.01563 L21.4531,5.75 L20.7344,5.75 L20.7344,4.98438 L21.4531,4.98438 L21.4531,3.28125 L22.4531,3.28125"/>
</g>

<g fill="none" stroke="#000000" stroke-opacity="1" stroke-width="1" stroke-linecap="square" stroke-linejoin="bevel" transform="matrix(1.99818,0,0,1.99818,28.2242,61.186)"
font-family="sans" font-size="11" font-weight="100" font-style="normal" 
>
</g>

<g fill="none" stroke="#000000" stroke-opacity="1" stroke-width="1" stroke-linecap="square" stroke-linejoin="bevel" transform="matrix(1.99818,0,0,1.99818,28.2242,61.186)"
font-family="Ubuntu" font-size="11" font-weight="400" font-style="normal" 
>
</g>

<g fill="none" stroke="#000000" stroke-opacity="1" stroke-width="1" stroke-linecap="square" stroke-linejoin="bevel" transform="matrix(1.99818,0,0,1.99818,0,265)"
font-family="Ubuntu" font-size="11" font-weight="400" font-style="normal" 
>
</g>

<g fill="none" stroke="#000000" stroke-opacity="1" stroke-width="1" stroke-linecap="square" stroke-linejoin="bevel" transform="matrix(1.99818,0,0,1.99818,0,265)"
font-family="Ubuntu" font-size="11" font-weight="400" font-style="normal" 
>
</g>

<g fill="none" stroke="#000000" stroke-opacity="1" stroke-width="1" stroke-linecap="square" stroke-linejoin="bevel" transform="matrix(1.99818,0,0,1.99818,0,265)"
font-family="Ubuntu" font-size="11" font-weight="400" font-style="normal" 
>
</g>

<g fill="none" stroke="#000000" stroke-opacity="1" stroke-width="1" stroke-linecap="square" stroke-linejoin="round" transform="matrix(1.99818,0,0,1.99818,0,265)"
font-family="Ubuntu" font-size="11" font-weight="400" font-style="normal" 
>
<ellipse cx="477.88" cy="-72" rx="34.5968" ry="17.5"/>
</g>

<g fill="none" stroke="#000000" stroke-opacity="1" stroke-width="1" stroke-linecap="square" stroke-linejoin="bevel" transform="matrix(1.99818,0,0,1.99818,0,265)"
font-family="Ubuntu" font-size="11" font-weight="400" font-style="normal" 
>
</g>

<g fill="none" stroke="#000000" stroke-opacity="1" stroke-width="1" stroke-linecap="square" stroke-linejoin="bevel" transform="matrix(1.99818,0,0,1.99818,915.269,107.144)"
font-family="Ubuntu" font-size="11" font-weight="400" font-style="normal" 
>
</g>

<g fill="none" stroke="#000000" stroke-opacity="1" stroke-width="1" stroke-linecap="square" stroke-linejoin="bevel" transform="matrix(1.99818,0,0,1.99818,915.269,107.144)"
font-family="sans" font-size="11" font-weight="100" font-style="normal" 
>
</g>

<g fill="#000000" fill-opacity="1" stroke="#000000" stroke-opacity="1" stroke-width="1" stroke-linecap="square" stroke-linejoin="round" transform="matrix(1.99818,0,0,1.99818,915.269,107.144)"
font-family="sans" font-size="11" font-weight="100" font-style="normal" 
>
<path vector-effect="none" fill-rule="nonzero" d="M2.79688,2.98438 L3.70313,2.98438 L0.90625,12.0156 L0,12.0156 L2.79688,2.98438 M8.21875,5.90625 C8.11458,5.84375 7.9974,5.79688 7.86719,5.76563 C7.73698,5.73438 7.59375,5.71875 7.4375,5.71875 C6.875,5.71875 6.44531,5.90104 6.14844,6.26563 C5.85156,6.63021 5.70313,7.15104 5.70313,7.82813 L5.70313,11 L4.70313,11 L4.70313,4.98438 L5.70313,4.98438 L5.70313,5.92188 C5.90104,5.55729 6.16667,5.28646 6.5,5.10938 C6.83333,4.93229 7.23958,4.84375 7.71875,4.84375 C7.79167,4.84375 7.86719,4.84635 7.94531,4.85156 C8.02344,4.85677 8.11458,4.86979 8.21875,4.89063 L8.21875,5.90625 M11.5938,5.67188 C11.0625,5.67188 10.6432,5.88021 10.3359,6.29688 C10.0286,6.71354 9.875,7.28125 9.875,8 C9.875,8.71875 10.026,9.28385 10.3281,9.69531 C10.6302,10.1068 11.0521,10.3125 11.5938,10.3125 C12.1146,10.3125 12.5286,10.1068 12.8359,9.69531 C13.1432,9.28385 13.2969,8.71875 13.2969,8 C13.2969,7.28125 13.1432,6.71354 12.8359,6.29688 C12.5286,5.88021 12.1146,5.67188 11.5938,5.67188 M11.5938,4.84375 C12.4479,4.84375 13.1198,5.1224 13.6094,5.67969 C14.099,6.23698 14.3438,7.01042 14.3438,8 C14.3438,8.97917 14.099,9.75 13.6094,10.3125 C13.1198,10.875 12.4479,11.1563 11.5938,11.1563 C10.7292,11.1563 10.0521,10.875 9.5625,10.3125 C9.07292,9.75 8.82813,8.97917 8.82813,8 C8.82813,7.01042 9.07292,6.23698 9.5625,5.67969 C10.0521,5.1224 10.7292,4.84375 11.5938,4.84375 M19.8125,5.15625 L19.8125,6.09375 C19.5313,5.94792 19.2396,5.84115 18.9375,5.77344 C18.6354,5.70573 18.3229,5.67188 18,5.67188 C17.5104,5.67188 17.1432,5.7474 16.8984,5.89844 C16.6536,6.04948 16.5313,6.27083 16.5313,6.5625 C16.5313,6.79167 16.6198,6.97135 16.7969,7.10156 C16.974,7.23177 17.3281,7.35938 17.8594,7.48438 L18.1875,7.5625 C18.8958,7.70833 19.3958,7.91927 19.6875,8.19531 C19.9792,8.47135 20.125,8.85417 20.125,9.34375 C20.125,9.89583 19.9063,10.3359 19.4688,10.6641 C19.0313,10.9922 18.4219,11.1563 17.6406,11.1563 C17.3177,11.1563 16.9818,11.125 16.6328,11.0625 C16.2839,11 15.9167,10.9063 15.5313,10.7813 L15.5313,9.76563 C15.8958,9.95313 16.2552,10.0938 16.6094,10.1875 C16.9635,10.2813 17.3177,10.3281 17.6719,10.3281 C18.1302,10.3281 18.4844,10.2474 18.7344,10.0859 C18.9844,9.92448 19.1094,9.70313 19.1094,9.42188 C19.1094,9.15104 19.0208,8.94271 18.8438,8.79688 C18.6667,8.65104 18.2708,8.51563 17.6563,8.39063 L17.3125,8.29688 C16.6979,8.17188 16.2552,7.97656 15.9844,7.71094 C15.7135,7.44531 15.5781,7.07813 15.5781,6.60938 C15.5781,6.04688 15.7786,5.61198 16.1797,5.30469 C16.5807,4.9974 17.151,4.84375 17.8906,4.84375 C18.2552,4.84375 18.599,4.86979 18.9219,4.92188 C19.2448,4.97396 19.5417,5.05208 19.8125,5.15625 M24.0313,5.67188 C23.5,5.67188 23.0807,5.88021 22.7734,6.29688 C22.4661,6.71354 22.3125,7.28125 22.3125,8 C22.3125,8.71875 22.4635,9.28385 22.7656,9.69531 C23.0677,10.1068 23.4896,10.3125 24.0313,10.3125 C24.5521,10.3125 24.9661,10.1068 25.2734,9.69531 C25.5807,9.28385 25.7344,8.71875 25.7344,8 C25.7344,7.28125 25.5807,6.71354 25.2734,6.29688 C24.9661,5.88021 24.5521,5.67188 24.0313,5.67188 M24.0313,4.84375 C24.8854,4.84375 25.5573,5.1224 26.0469,5.67969 C26.5365,6.23698 26.7813,7.01042 26.7813,8 C26.7813,8.97917 26.5365,9.75 26.0469,10.3125 C25.5573,10.875 24.8854,11.1563 24.0313,11.1563 C23.1667,11.1563 22.4896,10.875 22,10.3125 C21.5104,9.75 21.2656,8.97917 21.2656,8 C21.2656,7.01042 21.5104,6.23698 22,5.67969 C22.4896,5.1224 23.1667,4.84375 24.0313,4.84375 M28.3125,8.625 L28.3125,4.98438 L29.2969,4.98438 L29.2969,8.59375 C29.2969,9.15625 29.4089,9.58073 29.6328,9.86719 C29.8568,10.1536 30.1875,10.2969 30.625,10.2969 C31.1667,10.2969 31.5911,10.1276 31.8984,9.78906 C32.2057,9.45052 32.3594,8.98438 32.3594,8.39063 L32.3594,4.98438 L33.3438,4.98438 L33.3438,11 L32.3594,11 L32.3594,10.0781 C32.1198,10.4427 31.8411,10.7135 31.5234,10.8906 C31.2057,11.0677 30.8385,11.1563 30.4219,11.1563 C29.7344,11.1563 29.2109,10.9401 28.8516,10.5078 C28.4922,10.0755 28.3125,9.44792 28.3125,8.625 M36.3594,3.28125 L36.3594,4.98438 L38.3906,4.98438 L38.3906,5.75 L36.3594,5.75 L36.3594,9.01563 C36.3594,9.50521 36.4271,9.82031 36.5625,9.96094 C36.6979,10.1016 36.9688,10.1719 37.375,10.1719 L38.3906,10.1719 L38.3906,11 L37.375,11 C36.6146,11 36.0885,10.8568 35.7969,10.5703 C35.5052,10.2839 35.3594,9.76563 35.3594,9.01563 L35.3594,5.75 L34.6406,5.75 L34.6406,4.98438 L35.3594,4.98438 L35.3594,3.28125 L36.3594,3.28125"/>
</g>

<g fill="none" stroke="#000000" stroke-opacity="1" stroke-width="1" stroke-linecap="square" stroke-linejoin="bevel" transform="matrix(1.99818,0,0,1.99818,915.269,107.144)"
font-family="sans" font-size="11" font-weight="100" font-style="normal" 
>
</g>

<g fill="none" stroke="#000000" stroke-opacity="1" stroke-width="1" stroke-linecap="square" stroke-linejoin="bevel" transform="matrix(1.99818,0,0,1.99818,915.269,107.144)"
font-family="Ubuntu" font-size="11" font-weight="400" font-style="normal" 
>
</g>

<g fill="none" stroke="#000000" stroke-opacity="1" stroke-width="1" stroke-linecap="square" stroke-linejoin="bevel" transform="matrix(1.99818,0,0,1.99818,0,265)"
font-family="Ubuntu" font-size="11" font-weight="400" font-style="normal" 
>
</g>

<g fill="none" stroke="#000000" stroke-opacity="1" stroke-width="1" stroke-linecap="square" stroke-linejoin="bevel" transform="matrix(1.99818,0,0,1.99818,0,265)"
font-family="Ubuntu" font-size="11" font-weight="400" font-style="normal" 
>
</g>

<g fill="none" stroke="#000000" stroke-opacity="1" stroke-width="1" stroke-linecap="square" stroke-linejoin="bevel" transform="matrix(1.99818,0,0,1.99818,0,265)"
font-family="Ubuntu" font-size="11" font-weight="400" font-style="normal" 
>
</g>

<g fill="none" stroke="#000000" stroke-opacity="1" stroke-width="1" stroke-linecap="square" stroke-linejoin="round" transform="matrix(1.99818,0,0,1.99818,0,265)"
font-family="Ubuntu" font-size="11" font-weight="400" font-style="normal" 
>
<ellipse cx="265.89" cy="-72" rx="26.5" ry="17.5"/>
</g>

<g fill="none" stroke="#000000" stroke-opacity="1" stroke-width="1" stroke-linecap="square" stroke-linejoin="bevel" transform="matrix(1.99818,0,0,1.99818,0,265)"
font-family="Ubuntu" font-size="11" font-weight="400" font-style="normal" 
>
</g>

<g fill="none" stroke="#000000" stroke-opacity="1" stroke-width="1" stroke-linecap="square" stroke-linejoin="bevel" transform="matrix(1.99818,0,0,1.99818,507.785,107.144)"
font-family="Ubuntu" font-size="11" font-weight="400" font-style="normal" 
>
</g>

<g fill="none" stroke="#000000" stroke-opacity="1" stroke-width="1" stroke-linecap="square" stroke-linejoin="bevel" transform="matrix(1.99818,0,0,1.99818,507.785,107.144)"
font-family="sans" font-size="11" font-weight="100" font-style="normal" 
>
</g>

<g fill="#000000" fill-opacity="1" stroke="#000000" stroke-opacity="1" stroke-width="1" stroke-linecap="square" stroke-linejoin="round" transform="matrix(1.99818,0,0,1.99818,507.785,107.144)"
font-family="sans" font-size="11" font-weight="100" font-style="normal" 
>
<path vector-effect="none" fill-rule="nonzero" d="M2.79688,2.98438 L3.70313,2.98438 L0.90625,12.0156 L0,12.0156 L2.79688,2.98438 M8.21875,5.90625 C8.11458,5.84375 7.9974,5.79688 7.86719,5.76563 C7.73698,5.73438 7.59375,5.71875 7.4375,5.71875 C6.875,5.71875 6.44531,5.90104 6.14844,6.26563 C5.85156,6.63021 5.70313,7.15104 5.70313,7.82813 L5.70313,11 L4.70313,11 L4.70313,4.98438 L5.70313,4.98438 L5.70313,5.92188 C5.90104,5.55729 6.16667,5.28646 6.5,5.10938 C6.83333,4.93229 7.23958,4.84375 7.71875,4.84375 C7.79167,4.84375 7.86719,4.84635 7.94531,4.85156 C8.02344,4.85677 8.11458,4.86979 8.21875,4.89063 L8.21875,5.90625 M8.54688,4.98438 L9.59375,4.98438 L11.4688,10.0313 L13.3594,4.98438 L14.4063,4.98438 L12.1406,11 L10.7969,11 L8.54688,4.98438 M15.75,4.98438 L16.75,4.98438 L16.75,11 L15.75,11 L15.75,4.98438 M15.75,2.64063 L16.75,2.64063 L16.75,3.89063 L15.75,3.89063 L15.75,2.64063 M18.375,4.98438 L23.0625,4.98438 L23.0625,5.89063 L19.3438,10.2031 L23.0625,10.2031 L23.0625,11 L18.2344,11 L18.2344,10.0938 L21.9531,5.78125 L18.375,5.78125 L18.375,4.98438"/>
</g>

<g fill="none" stroke="#000000" stroke-opacity="1" stroke-width="1" stroke-linecap="square" stroke-linejoin="bevel" transform="matrix(1.99818,0,0,1.99818,507.785,107.144)"
font-family="sans" font-size="11" font-weight="100" font-style="normal" 
>
</g>

<g fill="none" stroke="#000000" stroke-opacity="1" stroke-width="1" stroke-linecap="square" stroke-linejoin="bevel" transform="matrix(1.99818,0,0,1.99818,507.785,107.144)"
font-family="Ubuntu" font-size="11" font-weight="400" font-style="normal" 
>
</g>

<g fill="none" stroke="#000000" stroke-opacity="1" stroke-width="1" stroke-linecap="square" stroke-linejoin="bevel" transform="matrix(1.99818,0,0,1.99818,0,265)"
font-family="Ubuntu" font-size="11" font-weight="400" font-style="normal" 
>
</g>

<g fill="none" stroke="#000000" stroke-opacity="1" stroke-width="1" stroke-linecap="square" stroke-linejoin="bevel" transform="matrix(1.99818,0,0,1.99818,0,265)"
font-family="Ubuntu" font-size="11" font-weight="400" font-style="normal" 
>
</g>

<g fill="none" stroke="#000000" stroke-opacity="1" stroke-width="1" stroke-linecap="square" stroke-linejoin="bevel" transform="matrix(1.99818,0,0,1.99818,0,265)"
font-family="Ubuntu" font-size="11" font-weight="400" font-style="normal" 
>
</g>

<g fill="none" stroke="#000000" stroke-opacity="1" stroke-width="1" stroke-linecap="square" stroke-linejoin="round" transform="matrix(1.99818,0,0,1.99818,0,265)"
font-family="Ubuntu" font-size="11" font-weight="400" font-style="normal" 
>
<rect x="375.28" y="-89.5" width="53" height="35"/>
</g>

<g fill="none" stroke="#000000" stroke-opacity="1" stroke-width="1" stroke-linecap="square" stroke-linejoin="bevel" transform="matrix(1.99818,0,0,1.99818,0,265)"
font-family="Ubuntu" font-size="11" font-weight="400" font-style="normal" 
>
</g>

<g fill="none" stroke="#000000" stroke-opacity="1" stroke-width="1" stroke-linecap="square" stroke-linejoin="bevel" transform="matrix(1.99818,0,0,1.99818,763.207,107.144)"
font-family="Ubuntu" font-size="11" font-weight="400" font-style="normal" 
>
</g>

<g fill="none" stroke="#000000" stroke-opacity="1" stroke-width="1" stroke-linecap="square" stroke-linejoin="bevel" transform="matrix(1.99818,0,0,1.99818,763.207,107.144)"
font-family="sans" font-size="11" font-weight="100" font-style="normal" 
>
</g>

<g fill="#000000" fill-opacity="1" stroke="#000000" stroke-opacity="1" stroke-width="1" stroke-linecap="square" stroke-linejoin="round" transform="matrix(1.99818,0,0,1.99818,763.207,107.144)"
font-family="sans" font-size="11" font-weight="100" font-style="normal" 
>
<path vector-effect="none" fill-rule="nonzero" d="M2.79688,2.98438 L3.70313,2.98438 L0.90625,12.0156 L0,12.0156 L2.79688,2.98438 M8.21875,5.90625 C8.11458,5.84375 7.9974,5.79688 7.86719,5.76563 C7.73698,5.73438 7.59375,5.71875 7.4375,5.71875 C6.875,5.71875 6.44531,5.90104 6.14844,6.26563 C5.85156,6.63021 5.70313,7.15104 5.70313,7.82813 L5.70313,11 L4.70313,11 L4.70313,4.98438 L5.70313,4.98438 L5.70313,5.92188 C5.90104,5.55729 6.16667,5.28646 6.5,5.10938 C6.83333,4.93229 7.23958,4.84375 7.71875,4.84375 C7.79167,4.84375 7.86719,4.84635 7.94531,4.85156 C8.02344,4.85677 8.11458,4.86979 8.21875,4.89063 L8.21875,5.90625 M11.5938,5.67188 C11.0625,5.67188 10.6432,5.88021 10.3359,6.29688 C10.0286,6.71354 9.875,7.28125 9.875,8 C9.875,8.71875 10.026,9.28385 10.3281,9.69531 C10.6302,10.1068 11.0521,10.3125 11.5938,10.3125 C12.1146,10.3125 12.5286,10.1068 12.8359,9.69531 C13.1432,9.28385 13.2969,8.71875 13.2969,8 C13.2969,7.28125 13.1432,6.71354 12.8359,6.29688 C12.5286,5.88021 12.1146,5.67188 11.5938,5.67188 M11.5938,4.84375 C12.4479,4.84375 13.1198,5.1224 13.6094,5.67969 C14.099,6.23698 14.3438,7.01042 14.3438,8 C14.3438,8.97917 14.099,9.75 13.6094,10.3125 C13.1198,10.875 12.4479,11.1563 11.5938,11.1563 C10.7292,11.1563 10.0521,10.875 9.5625,10.3125 C9.07292,9.75 8.82813,8.97917 8.82813,8 C8.82813,7.01042 9.07292,6.23698 9.5625,5.67969 C10.0521,5.1224 10.7292,4.84375 11.5938,4.84375 M19.8125,5.15625 L19.8125,6.09375 C19.5313,5.94792 19.2396,5.84115 18.9375,5.77344 C18.6354,5.70573 18.3229,5.67188 18,5.67188 C17.5104,5.67188 17.1432,5.7474 16.8984,5.89844 C16.6536,6.04948 16.5313,6.27083 16.5313,6.5625 C16.5313,6.79167 16.6198,6.97135 16.7969,7.10156 C16.974,7.23177 17.3281,7.35938 17.8594,7.48438 L18.1875,7.5625 C18.8958,7.70833 19.3958,7.91927 19.6875,8.19531 C19.9792,8.47135 20.125,8.85417 20.125,9.34375 C20.125,9.89583 19.9063,10.3359 19.4688,10.6641 C19.0313,10.9922 18.4219,11.1563 17.6406,11.1563 C17.3177,11.1563 16.9818,11.125 16.6328,11.0625 C16.2839,11 15.9167,10.9063 15.5313,10.7813 L15.5313,9.76563 C15.8958,9.95313 16.2552,10.0938 16.6094,10.1875 C16.9635,10.2813 17.3177,10.3281 17.6719,10.3281 C18.1302,10.3281 18.4844,10.2474 18.7344,10.0859 C18.9844,9.92448 19.1094,9.70313 19.1094,9.42188 C19.1094,9.15104 19.0208,8.94271 18.8438,8.79688 C18.6667,8.65104 18.2708,8.51563 17.6563,8.39063 L17.3125,8.29688 C16.6979,8.17188 16.2552,7.97656 15.9844,7.71094 C15.7135,7.44531 15.5781,7.07813 15.5781,6.60938 C15.5781,6.04688 15.7786,5.61198 16.1797,5.30469 C16.5807,4.9974 17.151,4.84375 17.8906,4.84375 C18.2552,4.84375 18.599,4.86979 18.9219,4.92188 C19.2448,4.97396 19.5417,5.05208 19.8125,5.15625 M24.0313,5.67188 C23.5,5.67188 23.0807,5.88021 22.7734,6.29688 C22.4661,6.71354 22.3125,7.28125 22.3125,8 C22.3125,8.71875 22.4635,9.28385 22.7656,9.69531 C23.0677,10.1068 23.4896,10.3125 24.0313,10.3125 C24.5521,10.3125 24.9661,10.1068 25.2734,9.69531 C25.5807,9.28385 25.7344,8.71875 25.7344,8 C25.7344,7.28125 25.5807,6.71354 25.2734,6.29688 C24.9661,5.88021 24.5521,5.67188 24.0313,5.67188 M24.0313,4.84375 C24.8854,4.84375 25.5573,5.1224 26.0469,5.67969 C26.5365,6.23698 26.7813,7.01042 26.7813,8 C26.7813,8.97917 26.5365,9.75 26.0469,10.3125 C25.5573,10.875 24.8854,11.1563 24.0313,11.1563 C23.1667,11.1563 22.4896,10.875 22,10.3125 C21.5104,9.75 21.2656,8.97917 21.2656,8 C21.2656,7.01042 21.5104,6.23698 22,5.67969 C22.4896,5.1224 23.1667,4.84375 24.0313,4.84375 M28.3125,8.625 L28.3125,4.98438 L29.2969,4.98438 L29.2969,8.59375 C29.2969,9.15625 29.4089,9.58073 29.6328,9.86719 C29.8568,10.1536 30.1875,10.2969 30.625,10.2969 C31.1667,10.2969 31.5911,10.1276 31.8984,9.78906 C32.2057,9.45052 32.3594,8.98438 32.3594,8.39063 L32.3594,4.98438 L33.3438,4.98438 L33.3438,11 L32.3594,11 L32.3594,10.0781 C32.1198,10.4427 31.8411,10.7135 31.5234,10.8906 C31.2057,11.0677 30.8385,11.1563 30.4219,11.1563 C29.7344,11.1563 29.2109,10.9401 28.8516,10.5078 C28.4922,10.0755 28.3125,9.44792 28.3125,8.625 M36.3594,3.28125 L36.3594,4.98438 L38.3906,4.98438 L38.3906,5.75 L36.3594,5.75 L36.3594,9.01563 C36.3594,9.50521 36.4271,9.82031 36.5625,9.96094 C36.6979,10.1016 36.9688,10.1719 37.375,10.1719 L38.3906,10.1719 L38.3906,11 L37.375,11 C36.6146,11 36.0885,10.8568 35.7969,10.5703 C35.5052,10.2839 35.3594,9.76563 35.3594,9.01563 L35.3594,5.75 L34.6406,5.75 L34.6406,4.98438 L35.3594,4.98438 L35.3594,3.28125 L36.3594,3.28125"/>
</g>

<g fill="none" stroke="#000000" stroke-opacity="1" stroke-width="1" stroke-linecap="square" stroke-linejoin="bevel" transform="matrix(1.99818,0,0,1.99818,763.207,107.144)"
font-family="sans" font-size="11" font-weight="100" font-style="normal" 
>
</g>

<g fill="none" stroke="#000000" stroke-opacity="1" stroke-width="1" stroke-linecap="square" stroke-linejoin="bevel" transform="matrix(1.99818,0,0,1.99818,763.207,107.144)"
font-family="Ubuntu" font-size="11" font-weight="400" font-style="normal" 
>
</g>

<g fill="none" stroke="#000000" stroke-opacity="1" stroke-width="1" stroke-linecap="square" stroke-linejoin="bevel" transform="matrix(1.99818,0,0,1.99818,0,265)"
font-family="Ubuntu" font-size="11" font-weight="400" font-style="normal" 
>
</g>

<g fill="none" stroke="#000000" stroke-opacity="1" stroke-width="1" stroke-linecap="square" stroke-linejoin="bevel" transform="matrix(1.99818,0,0,1.99818,0,265)"
font-family="Ubuntu" font-size="11" font-weight="400" font-style="normal" 
>
</g>

<g fill="none" stroke="#000000" stroke-opacity="1" stroke-width="1" stroke-linecap="square" stroke-linejoin="bevel" transform="matrix(1.99818,0,0,1.99818,0,265)"
font-family="Ubuntu" font-size="11" font-weight="400" font-style="normal" 
>
</g>

<g fill="none" stroke="#000000" stroke-opacity="1" stroke-width="1" stroke-linecap="square" stroke-linejoin="round" transform="matrix(1.99818,0,0,1.99818,0,265)"
font-family="Ubuntu" font-size="11" font-weight="400" font-style="normal" 
>
<path vector-effect="none" fill-rule="evenodd" d="M52.19,-88.224 C54.038,-87.727 55.938,-87.216 57.873,-86.695 "/>
</g>

<g fill="none" stroke="#000000" stroke-opacity="1" stroke-width="1" stroke-linecap="square" stroke-linejoin="bevel" transform="matrix(1.99818,0,0,1.99818,0,265)"
font-family="Ubuntu" font-size="11" font-weight="400" font-style="normal" 
>
</g>

<g fill="none" stroke="#000000" stroke-opacity="1" stroke-width="1" stroke-linecap="square" stroke-linejoin="bevel" transform="matrix(1.99818,0,0,1.99818,0,265)"
font-family="Ubuntu" font-size="11" font-weight="400" font-style="normal" 
>
</g>

<g fill="#000000" fill-opacity="1" stroke="#000000" stroke-opacity="1" stroke-width="1" stroke-linecap="square" stroke-linejoin="round" transform="matrix(1.99818,0,0,1.99818,0,265)"
font-family="Ubuntu" font-size="11" font-weight="400" font-style="normal" 
>
<path vector-effect="none" fill-rule="evenodd" d="M57.873,-86.695 L56.942,-83.2338 L67.762,-84.035 L58.804,-90.1561 L57.873,-86.695"/>
</g>

<g fill="none" stroke="#000000" stroke-opacity="1" stroke-width="1" stroke-linecap="square" stroke-linejoin="bevel" transform="matrix(1.99818,0,0,1.99818,0,265)"
font-family="Ubuntu" font-size="11" font-weight="400" font-style="normal" 
>
</g>

<g fill="none" stroke="#000000" stroke-opacity="1" stroke-width="1" stroke-linecap="square" stroke-linejoin="bevel" transform="matrix(1.99818,0,0,1.99818,0,265)"
font-family="Ubuntu" font-size="11" font-weight="400" font-style="normal" 
>
</g>

<g fill="none" stroke="#000000" stroke-opacity="1" stroke-width="1" stroke-linecap="square" stroke-linejoin="bevel" transform="matrix(1.99818,0,0,1.99818,0,265)"
font-family="Ubuntu" font-size="11" font-weight="400" font-style="normal" 
>
</g>

<g fill="none" stroke="#000000" stroke-opacity="1" stroke-width="1" stroke-linecap="square" stroke-linejoin="bevel" transform="matrix(1.99818,0,0,1.99818,0,265)"
font-family="Ubuntu" font-size="11" font-weight="400" font-style="normal" 
>
</g>

<g fill="none" stroke="#000000" stroke-opacity="1" stroke-width="1" stroke-linecap="square" stroke-linejoin="round" transform="matrix(1.99818,0,0,1.99818,0,265)"
font-family="Ubuntu" font-size="11" font-weight="400" font-style="normal" 
>
<path vector-effect="none" fill-rule="evenodd" d="M293.06,-72 C313.53,-72 341.81,-72 364.41,-72 "/>
</g>

<g fill="none" stroke="#000000" stroke-opacity="1" stroke-width="1" stroke-linecap="square" stroke-linejoin="bevel" transform="matrix(1.99818,0,0,1.99818,0,265)"
font-family="Ubuntu" font-size="11" font-weight="400" font-style="normal" 
>
</g>

<g fill="none" stroke="#000000" stroke-opacity="1" stroke-width="1" stroke-linecap="square" stroke-linejoin="bevel" transform="matrix(1.99818,0,0,1.99818,0,265)"
font-family="Ubuntu" font-size="11" font-weight="400" font-style="normal" 
>
</g>

<g fill="#000000" fill-opacity="1" stroke="#000000" stroke-opacity="1" stroke-width="1" stroke-linecap="square" stroke-linejoin="round" transform="matrix(1.99818,0,0,1.99818,0,265)"
font-family="Ubuntu" font-size="11" font-weight="400" font-style="normal" 
>
<path vector-effect="none" fill-rule="evenodd" d="M364.41,-72 L364.41,-68.4125 L374.66,-72 L364.41,-75.5875 L364.41,-72"/>
</g>

<g fill="none" stroke="#000000" stroke-opacity="1" stroke-width="1" stroke-linecap="square" stroke-linejoin="bevel" transform="matrix(1.99818,0,0,1.99818,0,265)"
font-family="Ubuntu" font-size="11" font-weight="400" font-style="normal" 
>
</g>

<g fill="none" stroke="#000000" stroke-opacity="1" stroke-width="1" stroke-linecap="square" stroke-linejoin="bevel" transform="matrix(1.99818,0,0,1.99818,0,265)"
font-family="Ubuntu" font-size="11" font-weight="400" font-style="normal" 
>
</g>

<g fill="none" stroke="#000000" stroke-opacity="1" stroke-width="1" stroke-linecap="square" stroke-linejoin="bevel" transform="matrix(1.99818,0,0,1.99818,0,265)"
font-family="Ubuntu" font-size="11" font-weight="400" font-style="normal" 
>
</g>

<g fill="none" stroke="#000000" stroke-opacity="1" stroke-width="1" stroke-linecap="square" stroke-linejoin="bevel" transform="matrix(1.99818,0,0,1.99818,0,265)"
font-family="Ubuntu" font-size="11" font-weight="400" font-style="normal" 
>
</g>

<g fill="none" stroke="#000000" stroke-opacity="1" stroke-width="1" stroke-linecap="square" stroke-linejoin="round" transform="matrix(1.99818,0,0,1.99818,0,265)"
font-family="Ubuntu" font-size="11" font-weight="400" font-style="normal" 
>
<path vector-effect="none" fill-rule="evenodd" d="M325.87,-32.059 C337.68,-35.661 349.81,-39.969 360.78,-45 C363.24,-46.126 365.72,-47.388 368.17,-48.734 "/>
</g>

<g fill="none" stroke="#000000" stroke-opacity="1" stroke-width="1" stroke-linecap="square" stroke-linejoin="bevel" transform="matrix(1.99818,0,0,1.99818,0,265)"
font-family="Ubuntu" font-size="11" font-weight="400" font-style="normal" 
>
</g>

<g fill="none" stroke="#000000" stroke-opacity="1" stroke-width="1" stroke-linecap="square" stroke-linejoin="bevel" transform="matrix(1.99818,0,0,1.99818,0,265)"
font-family="Ubuntu" font-size="11" font-weight="400" font-style="normal" 
>
</g>

<g fill="#000000" fill-opacity="1" stroke="#000000" stroke-opacity="1" stroke-width="1" stroke-linecap="square" stroke-linejoin="round" transform="matrix(1.99818,0,0,1.99818,0,265)"
font-family="Ubuntu" font-size="11" font-weight="400" font-style="normal" 
>
<path vector-effect="none" fill-rule="evenodd" d="M368.17,-48.734 L369.974,-45.682 L376.89,-53.889 L366.366,-51.786 L368.17,-48.734"/>
</g>

<g fill="none" stroke="#000000" stroke-opacity="1" stroke-width="1" stroke-linecap="square" stroke-linejoin="bevel" transform="matrix(1.99818,0,0,1.99818,0,265)"
font-family="Ubuntu" font-size="11" font-weight="400" font-style="normal" 
>
</g>

<g fill="none" stroke="#000000" stroke-opacity="1" stroke-width="1" stroke-linecap="square" stroke-linejoin="bevel" transform="matrix(1.99818,0,0,1.99818,0,265)"
font-family="Ubuntu" font-size="11" font-weight="400" font-style="normal" 
>
</g>

<g fill="none" stroke="#000000" stroke-opacity="1" stroke-width="1" stroke-linecap="square" stroke-linejoin="bevel" transform="matrix(1.99818,0,0,1.99818,0,265)"
font-family="Ubuntu" font-size="11" font-weight="400" font-style="normal" 
>
</g>

<g fill="none" stroke="#000000" stroke-opacity="1" stroke-width="1" stroke-linecap="square" stroke-linejoin="bevel" transform="matrix(1.99818,0,0,1.99818,0,265)"
font-family="Ubuntu" font-size="11" font-weight="400" font-style="normal" 
>
</g>

<g fill="none" stroke="#000000" stroke-opacity="1" stroke-width="1" stroke-linecap="square" stroke-linejoin="round" transform="matrix(1.99818,0,0,1.99818,0,265)"
font-family="Ubuntu" font-size="11" font-weight="400" font-style="normal" 
>
<path vector-effect="none" fill-rule="evenodd" d="M157.28,-72 C179.93,-72 207.09,-72 228.59,-72 "/>
</g>

<g fill="none" stroke="#000000" stroke-opacity="1" stroke-width="1" stroke-linecap="square" stroke-linejoin="bevel" transform="matrix(1.99818,0,0,1.99818,0,265)"
font-family="Ubuntu" font-size="11" font-weight="400" font-style="normal" 
>
</g>

<g fill="none" stroke="#000000" stroke-opacity="1" stroke-width="1" stroke-linecap="square" stroke-linejoin="bevel" transform="matrix(1.99818,0,0,1.99818,0,265)"
font-family="Ubuntu" font-size="11" font-weight="400" font-style="normal" 
>
</g>

<g fill="#000000" fill-opacity="1" stroke="#000000" stroke-opacity="1" stroke-width="1" stroke-linecap="square" stroke-linejoin="round" transform="matrix(1.99818,0,0,1.99818,0,265)"
font-family="Ubuntu" font-size="11" font-weight="400" font-style="normal" 
>
<path vector-effect="none" fill-rule="evenodd" d="M228.59,-72 L228.59,-68.4825 L238.64,-72 L228.59,-75.5175 L228.59,-72"/>
</g>

<g fill="none" stroke="#000000" stroke-opacity="1" stroke-width="1" stroke-linecap="square" stroke-linejoin="bevel" transform="matrix(1.99818,0,0,1.99818,0,265)"
font-family="Ubuntu" font-size="11" font-weight="400" font-style="normal" 
>
</g>

<g fill="none" stroke="#000000" stroke-opacity="1" stroke-width="1" stroke-linecap="square" stroke-linejoin="bevel" transform="matrix(1.99818,0,0,1.99818,0,265)"
font-family="Ubuntu" font-size="11" font-weight="400" font-style="normal" 
>
</g>

<g fill="none" stroke="#000000" stroke-opacity="1" stroke-width="1" stroke-linecap="square" stroke-linejoin="bevel" transform="matrix(1.99818,0,0,1.99818,0,265)"
font-family="Ubuntu" font-size="11" font-weight="400" font-style="normal" 
>
</g>

<g fill="none" stroke="#000000" stroke-opacity="1" stroke-width="1" stroke-linecap="square" stroke-linejoin="bevel" transform="matrix(1.99818,0,0,1.99818,0,265)"
font-family="Ubuntu" font-size="11" font-weight="400" font-style="normal" 
>
</g>

<g fill="none" stroke="#000000" stroke-opacity="1" stroke-width="1" stroke-linecap="square" stroke-linejoin="round" transform="matrix(1.99818,0,0,1.99818,0,265)"
font-family="Ubuntu" font-size="11" font-weight="400" font-style="normal" 
>
<path vector-effect="none" fill-rule="evenodd" d="M428.83,-72 C429.94,-72 431.06,-72 432.2,-72 "/>
</g>

<g fill="none" stroke="#000000" stroke-opacity="1" stroke-width="1" stroke-linecap="square" stroke-linejoin="bevel" transform="matrix(1.99818,0,0,1.99818,0,265)"
font-family="Ubuntu" font-size="11" font-weight="400" font-style="normal" 
>
</g>

<g fill="none" stroke="#000000" stroke-opacity="1" stroke-width="1" stroke-linecap="square" stroke-linejoin="bevel" transform="matrix(1.99818,0,0,1.99818,0,265)"
font-family="Ubuntu" font-size="11" font-weight="400" font-style="normal" 
>
</g>

<g fill="#000000" fill-opacity="1" stroke="#000000" stroke-opacity="1" stroke-width="1" stroke-linecap="square" stroke-linejoin="round" transform="matrix(1.99818,0,0,1.99818,0,265)"
font-family="Ubuntu" font-size="11" font-weight="400" font-style="normal" 
>
<path vector-effect="none" fill-rule="evenodd" d="M432.2,-72 L432.2,-68.381 L442.54,-72 L432.2,-75.619 L432.2,-72"/>
</g>

<g fill="none" stroke="#000000" stroke-opacity="1" stroke-width="1" stroke-linecap="square" stroke-linejoin="bevel" transform="matrix(1.99818,0,0,1.99818,0,265)"
font-family="Ubuntu" font-size="11" font-weight="400" font-style="normal" 
>
</g>

<g fill="none" stroke="#000000" stroke-opacity="1" stroke-width="1" stroke-linecap="square" stroke-linejoin="bevel" transform="matrix(1.99818,0,0,1.99818,0,265)"
font-family="Ubuntu" font-size="11" font-weight="400" font-style="normal" 
>
</g>

<g fill="none" stroke="#000000" stroke-opacity="1" stroke-width="1" stroke-linecap="square" stroke-linejoin="bevel" transform="matrix(1.99818,0,0,1.99818,0,265)"
font-family="Ubuntu" font-size="11" font-weight="400" font-style="normal" 
>
</g>

<g fill="none" stroke="#000000" stroke-opacity="1" stroke-width="1" stroke-linecap="square" stroke-linejoin="bevel" transform="matrix(1.99818,0,0,1.99818,0,265)"
font-family="Ubuntu" font-size="11" font-weight="400" font-style="normal" 
>
</g>

<g fill="none" stroke="#000000" stroke-opacity="1" stroke-width="1" stroke-linecap="square" stroke-linejoin="round" transform="matrix(1.99818,0,0,1.99818,0,265)"
font-family="Ubuntu" font-size="11" font-weight="400" font-style="normal" 
>
<path vector-effect="none" fill-rule="evenodd" d="M52.844,-100.43 C109.9,-111.33 250.31,-132.11 360.78,-99 C363.97,-98.046 367.13,-96.756 370.21,-95.254 "/>
</g>

<g fill="none" stroke="#000000" stroke-opacity="1" stroke-width="1" stroke-linecap="square" stroke-linejoin="bevel" transform="matrix(1.99818,0,0,1.99818,0,265)"
font-family="Ubuntu" font-size="11" font-weight="400" font-style="normal" 
>
</g>

<g fill="none" stroke="#000000" stroke-opacity="1" stroke-width="1" stroke-linecap="square" stroke-linejoin="bevel" transform="matrix(1.99818,0,0,1.99818,0,265)"
font-family="Ubuntu" font-size="11" font-weight="400" font-style="normal" 
>
</g>

<g fill="#000000" fill-opacity="1" stroke="#000000" stroke-opacity="1" stroke-width="1" stroke-linecap="square" stroke-linejoin="round" transform="matrix(1.99818,0,0,1.99818,0,265)"
font-family="Ubuntu" font-size="11" font-weight="400" font-style="normal" 
>
<path vector-effect="none" fill-rule="evenodd" d="M370.21,-95.254 L368.455,-92.1355 L379.12,-90.24 L371.965,-98.3725 L370.21,-95.254"/>
</g>

<g fill="none" stroke="#000000" stroke-opacity="1" stroke-width="1" stroke-linecap="square" stroke-linejoin="bevel" transform="matrix(1.99818,0,0,1.99818,0,265)"
font-family="Ubuntu" font-size="11" font-weight="400" font-style="normal" 
>
</g>

<g fill="none" stroke="#000000" stroke-opacity="1" stroke-width="1" stroke-linecap="square" stroke-linejoin="bevel" transform="matrix(1,0,0,1,0,0)"
font-family="Ubuntu" font-size="11" font-weight="400" font-style="normal" 
>
</g>
</g>
</svg>
