<?xml version="1.0" encoding="UTF-8" standalone="no"?>
<svg width="173.567mm" height="25.4mm"
 xmlns="http://www.w3.org/2000/svg" xmlns:xlink="http://www.w3.org/1999/xlink"  version="1.2" baseProfile="tiny">
<title>Qt SVG Document</title>
<desc>Generated with Qt</desc>
<defs>
</defs>
<g fill="none" stroke="black" stroke-width="1" fill-rule="evenodd" stroke-linecap="square" stroke-linejoin="bevel" >

<g fill="none" stroke="#000000" stroke-opacity="1" stroke-width="1" stroke-linecap="square" stroke-linejoin="bevel" transform="matrix(1,0,0,1,0,0)"
font-family="Ubuntu" font-size="11" font-weight="400" font-style="normal" 
>
</g>

<g fill="none" stroke="#000000" stroke-opacity="1" stroke-width="1" stroke-linecap="square" stroke-linejoin="bevel" transform="matrix(1,0,0,1,0,0)"
font-family="Ubuntu" font-size="11" font-weight="400" font-style="normal" 
>
</g>

<g fill="none" stroke="#000000" stroke-opacity="1" stroke-width="1" stroke-linecap="square" stroke-linejoin="bevel" transform="matrix(1.9993,0,0,1.9993,0,71.9748)"
font-family="Ubuntu" font-size="11" font-weight="400" font-style="normal" 
>
</g>

<g fill="#ffffff" fill-opacity="1" stroke="none" transform="matrix(1.9993,0,0,1.9993,0,71.9748)"
font-family="Ubuntu" font-size="11" font-weight="400" font-style="normal" 
>
<rect x="0" y="-36" width="246.086" height="36"/>
</g>

<g fill="none" stroke="#000000" stroke-opacity="1" stroke-width="1" stroke-linecap="square" stroke-linejoin="bevel" transform="matrix(1.9993,0,0,1.9993,0,71.9748)"
font-family="Ubuntu" font-size="11" font-weight="400" font-style="normal" 
>
</g>

<g fill="none" stroke="#000000" stroke-opacity="1" stroke-width="1" stroke-linecap="square" stroke-linejoin="bevel" transform="matrix(1.9993,0,0,1.9993,0,71.9748)"
font-family="Ubuntu" font-size="11" font-weight="400" font-style="normal" 
>
</g>

<g fill="none" stroke="#000000" stroke-opacity="1" stroke-width="1" stroke-linecap="square" stroke-linejoin="bevel" transform="matrix(1.9993,0,0,1.9993,0,71.9748)"
font-family="Ubuntu" font-size="11" font-weight="400" font-style="normal" 
>
</g>

<g fill="none" stroke="#000000" stroke-opacity="1" stroke-width="1" stroke-linecap="square" stroke-linejoin="bevel" transform="matrix(1.9993,0,0,1.9993,0,71.9748)"
font-family="Ubuntu" font-size="11" font-weight="400" font-style="normal" 
>
</g>

<g fill="none" stroke="#000000" stroke-opacity="1" stroke-width="1" stroke-linecap="square" stroke-linejoin="round" transform="matrix(1.9993,0,0,1.9993,0,71.9748)"
font-family="Ubuntu" font-size="11" font-weight="400" font-style="normal" 
>
<ellipse cx="209.69" cy="-18" rx="35.896" ry="17.5"/>
</g>

<g fill="none" stroke="#000000" stroke-opacity="1" stroke-width="1" stroke-linecap="square" stroke-linejoin="bevel" transform="matrix(1.9993,0,0,1.9993,0,71.9748)"
font-family="Ubuntu" font-size="11" font-weight="400" font-style="normal" 
>
</g>

<g fill="none" stroke="#000000" stroke-opacity="1" stroke-width="1" stroke-linecap="square" stroke-linejoin="bevel" transform="matrix(1.9993,0,0,1.9993,378.638,21.9923)"
font-family="Ubuntu" font-size="11" font-weight="400" font-style="normal" 
>
</g>

<g fill="none" stroke="#000000" stroke-opacity="1" stroke-width="1" stroke-linecap="square" stroke-linejoin="bevel" transform="matrix(1.9993,0,0,1.9993,378.638,21.9923)"
font-family="sans" font-size="11" font-weight="100" font-style="normal" 
>
</g>

<g fill="#000000" fill-opacity="1" stroke="#000000" stroke-opacity="1" stroke-width="1" stroke-linecap="square" stroke-linejoin="round" transform="matrix(1.9993,0,0,1.9993,378.638,21.9923)"
font-family="sans" font-size="11" font-weight="100" font-style="normal" 
>
<path vector-effect="none" fill-rule="nonzero" d="M2.79688,2.98438 L3.70313,2.98438 L0.90625,12.0156 L0,12.0156 L2.79688,2.98438 M5.71875,3.28125 L5.71875,4.98438 L7.75,4.98438 L7.75,5.75 L5.71875,5.75 L5.71875,9.01563 C5.71875,9.50521 5.78646,9.82031 5.92188,9.96094 C6.05729,10.1016 6.32813,10.1719 6.73438,10.1719 L7.75,10.1719 L7.75,11 L6.73438,11 C5.97396,11 5.44792,10.8568 5.15625,10.5703 C4.86458,10.2839 4.71875,9.76563 4.71875,9.01563 L4.71875,5.75 L4,5.75 L4,4.98438 L4.71875,4.98438 L4.71875,3.28125 L5.71875,3.28125 M8.95313,8.625 L8.95313,4.98438 L9.9375,4.98438 L9.9375,8.59375 C9.9375,9.15625 10.0495,9.58073 10.2734,9.86719 C10.4974,10.1536 10.8281,10.2969 11.2656,10.2969 C11.8073,10.2969 12.2318,10.1276 12.5391,9.78906 C12.8464,9.45052 13,8.98438 13,8.39063 L13,4.98438 L13.9844,4.98438 L13.9844,11 L13,11 L13,10.0781 C12.7604,10.4427 12.4818,10.7135 12.1641,10.8906 C11.8464,11.0677 11.4792,11.1563 11.0625,11.1563 C10.375,11.1563 9.85156,10.9401 9.49219,10.5078 C9.13281,10.0755 8.95313,9.44792 8.95313,8.625 M19.5,5.90625 C19.3958,5.84375 19.2786,5.79688 19.1484,5.76563 C19.0182,5.73438 18.875,5.71875 18.7188,5.71875 C18.1563,5.71875 17.7266,5.90104 17.4297,6.26563 C17.1328,6.63021 16.9844,7.15104 16.9844,7.82813 L16.9844,11 L15.9844,11 L15.9844,4.98438 L16.9844,4.98438 L16.9844,5.92188 C17.1823,5.55729 17.4479,5.28646 17.7813,5.10938 C18.1146,4.93229 18.5208,4.84375 19,4.84375 C19.0729,4.84375 19.1484,4.84635 19.2266,4.85156 C19.3047,4.85677 19.3958,4.86979 19.5,4.89063 L19.5,5.90625 M21.5156,3.28125 L21.5156,4.98438 L23.5469,4.98438 L23.5469,5.75 L21.5156,5.75 L21.5156,9.01563 C21.5156,9.50521 21.5833,9.82031 21.7188,9.96094 C21.8542,10.1016 22.125,10.1719 22.5313,10.1719 L23.5469,10.1719 L23.5469,11 L22.5313,11 C21.7708,11 21.2448,10.8568 20.9531,10.5703 C20.6615,10.2839 20.5156,9.76563 20.5156,9.01563 L20.5156,5.75 L19.7969,5.75 L19.7969,4.98438 L20.5156,4.98438 L20.5156,3.28125 L21.5156,3.28125 M24.8438,2.64063 L25.8438,2.64063 L25.8438,11 L24.8438,11 L24.8438,2.64063 M33.0469,7.75 L33.0469,8.23438 L28.5,8.23438 C28.5417,8.91146 28.7448,9.42708 29.1094,9.78125 C29.474,10.1354 29.9844,10.3125 30.6406,10.3125 C31.026,10.3125 31.3958,10.2656 31.75,10.1719 C32.1042,10.0781 32.4583,9.94271 32.8125,9.76563 L32.8125,10.6875 C32.4583,10.8438 32.0938,10.9609 31.7188,11.0391 C31.3438,11.1172 30.9688,11.1563 30.5938,11.1563 C29.625,11.1563 28.862,10.8776 28.3047,10.3203 C27.7474,9.76302 27.4688,9.00521 27.4688,8.04688 C27.4688,7.06771 27.7344,6.28906 28.2656,5.71094 C28.7969,5.13281 29.5156,4.84375 30.4219,4.84375 C31.224,4.84375 31.862,5.10417 32.3359,5.625 C32.8099,6.14583 33.0469,6.85417 33.0469,7.75 M32.0469,7.45313 C32.0469,6.91146 31.8984,6.47917 31.6016,6.15625 C31.3047,5.83333 30.9115,5.67188 30.4219,5.67188 C29.8698,5.67188 29.4297,5.82813 29.1016,6.14063 C28.7734,6.45313 28.5833,6.89063 28.5313,7.45313 L32.0469,7.45313 M34.9844,10.0938 L36.7656,10.0938 L36.7656,3.96875 L34.8281,4.35938 L34.8281,3.375 L36.75,2.98438 L37.8438,2.98438 L37.8438,10.0938 L39.6094,10.0938 L39.6094,11 L34.9844,11 L34.9844,10.0938"/>
</g>

<g fill="none" stroke="#000000" stroke-opacity="1" stroke-width="1" stroke-linecap="square" stroke-linejoin="bevel" transform="matrix(1.9993,0,0,1.9993,378.638,21.9923)"
font-family="sans" font-size="11" font-weight="100" font-style="normal" 
>
</g>

<g fill="none" stroke="#000000" stroke-opacity="1" stroke-width="1" stroke-linecap="square" stroke-linejoin="bevel" transform="matrix(1.9993,0,0,1.9993,378.638,21.9923)"
font-family="Ubuntu" font-size="11" font-weight="400" font-style="normal" 
>
</g>

<g fill="none" stroke="#000000" stroke-opacity="1" stroke-width="1" stroke-linecap="square" stroke-linejoin="bevel" transform="matrix(1.9993,0,0,1.9993,0,71.9748)"
font-family="Ubuntu" font-size="11" font-weight="400" font-style="normal" 
>
</g>

<g fill="none" stroke="#000000" stroke-opacity="1" stroke-width="1" stroke-linecap="square" stroke-linejoin="bevel" transform="matrix(1.9993,0,0,1.9993,0,71.9748)"
font-family="Ubuntu" font-size="11" font-weight="400" font-style="normal" 
>
</g>

<g fill="none" stroke="#000000" stroke-opacity="1" stroke-width="1" stroke-linecap="square" stroke-linejoin="bevel" transform="matrix(1.9993,0,0,1.9993,0,71.9748)"
font-family="Ubuntu" font-size="11" font-weight="400" font-style="normal" 
>
</g>

<g fill="none" stroke="#000000" stroke-opacity="1" stroke-width="1" stroke-linecap="square" stroke-linejoin="round" transform="matrix(1.9993,0,0,1.9993,0,71.9748)"
font-family="Ubuntu" font-size="11" font-weight="400" font-style="normal" 
>
<ellipse cx="33.147" cy="-18" rx="32.647" ry="17.5"/>
</g>

<g fill="none" stroke="#000000" stroke-opacity="1" stroke-width="1" stroke-linecap="square" stroke-linejoin="bevel" transform="matrix(1.9993,0,0,1.9993,0,71.9748)"
font-family="Ubuntu" font-size="11" font-weight="400" font-style="normal" 
>
</g>

<g fill="none" stroke="#000000" stroke-opacity="1" stroke-width="1" stroke-linecap="square" stroke-linejoin="bevel" transform="matrix(1.9993,0,0,1.9993,30.8457,21.9923)"
font-family="Ubuntu" font-size="11" font-weight="400" font-style="normal" 
>
</g>

<g fill="none" stroke="#000000" stroke-opacity="1" stroke-width="1" stroke-linecap="square" stroke-linejoin="bevel" transform="matrix(1.9993,0,0,1.9993,30.8457,21.9923)"
font-family="sans" font-size="11" font-weight="100" font-style="normal" 
>
</g>

<g fill="#000000" fill-opacity="1" stroke="#000000" stroke-opacity="1" stroke-width="1" stroke-linecap="square" stroke-linejoin="round" transform="matrix(1.9993,0,0,1.9993,30.8457,21.9923)"
font-family="sans" font-size="11" font-weight="100" font-style="normal" 
>
<path vector-effect="none" fill-rule="nonzero" d="M2.79688,2.98438 L3.70313,2.98438 L0.90625,12.0156 L0,12.0156 L2.79688,2.98438 M5.71875,3.28125 L5.71875,4.98438 L7.75,4.98438 L7.75,5.75 L5.71875,5.75 L5.71875,9.01563 C5.71875,9.50521 5.78646,9.82031 5.92188,9.96094 C6.05729,10.1016 6.32813,10.1719 6.73438,10.1719 L7.75,10.1719 L7.75,11 L6.73438,11 C5.97396,11 5.44792,10.8568 5.15625,10.5703 C4.86458,10.2839 4.71875,9.76563 4.71875,9.01563 L4.71875,5.75 L4,5.75 L4,4.98438 L4.71875,4.98438 L4.71875,3.28125 L5.71875,3.28125 M11.7813,7.96875 C10.9896,7.96875 10.4401,8.0625 10.1328,8.25 C9.82552,8.4375 9.67188,8.75 9.67188,9.1875 C9.67188,9.53125 9.78646,9.80729 10.0156,10.0156 C10.2448,10.224 10.5573,10.3281 10.9531,10.3281 C11.5052,10.3281 11.9453,10.1328 12.2734,9.74219 C12.6016,9.35156 12.7656,8.83854 12.7656,8.20313 L12.7656,7.96875 L11.7813,7.96875 M13.75,7.5625 L13.75,11 L12.7656,11 L12.7656,10.0938 C12.5469,10.4583 12.2682,10.7266 11.9297,10.8984 C11.5911,11.0703 11.1771,11.1563 10.6875,11.1563 C10.0729,11.1563 9.58333,10.9844 9.21875,10.6406 C8.85417,10.2969 8.67188,9.83333 8.67188,9.25 C8.67188,8.57292 8.89844,8.0625 9.35156,7.71875 C9.80469,7.375 10.4844,7.20313 11.3906,7.20313 L12.7656,7.20313 L12.7656,7.10938 C12.7656,6.65104 12.6172,6.29688 12.3203,6.04688 C12.0234,5.79688 11.6042,5.67188 11.0625,5.67188 C10.7188,5.67188 10.3828,5.71354 10.0547,5.79688 C9.72656,5.88021 9.41146,6.00521 9.10938,6.17188 L9.10938,5.26563 C9.47396,5.11979 9.82813,5.01302 10.1719,4.94531 C10.5156,4.8776 10.8438,4.84375 11.1563,4.84375 C12.0313,4.84375 12.6823,5.06771 13.1094,5.51563 C13.5365,5.96354 13.75,6.64583 13.75,7.5625 M15.7813,2.64063 L16.7813,2.64063 L16.7813,11 L15.7813,11 L15.7813,2.64063 M18.7969,2.64063 L19.7969,2.64063 L19.7969,7.57813 L22.7344,4.98438 L24,4.98438 L20.8125,7.79688 L24.1406,11 L22.8438,11 L19.7969,8.0625 L19.7969,11 L18.7969,11 L18.7969,2.64063 M30.3438,7.75 L30.3438,8.23438 L25.7969,8.23438 C25.8385,8.91146 26.0417,9.42708 26.4063,9.78125 C26.7708,10.1354 27.2813,10.3125 27.9375,10.3125 C28.3229,10.3125 28.6927,10.2656 29.0469,10.1719 C29.401,10.0781 29.7552,9.94271 30.1094,9.76563 L30.1094,10.6875 C29.7552,10.8438 29.3906,10.9609 29.0156,11.0391 C28.6406,11.1172 28.2656,11.1563 27.8906,11.1563 C26.9219,11.1563 26.1589,10.8776 25.6016,10.3203 C25.0443,9.76302 24.7656,9.00521 24.7656,8.04688 C24.7656,7.06771 25.0313,6.28906 25.5625,5.71094 C26.0938,5.13281 26.8125,4.84375 27.7188,4.84375 C28.5208,4.84375 29.1589,5.10417 29.6328,5.625 C30.1068,6.14583 30.3438,6.85417 30.3438,7.75 M29.3438,7.45313 C29.3438,6.91146 29.1953,6.47917 28.8984,6.15625 C28.6016,5.83333 28.2083,5.67188 27.7188,5.67188 C27.1667,5.67188 26.7266,5.82813 26.3984,6.14063 C26.0703,6.45313 25.8802,6.89063 25.8281,7.45313 L29.3438,7.45313 M35.4375,5.90625 C35.3333,5.84375 35.2161,5.79688 35.0859,5.76563 C34.9557,5.73438 34.8125,5.71875 34.6563,5.71875 C34.0938,5.71875 33.6641,5.90104 33.3672,6.26563 C33.0703,6.63021 32.9219,7.15104 32.9219,7.82813 L32.9219,11 L31.9219,11 L31.9219,4.98438 L32.9219,4.98438 L32.9219,5.92188 C33.1198,5.55729 33.3854,5.28646 33.7188,5.10938 C34.0521,4.93229 34.4583,4.84375 34.9375,4.84375 C35.0104,4.84375 35.0859,4.84635 35.1641,4.85156 C35.2422,4.85677 35.3333,4.86979 35.4375,4.89063 L35.4375,5.90625"/>
</g>

<g fill="none" stroke="#000000" stroke-opacity="1" stroke-width="1" stroke-linecap="square" stroke-linejoin="bevel" transform="matrix(1.9993,0,0,1.9993,30.8457,21.9923)"
font-family="sans" font-size="11" font-weight="100" font-style="normal" 
>
</g>

<g fill="none" stroke="#000000" stroke-opacity="1" stroke-width="1" stroke-linecap="square" stroke-linejoin="bevel" transform="matrix(1.9993,0,0,1.9993,30.8457,21.9923)"
font-family="Ubuntu" font-size="11" font-weight="400" font-style="normal" 
>
</g>

<g fill="none" stroke="#000000" stroke-opacity="1" stroke-width="1" stroke-linecap="square" stroke-linejoin="bevel" transform="matrix(1.9993,0,0,1.9993,0,71.9748)"
font-family="Ubuntu" font-size="11" font-weight="400" font-style="normal" 
>
</g>

<g fill="none" stroke="#000000" stroke-opacity="1" stroke-width="1" stroke-linecap="square" stroke-linejoin="bevel" transform="matrix(1.9993,0,0,1.9993,0,71.9748)"
font-family="Ubuntu" font-size="11" font-weight="400" font-style="normal" 
>
</g>

<g fill="none" stroke="#000000" stroke-opacity="1" stroke-width="1" stroke-linecap="square" stroke-linejoin="bevel" transform="matrix(1.9993,0,0,1.9993,0,71.9748)"
font-family="Ubuntu" font-size="11" font-weight="400" font-style="normal" 
>
</g>

<g fill="none" stroke="#000000" stroke-opacity="1" stroke-width="1" stroke-linecap="square" stroke-linejoin="round" transform="matrix(1.9993,0,0,1.9993,0,71.9748)"
font-family="Ubuntu" font-size="11" font-weight="400" font-style="normal" 
>
<path vector-effect="none" fill-rule="evenodd" d="M66.354,-18 C93.605,-18 132.51,-18 162.92,-18 "/>
</g>

<g fill="none" stroke="#000000" stroke-opacity="1" stroke-width="1" stroke-linecap="square" stroke-linejoin="bevel" transform="matrix(1.9993,0,0,1.9993,0,71.9748)"
font-family="Ubuntu" font-size="11" font-weight="400" font-style="normal" 
>
</g>

<g fill="none" stroke="#000000" stroke-opacity="1" stroke-width="1" stroke-linecap="square" stroke-linejoin="bevel" transform="matrix(1.9993,0,0,1.9993,149.684,6.99755)"
font-family="Ubuntu" font-size="11" font-weight="400" font-style="normal" 
>
</g>

<g fill="none" stroke="#000000" stroke-opacity="1" stroke-width="1" stroke-linecap="square" stroke-linejoin="bevel" transform="matrix(1.9993,0,0,1.9993,149.684,6.99755)"
font-family="sans" font-size="11" font-weight="100" font-style="normal" 
>
</g>

<g fill="#000000" fill-opacity="1" stroke="#000000" stroke-opacity="1" stroke-width="1" stroke-linecap="square" stroke-linejoin="round" transform="matrix(1.9993,0,0,1.9993,149.684,6.99755)"
font-family="sans" font-size="11" font-weight="100" font-style="normal" 
>
<path vector-effect="none" fill-rule="nonzero" d="M2.79688,2.98438 L3.70313,2.98438 L0.90625,12.0156 L0,12.0156 L2.79688,2.98438 M5.71875,3.28125 L5.71875,4.98438 L7.75,4.98438 L7.75,5.75 L5.71875,5.75 L5.71875,9.01563 C5.71875,9.50521 5.78646,9.82031 5.92188,9.96094 C6.05729,10.1016 6.32813,10.1719 6.73438,10.1719 L7.75,10.1719 L7.75,11 L6.73438,11 C5.97396,11 5.44792,10.8568 5.15625,10.5703 C4.86458,10.2839 4.71875,9.76563 4.71875,9.01563 L4.71875,5.75 L4,5.75 L4,4.98438 L4.71875,4.98438 L4.71875,3.28125 L5.71875,3.28125 M8.95313,8.625 L8.95313,4.98438 L9.9375,4.98438 L9.9375,8.59375 C9.9375,9.15625 10.0495,9.58073 10.2734,9.86719 C10.4974,10.1536 10.8281,10.2969 11.2656,10.2969 C11.8073,10.2969 12.2318,10.1276 12.5391,9.78906 C12.8464,9.45052 13,8.98438 13,8.39063 L13,4.98438 L13.9844,4.98438 L13.9844,11 L13,11 L13,10.0781 C12.7604,10.4427 12.4818,10.7135 12.1641,10.8906 C11.8464,11.0677 11.4792,11.1563 11.0625,11.1563 C10.375,11.1563 9.85156,10.9401 9.49219,10.5078 C9.13281,10.0755 8.95313,9.44792 8.95313,8.625 M19.5,5.90625 C19.3958,5.84375 19.2786,5.79688 19.1484,5.76563 C19.0182,5.73438 18.875,5.71875 18.7188,5.71875 C18.1563,5.71875 17.7266,5.90104 17.4297,6.26563 C17.1328,6.63021 16.9844,7.15104 16.9844,7.82813 L16.9844,11 L15.9844,11 L15.9844,4.98438 L16.9844,4.98438 L16.9844,5.92188 C17.1823,5.55729 17.4479,5.28646 17.7813,5.10938 C18.1146,4.93229 18.5208,4.84375 19,4.84375 C19.0729,4.84375 19.1484,4.84635 19.2266,4.85156 C19.3047,4.85677 19.3958,4.86979 19.5,4.89063 L19.5,5.90625 M21.5156,3.28125 L21.5156,4.98438 L23.5469,4.98438 L23.5469,5.75 L21.5156,5.75 L21.5156,9.01563 C21.5156,9.50521 21.5833,9.82031 21.7188,9.96094 C21.8542,10.1016 22.125,10.1719 22.5313,10.1719 L23.5469,10.1719 L23.5469,11 L22.5313,11 C21.7708,11 21.2448,10.8568 20.9531,10.5703 C20.6615,10.2839 20.5156,9.76563 20.5156,9.01563 L20.5156,5.75 L19.7969,5.75 L19.7969,4.98438 L20.5156,4.98438 L20.5156,3.28125 L21.5156,3.28125 M24.8438,2.64063 L25.8438,2.64063 L25.8438,11 L24.8438,11 L24.8438,2.64063 M33.0469,7.75 L33.0469,8.23438 L28.5,8.23438 C28.5417,8.91146 28.7448,9.42708 29.1094,9.78125 C29.474,10.1354 29.9844,10.3125 30.6406,10.3125 C31.026,10.3125 31.3958,10.2656 31.75,10.1719 C32.1042,10.0781 32.4583,9.94271 32.8125,9.76563 L32.8125,10.6875 C32.4583,10.8438 32.0938,10.9609 31.7188,11.0391 C31.3438,11.1172 30.9688,11.1563 30.5938,11.1563 C29.625,11.1563 28.862,10.8776 28.3047,10.3203 C27.7474,9.76302 27.4688,9.00521 27.4688,8.04688 C27.4688,7.06771 27.7344,6.28906 28.2656,5.71094 C28.7969,5.13281 29.5156,4.84375 30.4219,4.84375 C31.224,4.84375 31.862,5.10417 32.3359,5.625 C32.8099,6.14583 33.0469,6.85417 33.0469,7.75 M32.0469,7.45313 C32.0469,6.91146 31.8984,6.47917 31.6016,6.15625 C31.3047,5.83333 30.9115,5.67188 30.4219,5.67188 C29.8698,5.67188 29.4297,5.82813 29.1016,6.14063 C28.7734,6.45313 28.5833,6.89063 28.5313,7.45313 L32.0469,7.45313 M34.9844,10.0938 L36.7656,10.0938 L36.7656,3.96875 L34.8281,4.35938 L34.8281,3.375 L36.75,2.98438 L37.8438,2.98438 L37.8438,10.0938 L39.6094,10.0938 L39.6094,11 L34.9844,11 L34.9844,10.0938 M43.4063,2.98438 L44.3125,2.98438 L41.5156,12.0156 L40.6094,12.0156 L43.4063,2.98438 M49.6719,5.21875 L49.6719,6.14063 C49.401,5.98438 49.125,5.86719 48.8438,5.78906 C48.5625,5.71094 48.276,5.67188 47.9844,5.67188 C47.349,5.67188 46.8542,5.875 46.5,6.28125 C46.1458,6.6875 45.9688,7.26042 45.9688,8 C45.9688,8.72917 46.1458,9.29688 46.5,9.70313 C46.8542,10.1094 47.349,10.3125 47.9844,10.3125 C48.276,10.3125 48.5625,10.276 48.8438,10.2031 C49.125,10.1302 49.401,10.0156 49.6719,9.85938 L49.6719,10.7656 C49.401,10.901 49.1172,11 48.8203,11.0625 C48.5234,11.125 48.2083,11.1563 47.875,11.1563 C46.9688,11.1563 46.25,10.8724 45.7188,10.3047 C45.1875,9.73698 44.9219,8.96875 44.9219,8 C44.9219,7.02083 45.1901,6.25 45.7266,5.6875 C46.263,5.125 47,4.84375 47.9375,4.84375 C48.25,4.84375 48.5495,4.875 48.8359,4.9375 C49.1224,5 49.401,5.09375 49.6719,5.21875 M56.0781,6.14063 C56.3281,5.69271 56.625,5.36458 56.9688,5.15625 C57.3125,4.94792 57.7188,4.84375 58.1875,4.84375 C58.8125,4.84375 59.2943,5.0625 59.6328,5.5 C59.9714,5.9375 60.1406,6.5625 60.1406,7.375 L60.1406,11 L59.1406,11 L59.1406,7.40625 C59.1406,6.82292 59.0391,6.39323 58.8359,6.11719 C58.6328,5.84115 58.3229,5.70313 57.9063,5.70313 C57.3958,5.70313 56.9922,5.8724 56.6953,6.21094 C56.3984,6.54948 56.25,7.01042 56.25,7.59375 L56.25,11 L55.25,11 L55.25,7.40625 C55.25,6.82292 55.1484,6.39323 54.9453,6.11719 C54.7422,5.84115 54.4271,5.70313 54,5.70313 C53.5,5.70313 53.1016,5.8724 52.8047,6.21094 C52.5078,6.54948 52.3594,7.01042 52.3594,7.59375 L52.3594,11 L51.3594,11 L51.3594,4.98438 L52.3594,4.98438 L52.3594,5.92188 C52.5781,5.54688 52.8464,5.27344 53.1641,5.10156 C53.4818,4.92969 53.8542,4.84375 54.2813,4.84375 C54.7188,4.84375 55.0911,4.95313 55.3984,5.17188 C55.7057,5.39063 55.9323,5.71354 56.0781,6.14063 M66.0625,5.89063 L66.0625,2.64063 L67.0469,2.64063 L67.0469,11 L66.0625,11 L66.0625,10.0938 C65.8542,10.4583 65.5911,10.7266 65.2734,10.8984 C64.9557,11.0703 64.5729,11.1563 64.125,11.1563 C63.4063,11.1563 62.8177,10.8672 62.3594,10.2891 C61.901,9.71094 61.6719,8.94792 61.6719,8 C61.6719,7.05208 61.901,6.28906 62.3594,5.71094 C62.8177,5.13281 63.4063,4.84375 64.125,4.84375 C64.5729,4.84375 64.9557,4.92969 65.2734,5.10156 C65.5911,5.27344 65.8542,5.53646 66.0625,5.89063 M62.6875,8 C62.6875,8.72917 62.8385,9.29948 63.1406,9.71094 C63.4427,10.1224 63.8542,10.3281 64.375,10.3281 C64.8958,10.3281 65.3073,10.1224 65.6094,9.71094 C65.9115,9.29948 66.0625,8.72917 66.0625,8 C66.0625,7.27083 65.9115,6.70052 65.6094,6.28906 C65.3073,5.8776 64.8958,5.67188 64.375,5.67188 C63.8542,5.67188 63.4427,5.8776 63.1406,6.28906 C62.8385,6.70052 62.6875,7.27083 62.6875,8 M73.6406,12.8281 L73.6406,13.5938 L67.9219,13.5938 L67.9219,12.8281 L73.6406,12.8281 M73.8594,4.98438 L74.9063,4.98438 L76.7813,10.0313 L78.6719,4.98438 L79.7188,4.98438 L77.4531,11 L76.1094,11 L73.8594,4.98438 M86.2188,7.75 L86.2188,8.23438 L81.6719,8.23438 C81.7135,8.91146 81.9167,9.42708 82.2813,9.78125 C82.6458,10.1354 83.1563,10.3125 83.8125,10.3125 C84.1979,10.3125 84.5677,10.2656 84.9219,10.1719 C85.276,10.0781 85.6302,9.94271 85.9844,9.76563 L85.9844,10.6875 C85.6302,10.8438 85.2656,10.9609 84.8906,11.0391 C84.5156,11.1172 84.1406,11.1563 83.7656,11.1563 C82.7969,11.1563 82.0339,10.8776 81.4766,10.3203 C80.9193,9.76302 80.6406,9.00521 80.6406,8.04688 C80.6406,7.06771 80.9063,6.28906 81.4375,5.71094 C81.9688,5.13281 82.6875,4.84375 83.5938,4.84375 C84.3958,4.84375 85.0339,5.10417 85.5078,5.625 C85.9818,6.14583 86.2188,6.85417 86.2188,7.75 M85.2188,7.45313 C85.2188,6.91146 85.0703,6.47917 84.7734,6.15625 C84.4766,5.83333 84.0833,5.67188 83.5938,5.67188 C83.0417,5.67188 82.6016,5.82813 82.2734,6.14063 C81.9453,6.45313 81.7552,6.89063 81.7031,7.45313 L85.2188,7.45313 M87.8281,2.64063 L88.8281,2.64063 L88.8281,11 L87.8281,11 L87.8281,2.64063"/>
</g>

<g fill="none" stroke="#000000" stroke-opacity="1" stroke-width="1" stroke-linecap="square" stroke-linejoin="bevel" transform="matrix(1.9993,0,0,1.9993,149.684,6.99755)"
font-family="sans" font-size="11" font-weight="100" font-style="normal" 
>
</g>

<g fill="none" stroke="#000000" stroke-opacity="1" stroke-width="1" stroke-linecap="square" stroke-linejoin="bevel" transform="matrix(1.9993,0,0,1.9993,149.684,6.99755)"
font-family="Ubuntu" font-size="11" font-weight="400" font-style="normal" 
>
</g>

<g fill="none" stroke="#000000" stroke-opacity="1" stroke-width="1" stroke-linecap="square" stroke-linejoin="bevel" transform="matrix(1.9993,0,0,1.9993,0,71.9748)"
font-family="Ubuntu" font-size="11" font-weight="400" font-style="normal" 
>
</g>

<g fill="#000000" fill-opacity="1" stroke="#000000" stroke-opacity="1" stroke-width="1" stroke-linecap="square" stroke-linejoin="round" transform="matrix(1.9993,0,0,1.9993,0,71.9748)"
font-family="Ubuntu" font-size="11" font-weight="400" font-style="normal" 
>
<path vector-effect="none" fill-rule="evenodd" d="M162.92,-18 L162.92,-14.3705 L173.29,-18 L162.92,-21.6295 L162.92,-18"/>
</g>

<g fill="none" stroke="#000000" stroke-opacity="1" stroke-width="1" stroke-linecap="square" stroke-linejoin="bevel" transform="matrix(1.9993,0,0,1.9993,0,71.9748)"
font-family="Ubuntu" font-size="11" font-weight="400" font-style="normal" 
>
</g>

<g fill="none" stroke="#000000" stroke-opacity="1" stroke-width="1" stroke-linecap="square" stroke-linejoin="bevel" transform="matrix(1,0,0,1,0,0)"
font-family="Ubuntu" font-size="11" font-weight="400" font-style="normal" 
>
</g>
</g>
</svg>
