<?xml version="1.0" encoding="UTF-8" standalone="no"?>
<svg width="243.064mm" height="25.4mm"
 xmlns="http://www.w3.org/2000/svg" xmlns:xlink="http://www.w3.org/1999/xlink"  version="1.2" baseProfile="tiny">
<title>Qt SVG Document</title>
<desc>Generated with Qt</desc>
<defs>
</defs>
<g fill="none" stroke="black" stroke-width="1" fill-rule="evenodd" stroke-linecap="square" stroke-linejoin="bevel" >

<g fill="none" stroke="#000000" stroke-opacity="1" stroke-width="1" stroke-linecap="square" stroke-linejoin="bevel" transform="matrix(1,0,0,1,0,0)"
font-family="Ubuntu" font-size="11" font-weight="400" font-style="normal" 
>
</g>

<g fill="none" stroke="#000000" stroke-opacity="1" stroke-width="1" stroke-linecap="square" stroke-linejoin="bevel" transform="matrix(1,0,0,1,0,0)"
font-family="Ubuntu" font-size="11" font-weight="400" font-style="normal" 
>
</g>

<g fill="none" stroke="#000000" stroke-opacity="1" stroke-width="1" stroke-linecap="square" stroke-linejoin="bevel" transform="matrix(1.99956,0,0,1.99956,0.000799823,71.984)"
font-family="Ubuntu" font-size="11" font-weight="400" font-style="normal" 
>
</g>

<g fill="#ffffff" fill-opacity="1" stroke="none" transform="matrix(1.99956,0,0,1.99956,0.000799823,71.984)"
font-family="Ubuntu" font-size="11" font-weight="400" font-style="normal" 
>
<rect x="-0.0004" y="-36" width="344.576" height="36"/>
</g>

<g fill="none" stroke="#000000" stroke-opacity="1" stroke-width="1" stroke-linecap="square" stroke-linejoin="bevel" transform="matrix(1.99956,0,0,1.99956,0.000799823,71.984)"
font-family="Ubuntu" font-size="11" font-weight="400" font-style="normal" 
>
</g>

<g fill="none" stroke="#000000" stroke-opacity="1" stroke-width="1" stroke-linecap="square" stroke-linejoin="bevel" transform="matrix(1.99956,0,0,1.99956,0.000799823,71.984)"
font-family="Ubuntu" font-size="11" font-weight="400" font-style="normal" 
>
</g>

<g fill="none" stroke="#000000" stroke-opacity="1" stroke-width="1" stroke-linecap="square" stroke-linejoin="bevel" transform="matrix(1.99956,0,0,1.99956,0.000799823,71.984)"
font-family="Ubuntu" font-size="11" font-weight="400" font-style="normal" 
>
</g>

<g fill="none" stroke="#000000" stroke-opacity="1" stroke-width="1" stroke-linecap="square" stroke-linejoin="bevel" transform="matrix(1.99956,0,0,1.99956,0.000799823,71.984)"
font-family="Ubuntu" font-size="11" font-weight="400" font-style="normal" 
>
</g>

<g fill="none" stroke="#000000" stroke-opacity="1" stroke-width="1" stroke-linecap="square" stroke-linejoin="round" transform="matrix(1.99956,0,0,1.99956,0.000799823,71.984)"
font-family="Ubuntu" font-size="11" font-weight="400" font-style="normal" 
>
<ellipse cx="302.33" cy="-18" rx="41.746" ry="17.5"/>
</g>

<g fill="none" stroke="#000000" stroke-opacity="1" stroke-width="1" stroke-linecap="square" stroke-linejoin="bevel" transform="matrix(1.99956,0,0,1.99956,0.000799823,71.984)"
font-family="Ubuntu" font-size="11" font-weight="400" font-style="normal" 
>
</g>

<g fill="none" stroke="#000000" stroke-opacity="1" stroke-width="1" stroke-linecap="square" stroke-linejoin="bevel" transform="matrix(1.99956,0,0,1.99956,561.239,21.9951)"
font-family="Ubuntu" font-size="11" font-weight="400" font-style="normal" 
>
</g>

<g fill="none" stroke="#000000" stroke-opacity="1" stroke-width="1" stroke-linecap="square" stroke-linejoin="bevel" transform="matrix(1.99956,0,0,1.99956,561.239,21.9951)"
font-family="sans" font-size="11" font-weight="100" font-style="normal" 
>
</g>

<g fill="#000000" fill-opacity="1" stroke="#000000" stroke-opacity="1" stroke-width="1" stroke-linecap="square" stroke-linejoin="round" transform="matrix(1.99956,0,0,1.99956,561.239,21.9951)"
font-family="sans" font-size="11" font-weight="100" font-style="normal" 
>
<path vector-effect="none" fill-rule="nonzero" d="M6.03125,7.375 L6.03125,11 L5.04688,11 L5.04688,7.40625 C5.04688,6.83333 4.9375,6.40625 4.71875,6.125 C4.5,5.84375 4.16667,5.70313 3.71875,5.70313 C3.1875,5.70313 2.76823,5.8724 2.46094,6.21094 C2.15365,6.54948 2,7.01042 2,7.59375 L2,11 L1,11 L1,4.98438 L2,4.98438 L2,5.92188 C2.22917,5.55729 2.50521,5.28646 2.82813,5.10938 C3.15104,4.93229 3.52083,4.84375 3.9375,4.84375 C4.625,4.84375 5.14583,5.05729 5.5,5.48438 C5.85417,5.91146 6.03125,6.54167 6.03125,7.375 M12.5781,12.8281 L12.5781,13.5938 L6.85938,13.5938 L6.85938,12.8281 L12.5781,12.8281 M18.0781,12.8281 L18.0781,13.5938 L12.3594,13.5938 L12.3594,12.8281 L18.0781,12.8281 M23.5781,12.8281 L23.5781,13.5938 L17.8594,13.5938 L17.8594,12.8281 L23.5781,12.8281 M27.9844,5.90625 C27.8802,5.84375 27.763,5.79688 27.6328,5.76563 C27.5026,5.73438 27.3594,5.71875 27.2031,5.71875 C26.6406,5.71875 26.2109,5.90104 25.9141,6.26563 C25.6172,6.63021 25.4688,7.15104 25.4688,7.82813 L25.4688,11 L24.4688,11 L24.4688,4.98438 L25.4688,4.98438 L25.4688,5.92188 C25.6667,5.55729 25.9323,5.28646 26.2656,5.10938 C26.599,4.93229 27.0052,4.84375 27.4844,4.84375 C27.5573,4.84375 27.6328,4.84635 27.7109,4.85156 C27.7891,4.85677 27.8802,4.86979 27.9844,4.89063 L27.9844,5.90625 M28.3125,4.98438 L29.3594,4.98438 L31.2344,10.0313 L33.125,4.98438 L34.1719,4.98438 L31.9063,11 L30.5625,11 L28.3125,4.98438 M35.5156,4.98438 L36.5156,4.98438 L36.5156,11 L35.5156,11 L35.5156,4.98438 M35.5156,2.64063 L36.5156,2.64063 L36.5156,3.89063 L35.5156,3.89063 L35.5156,2.64063 M38.1406,4.98438 L42.8281,4.98438 L42.8281,5.89063 L39.1094,10.2031 L42.8281,10.2031 L42.8281,11 L38,11 L38,10.0938 L41.7188,5.78125 L38.1406,5.78125 L38.1406,4.98438"/>
</g>

<g fill="none" stroke="#000000" stroke-opacity="1" stroke-width="1" stroke-linecap="square" stroke-linejoin="bevel" transform="matrix(1.99956,0,0,1.99956,561.239,21.9951)"
font-family="sans" font-size="11" font-weight="100" font-style="normal" 
>
</g>

<g fill="none" stroke="#000000" stroke-opacity="1" stroke-width="1" stroke-linecap="square" stroke-linejoin="bevel" transform="matrix(1.99956,0,0,1.99956,561.239,21.9951)"
font-family="Ubuntu" font-size="11" font-weight="400" font-style="normal" 
>
</g>

<g fill="none" stroke="#000000" stroke-opacity="1" stroke-width="1" stroke-linecap="square" stroke-linejoin="bevel" transform="matrix(1.99956,0,0,1.99956,0.000799823,71.984)"
font-family="Ubuntu" font-size="11" font-weight="400" font-style="normal" 
>
</g>

<g fill="none" stroke="#000000" stroke-opacity="1" stroke-width="1" stroke-linecap="square" stroke-linejoin="bevel" transform="matrix(1.99956,0,0,1.99956,0.000799823,71.984)"
font-family="Ubuntu" font-size="11" font-weight="400" font-style="normal" 
>
</g>

<g fill="none" stroke="#000000" stroke-opacity="1" stroke-width="1" stroke-linecap="square" stroke-linejoin="bevel" transform="matrix(1.99956,0,0,1.99956,0.000799823,71.984)"
font-family="Ubuntu" font-size="11" font-weight="400" font-style="normal" 
>
</g>

<g fill="none" stroke="#000000" stroke-opacity="1" stroke-width="1" stroke-linecap="square" stroke-linejoin="round" transform="matrix(1.99956,0,0,1.99956,0.000799823,71.984)"
font-family="Ubuntu" font-size="11" font-weight="400" font-style="normal" 
>
<ellipse cx="89.042" cy="-18" rx="88.5424" ry="17.5"/>
</g>

<g fill="none" stroke="#000000" stroke-opacity="1" stroke-width="1" stroke-linecap="square" stroke-linejoin="bevel" transform="matrix(1.99956,0,0,1.99956,0.000799823,71.984)"
font-family="Ubuntu" font-size="11" font-weight="400" font-style="normal" 
>
</g>

<g fill="none" stroke="#000000" stroke-opacity="1" stroke-width="1" stroke-linecap="square" stroke-linejoin="bevel" transform="matrix(1.99956,0,0,1.99956,55.3225,21.9951)"
font-family="Ubuntu" font-size="11" font-weight="400" font-style="normal" 
>
</g>

<g fill="none" stroke="#000000" stroke-opacity="1" stroke-width="1" stroke-linecap="square" stroke-linejoin="bevel" transform="matrix(1.99956,0,0,1.99956,55.3225,21.9951)"
font-family="sans" font-size="11" font-weight="100" font-style="normal" 
>
</g>

<g fill="#000000" fill-opacity="1" stroke="#000000" stroke-opacity="1" stroke-width="1" stroke-linecap="square" stroke-linejoin="round" transform="matrix(1.99956,0,0,1.99956,55.3225,21.9951)"
font-family="sans" font-size="11" font-weight="100" font-style="normal" 
>
<path vector-effect="none" fill-rule="nonzero" d="M2.79688,2.98438 L3.70313,2.98438 L0.90625,12.0156 L0,12.0156 L2.79688,2.98438 M8.21875,5.90625 C8.11458,5.84375 7.9974,5.79688 7.86719,5.76563 C7.73698,5.73438 7.59375,5.71875 7.4375,5.71875 C6.875,5.71875 6.44531,5.90104 6.14844,6.26563 C5.85156,6.63021 5.70313,7.15104 5.70313,7.82813 L5.70313,11 L4.70313,11 L4.70313,4.98438 L5.70313,4.98438 L5.70313,5.92188 C5.90104,5.55729 6.16667,5.28646 6.5,5.10938 C6.83333,4.93229 7.23958,4.84375 7.71875,4.84375 C7.79167,4.84375 7.86719,4.84635 7.94531,4.85156 C8.02344,4.85677 8.11458,4.86979 8.21875,4.89063 L8.21875,5.90625 M11.5938,5.67188 C11.0625,5.67188 10.6432,5.88021 10.3359,6.29688 C10.0286,6.71354 9.875,7.28125 9.875,8 C9.875,8.71875 10.026,9.28385 10.3281,9.69531 C10.6302,10.1068 11.0521,10.3125 11.5938,10.3125 C12.1146,10.3125 12.5286,10.1068 12.8359,9.69531 C13.1432,9.28385 13.2969,8.71875 13.2969,8 C13.2969,7.28125 13.1432,6.71354 12.8359,6.29688 C12.5286,5.88021 12.1146,5.67188 11.5938,5.67188 M11.5938,4.84375 C12.4479,4.84375 13.1198,5.1224 13.6094,5.67969 C14.099,6.23698 14.3438,7.01042 14.3438,8 C14.3438,8.97917 14.099,9.75 13.6094,10.3125 C13.1198,10.875 12.4479,11.1563 11.5938,11.1563 C10.7292,11.1563 10.0521,10.875 9.5625,10.3125 C9.07292,9.75 8.82813,8.97917 8.82813,8 C8.82813,7.01042 9.07292,6.23698 9.5625,5.67969 C10.0521,5.1224 10.7292,4.84375 11.5938,4.84375 M20.2969,8 C20.2969,7.27083 20.1458,6.70052 19.8438,6.28906 C19.5417,5.8776 19.1302,5.67188 18.6094,5.67188 C18.0885,5.67188 17.6797,5.8776 17.3828,6.28906 C17.0859,6.70052 16.9375,7.27083 16.9375,8 C16.9375,8.72917 17.0859,9.29948 17.3828,9.71094 C17.6797,10.1224 18.0885,10.3281 18.6094,10.3281 C19.1302,10.3281 19.5417,10.1224 19.8438,9.71094 C20.1458,9.29948 20.2969,8.72917 20.2969,8 M16.9375,5.89063 C17.1354,5.53646 17.3932,5.27344 17.7109,5.10156 C18.0286,4.92969 18.4115,4.84375 18.8594,4.84375 C19.5885,4.84375 20.1797,5.13281 20.6328,5.71094 C21.0859,6.28906 21.3125,7.05208 21.3125,8 C21.3125,8.94792 21.0859,9.71094 20.6328,10.2891 C20.1797,10.8672 19.5885,11.1563 18.8594,11.1563 C18.4115,11.1563 18.0286,11.0703 17.7109,10.8984 C17.3932,10.7266 17.1354,10.4583 16.9375,10.0938 L16.9375,11 L15.9375,11 L15.9375,2.64063 L16.9375,2.64063 L16.9375,5.89063 M25.2813,5.67188 C24.75,5.67188 24.3307,5.88021 24.0234,6.29688 C23.7161,6.71354 23.5625,7.28125 23.5625,8 C23.5625,8.71875 23.7135,9.28385 24.0156,9.69531 C24.3177,10.1068 24.7396,10.3125 25.2813,10.3125 C25.8021,10.3125 26.2161,10.1068 26.5234,9.69531 C26.8307,9.28385 26.9844,8.71875 26.9844,8 C26.9844,7.28125 26.8307,6.71354 26.5234,6.29688 C26.2161,5.88021 25.8021,5.67188 25.2813,5.67188 M25.2813,4.84375 C26.1354,4.84375 26.8073,5.1224 27.2969,5.67969 C27.7865,6.23698 28.0313,7.01042 28.0313,8 C28.0313,8.97917 27.7865,9.75 27.2969,10.3125 C26.8073,10.875 26.1354,11.1563 25.2813,11.1563 C24.4167,11.1563 23.7396,10.875 23.25,10.3125 C22.7604,9.75 22.5156,8.97917 22.5156,8 C22.5156,7.01042 22.7604,6.23698 23.25,5.67969 C23.7396,5.1224 24.4167,4.84375 25.2813,4.84375 M30.6406,3.28125 L30.6406,4.98438 L32.6719,4.98438 L32.6719,5.75 L30.6406,5.75 L30.6406,9.01563 C30.6406,9.50521 30.7083,9.82031 30.8438,9.96094 C30.9792,10.1016 31.25,10.1719 31.6563,10.1719 L32.6719,10.1719 L32.6719,11 L31.6563,11 C30.8958,11 30.3698,10.8568 30.0781,10.5703 C29.7865,10.2839 29.6406,9.76563 29.6406,9.01563 L29.6406,5.75 L28.9219,5.75 L28.9219,4.98438 L29.6406,4.98438 L29.6406,3.28125 L30.6406,3.28125 M38.5469,12.8281 L38.5469,13.5938 L32.8281,13.5938 L32.8281,12.8281 L38.5469,12.8281 M43.3125,5.15625 L43.3125,6.09375 C43.0313,5.94792 42.7396,5.84115 42.4375,5.77344 C42.1354,5.70573 41.8229,5.67188 41.5,5.67188 C41.0104,5.67188 40.6432,5.7474 40.3984,5.89844 C40.1536,6.04948 40.0313,6.27083 40.0313,6.5625 C40.0313,6.79167 40.1198,6.97135 40.2969,7.10156 C40.474,7.23177 40.8281,7.35938 41.3594,7.48438 L41.6875,7.5625 C42.3958,7.70833 42.8958,7.91927 43.1875,8.19531 C43.4792,8.47135 43.625,8.85417 43.625,9.34375 C43.625,9.89583 43.4063,10.3359 42.9688,10.6641 C42.5313,10.9922 41.9219,11.1563 41.1406,11.1563 C40.8177,11.1563 40.4818,11.125 40.1328,11.0625 C39.7839,11 39.4167,10.9063 39.0313,10.7813 L39.0313,9.76563 C39.3958,9.95313 39.7552,10.0938 40.1094,10.1875 C40.4635,10.2813 40.8177,10.3281 41.1719,10.3281 C41.6302,10.3281 41.9844,10.2474 42.2344,10.0859 C42.4844,9.92448 42.6094,9.70313 42.6094,9.42188 C42.6094,9.15104 42.5208,8.94271 42.3438,8.79688 C42.1667,8.65104 41.7708,8.51563 41.1563,8.39063 L40.8125,8.29688 C40.1979,8.17188 39.7552,7.97656 39.4844,7.71094 C39.2135,7.44531 39.0781,7.07813 39.0781,6.60938 C39.0781,6.04688 39.2786,5.61198 39.6797,5.30469 C40.0807,4.9974 40.651,4.84375 41.3906,4.84375 C41.7552,4.84375 42.099,4.86979 42.4219,4.92188 C42.7448,4.97396 43.0417,5.05208 43.3125,5.15625 M46.1719,3.28125 L46.1719,4.98438 L48.2031,4.98438 L48.2031,5.75 L46.1719,5.75 L46.1719,9.01563 C46.1719,9.50521 46.2396,9.82031 46.375,9.96094 C46.5104,10.1016 46.7813,10.1719 47.1875,10.1719 L48.2031,10.1719 L48.2031,11 L47.1875,11 C46.4271,11 45.901,10.8568 45.6094,10.5703 C45.3177,10.2839 45.1719,9.76563 45.1719,9.01563 L45.1719,5.75 L44.4531,5.75 L44.4531,4.98438 L45.1719,4.98438 L45.1719,3.28125 L46.1719,3.28125 M52.2344,7.96875 C51.4427,7.96875 50.8932,8.0625 50.5859,8.25 C50.2786,8.4375 50.125,8.75 50.125,9.1875 C50.125,9.53125 50.2396,9.80729 50.4688,10.0156 C50.6979,10.224 51.0104,10.3281 51.4063,10.3281 C51.9583,10.3281 52.3984,10.1328 52.7266,9.74219 C53.0547,9.35156 53.2188,8.83854 53.2188,8.20313 L53.2188,7.96875 L52.2344,7.96875 M54.2031,7.5625 L54.2031,11 L53.2188,11 L53.2188,10.0938 C53,10.4583 52.7214,10.7266 52.3828,10.8984 C52.0443,11.0703 51.6302,11.1563 51.1406,11.1563 C50.526,11.1563 50.0365,10.9844 49.6719,10.6406 C49.3073,10.2969 49.125,9.83333 49.125,9.25 C49.125,8.57292 49.3516,8.0625 49.8047,7.71875 C50.2578,7.375 50.9375,7.20313 51.8438,7.20313 L53.2188,7.20313 L53.2188,7.10938 C53.2188,6.65104 53.0703,6.29688 52.7734,6.04688 C52.4766,5.79688 52.0573,5.67188 51.5156,5.67188 C51.1719,5.67188 50.8359,5.71354 50.5078,5.79688 C50.1797,5.88021 49.8646,6.00521 49.5625,6.17188 L49.5625,5.26563 C49.9271,5.11979 50.2813,5.01302 50.625,4.94531 C50.9688,4.8776 51.2969,4.84375 51.6094,4.84375 C52.4844,4.84375 53.1354,5.06771 53.5625,5.51563 C53.9896,5.96354 54.2031,6.64583 54.2031,7.5625 M57.2188,3.28125 L57.2188,4.98438 L59.25,4.98438 L59.25,5.75 L57.2188,5.75 L57.2188,9.01563 C57.2188,9.50521 57.2865,9.82031 57.4219,9.96094 C57.5573,10.1016 57.8281,10.1719 58.2344,10.1719 L59.25,10.1719 L59.25,11 L58.2344,11 C57.474,11 56.9479,10.8568 56.6563,10.5703 C56.3646,10.2839 56.2188,9.76563 56.2188,9.01563 L56.2188,5.75 L55.5,5.75 L55.5,4.98438 L56.2188,4.98438 L56.2188,3.28125 L57.2188,3.28125 M65.7031,7.75 L65.7031,8.23438 L61.1563,8.23438 C61.1979,8.91146 61.401,9.42708 61.7656,9.78125 C62.1302,10.1354 62.6406,10.3125 63.2969,10.3125 C63.6823,10.3125 64.0521,10.2656 64.4063,10.1719 C64.7604,10.0781 65.1146,9.94271 65.4688,9.76563 L65.4688,10.6875 C65.1146,10.8438 64.75,10.9609 64.375,11.0391 C64,11.1172 63.625,11.1563 63.25,11.1563 C62.2813,11.1563 61.5182,10.8776 60.9609,10.3203 C60.4036,9.76302 60.125,9.00521 60.125,8.04688 C60.125,7.06771 60.3906,6.28906 60.9219,5.71094 C61.4531,5.13281 62.1719,4.84375 63.0781,4.84375 C63.8802,4.84375 64.5182,5.10417 64.9922,5.625 C65.4661,6.14583 65.7031,6.85417 65.7031,7.75 M64.7031,7.45313 C64.7031,6.91146 64.5547,6.47917 64.2578,6.15625 C63.9609,5.83333 63.5677,5.67188 63.0781,5.67188 C62.526,5.67188 62.0859,5.82813 61.7578,6.14063 C61.4297,6.45313 61.2396,6.89063 61.1875,7.45313 L64.7031,7.45313 M71.8906,12.8281 L71.8906,13.5938 L66.1719,13.5938 L66.1719,12.8281 L71.8906,12.8281 M73.7813,10.0938 L73.7813,13.2813 L72.7813,13.2813 L72.7813,4.98438 L73.7813,4.98438 L73.7813,5.89063 C73.9792,5.53646 74.237,5.27344 74.5547,5.10156 C74.8724,4.92969 75.2552,4.84375 75.7031,4.84375 C76.4323,4.84375 77.0234,5.13281 77.4766,5.71094 C77.9297,6.28906 78.1563,7.05208 78.1563,8 C78.1563,8.94792 77.9297,9.71094 77.4766,10.2891 C77.0234,10.8672 76.4323,11.1563 75.7031,11.1563 C75.2552,11.1563 74.8724,11.0703 74.5547,10.8984 C74.237,10.7266 73.9792,10.4583 73.7813,10.0938 M77.1406,8 C77.1406,7.27083 76.9896,6.70052 76.6875,6.28906 C76.3854,5.8776 75.974,5.67188 75.4531,5.67188 C74.9323,5.67188 74.5234,5.8776 74.2266,6.28906 C73.9297,6.70052 73.7813,7.27083 73.7813,8 C73.7813,8.72917 73.9297,9.29948 74.2266,9.71094 C74.5234,10.1224 74.9323,10.3281 75.4531,10.3281 C75.974,10.3281 76.3854,10.1224 76.6875,9.71094 C76.9896,9.29948 77.1406,8.72917 77.1406,8 M79.6875,8.625 L79.6875,4.98438 L80.6719,4.98438 L80.6719,8.59375 C80.6719,9.15625 80.7839,9.58073 81.0078,9.86719 C81.2318,10.1536 81.5625,10.2969 82,10.2969 C82.5417,10.2969 82.9661,10.1276 83.2734,9.78906 C83.5807,9.45052 83.7344,8.98438 83.7344,8.39063 L83.7344,4.98438 L84.7188,4.98438 L84.7188,11 L83.7344,11 L83.7344,10.0781 C83.4948,10.4427 83.2161,10.7135 82.8984,10.8906 C82.5807,11.0677 82.2135,11.1563 81.7969,11.1563 C81.1094,11.1563 80.5859,10.9401 80.2266,10.5078 C79.8672,10.0755 79.6875,9.44792 79.6875,8.625 M91.0781,8 C91.0781,7.27083 90.9271,6.70052 90.625,6.28906 C90.3229,5.8776 89.9115,5.67188 89.3906,5.67188 C88.8698,5.67188 88.4609,5.8776 88.1641,6.28906 C87.8672,6.70052 87.7188,7.27083 87.7188,8 C87.7188,8.72917 87.8672,9.29948 88.1641,9.71094 C88.4609,10.1224 88.8698,10.3281 89.3906,10.3281 C89.9115,10.3281 90.3229,10.1224 90.625,9.71094 C90.9271,9.29948 91.0781,8.72917 91.0781,8 M87.7188,5.89063 C87.9167,5.53646 88.1745,5.27344 88.4922,5.10156 C88.8099,4.92969 89.1927,4.84375 89.6406,4.84375 C90.3698,4.84375 90.9609,5.13281 91.4141,5.71094 C91.8672,6.28906 92.0938,7.05208 92.0938,8 C92.0938,8.94792 91.8672,9.71094 91.4141,10.2891 C90.9609,10.8672 90.3698,11.1563 89.6406,11.1563 C89.1927,11.1563 88.8099,11.0703 88.4922,10.8984 C88.1745,10.7266 87.9167,10.4583 87.7188,10.0938 L87.7188,11 L86.7188,11 L86.7188,2.64063 L87.7188,2.64063 L87.7188,5.89063 M93.7188,2.64063 L94.7188,2.64063 L94.7188,11 L93.7188,11 L93.7188,2.64063 M96.7656,4.98438 L97.7656,4.98438 L97.7656,11 L96.7656,11 L96.7656,4.98438 M96.7656,2.64063 L97.7656,2.64063 L97.7656,3.89063 L96.7656,3.89063 L96.7656,2.64063 M103.656,5.15625 L103.656,6.09375 C103.375,5.94792 103.083,5.84115 102.781,5.77344 C102.479,5.70573 102.167,5.67188 101.844,5.67188 C101.354,5.67188 100.987,5.7474 100.742,5.89844 C100.497,6.04948 100.375,6.27083 100.375,6.5625 C100.375,6.79167 100.464,6.97135 100.641,7.10156 C100.818,7.23177 101.172,7.35938 101.703,7.48438 L102.031,7.5625 C102.74,7.70833 103.24,7.91927 103.531,8.19531 C103.823,8.47135 103.969,8.85417 103.969,9.34375 C103.969,9.89583 103.75,10.3359 103.313,10.6641 C102.875,10.9922 102.266,11.1563 101.484,11.1563 C101.161,11.1563 100.826,11.125 100.477,11.0625 C100.128,11 99.7604,10.9063 99.375,10.7813 L99.375,9.76563 C99.7396,9.95313 100.099,10.0938 100.453,10.1875 C100.807,10.2813 101.161,10.3281 101.516,10.3281 C101.974,10.3281 102.328,10.2474 102.578,10.0859 C102.828,9.92448 102.953,9.70313 102.953,9.42188 C102.953,9.15104 102.865,8.94271 102.688,8.79688 C102.51,8.65104 102.115,8.51563 101.5,8.39063 L101.156,8.29688 C100.542,8.17188 100.099,7.97656 99.8281,7.71094 C99.5573,7.44531 99.4219,7.07813 99.4219,6.60938 C99.4219,6.04688 99.6224,5.61198 100.023,5.30469 C100.424,4.9974 100.995,4.84375 101.734,4.84375 C102.099,4.84375 102.443,4.86979 102.766,4.92188 C103.089,4.97396 103.385,5.05208 103.656,5.15625 M110.531,7.375 L110.531,11 L109.547,11 L109.547,7.40625 C109.547,6.83333 109.438,6.40625 109.219,6.125 C109,5.84375 108.667,5.70313 108.219,5.70313 C107.688,5.70313 107.268,5.8724 106.961,6.21094 C106.654,6.54948 106.5,7.01042 106.5,7.59375 L106.5,11 L105.5,11 L105.5,2.64063 L106.5,2.64063 L106.5,5.92188 C106.729,5.55729 107.005,5.28646 107.328,5.10938 C107.651,4.93229 108.021,4.84375 108.438,4.84375 C109.125,4.84375 109.646,5.05729 110,5.48438 C110.354,5.91146 110.531,6.54167 110.531,7.375 M117.656,7.75 L117.656,8.23438 L113.109,8.23438 C113.151,8.91146 113.354,9.42708 113.719,9.78125 C114.083,10.1354 114.594,10.3125 115.25,10.3125 C115.635,10.3125 116.005,10.2656 116.359,10.1719 C116.714,10.0781 117.068,9.94271 117.422,9.76563 L117.422,10.6875 C117.068,10.8438 116.703,10.9609 116.328,11.0391 C115.953,11.1172 115.578,11.1563 115.203,11.1563 C114.234,11.1563 113.471,10.8776 112.914,10.3203 C112.357,9.76302 112.078,9.00521 112.078,8.04688 C112.078,7.06771 112.344,6.28906 112.875,5.71094 C113.406,5.13281 114.125,4.84375 115.031,4.84375 C115.833,4.84375 116.471,5.10417 116.945,5.625 C117.419,6.14583 117.656,6.85417 117.656,7.75 M116.656,7.45313 C116.656,6.91146 116.508,6.47917 116.211,6.15625 C115.914,5.83333 115.521,5.67188 115.031,5.67188 C114.479,5.67188 114.039,5.82813 113.711,6.14063 C113.383,6.45313 113.193,6.89063 113.141,7.45313 L116.656,7.45313 M122.75,5.90625 C122.646,5.84375 122.529,5.79688 122.398,5.76563 C122.268,5.73438 122.125,5.71875 121.969,5.71875 C121.406,5.71875 120.977,5.90104 120.68,6.26563 C120.383,6.63021 120.234,7.15104 120.234,7.82813 L120.234,11 L119.234,11 L119.234,4.98438 L120.234,4.98438 L120.234,5.92188 C120.432,5.55729 120.698,5.28646 121.031,5.10938 C121.365,4.93229 121.771,4.84375 122.25,4.84375 C122.323,4.84375 122.398,4.84635 122.477,4.85156 C122.555,4.85677 122.646,4.86979 122.75,4.89063 L122.75,5.90625"/>
</g>

<g fill="none" stroke="#000000" stroke-opacity="1" stroke-width="1" stroke-linecap="square" stroke-linejoin="bevel" transform="matrix(1.99956,0,0,1.99956,55.3225,21.9951)"
font-family="sans" font-size="11" font-weight="100" font-style="normal" 
>
</g>

<g fill="none" stroke="#000000" stroke-opacity="1" stroke-width="1" stroke-linecap="square" stroke-linejoin="bevel" transform="matrix(1.99956,0,0,1.99956,55.3225,21.9951)"
font-family="Ubuntu" font-size="11" font-weight="400" font-style="normal" 
>
</g>

<g fill="none" stroke="#000000" stroke-opacity="1" stroke-width="1" stroke-linecap="square" stroke-linejoin="bevel" transform="matrix(1.99956,0,0,1.99956,0.000799823,71.984)"
font-family="Ubuntu" font-size="11" font-weight="400" font-style="normal" 
>
</g>

<g fill="none" stroke="#000000" stroke-opacity="1" stroke-width="1" stroke-linecap="square" stroke-linejoin="bevel" transform="matrix(1.99956,0,0,1.99956,0.000799823,71.984)"
font-family="Ubuntu" font-size="11" font-weight="400" font-style="normal" 
>
</g>

<g fill="none" stroke="#000000" stroke-opacity="1" stroke-width="1" stroke-linecap="square" stroke-linejoin="bevel" transform="matrix(1.99956,0,0,1.99956,0.000799823,71.984)"
font-family="Ubuntu" font-size="11" font-weight="400" font-style="normal" 
>
<rect x="192.58" y="-32" width="49.5" height="31.5"/>
<polyline fill="none" vector-effect="none" points="196,-35 245,-35 " />
<polyline fill="none" vector-effect="none" points="196,-35 193,-32 " />
<polyline fill="none" vector-effect="none" points="245,-35 242,-32 " />
<polyline fill="none" vector-effect="none" points="243,-1 245,-4 " />
<polyline fill="none" vector-effect="none" points="245,-35 245,-4 " />
</g>

<g fill="none" stroke="#000000" stroke-opacity="1" stroke-width="1" stroke-linecap="square" stroke-linejoin="bevel" transform="matrix(1.99956,0,0,1.99956,0.000799823,71.984)"
font-family="Ubuntu" font-size="11" font-weight="400" font-style="normal" 
>
</g>

<g fill="none" stroke="#000000" stroke-opacity="1" stroke-width="1" stroke-linecap="square" stroke-linejoin="bevel" transform="matrix(1.99956,0,0,1.99956,425.192,21.9951)"
font-family="Ubuntu" font-size="11" font-weight="400" font-style="normal" 
>
</g>

<g fill="none" stroke="#000000" stroke-opacity="1" stroke-width="1" stroke-linecap="square" stroke-linejoin="bevel" transform="matrix(1.99956,0,0,1.99956,425.192,21.9951)"
font-family="sans" font-size="11" font-weight="100" font-style="normal" 
>
</g>

<g fill="#000000" fill-opacity="1" stroke="#000000" stroke-opacity="1" stroke-width="1" stroke-linecap="square" stroke-linejoin="round" transform="matrix(1.99956,0,0,1.99956,425.192,21.9951)"
font-family="sans" font-size="11" font-weight="100" font-style="normal" 
>
<path vector-effect="none" fill-rule="nonzero" d="M2.79688,2.98438 L3.70313,2.98438 L0.90625,12.0156 L0,12.0156 L2.79688,2.98438 M5.71875,3.28125 L5.71875,4.98438 L7.75,4.98438 L7.75,5.75 L5.71875,5.75 L5.71875,9.01563 C5.71875,9.50521 5.78646,9.82031 5.92188,9.96094 C6.05729,10.1016 6.32813,10.1719 6.73438,10.1719 L7.75,10.1719 L7.75,11 L6.73438,11 C5.97396,11 5.44792,10.8568 5.15625,10.5703 C4.86458,10.2839 4.71875,9.76563 4.71875,9.01563 L4.71875,5.75 L4,5.75 L4,4.98438 L4.71875,4.98438 L4.71875,3.28125 L5.71875,3.28125 M12.0938,2.64063 L12.0938,3.46875 L11.1563,3.46875 C10.8021,3.46875 10.5547,3.53906 10.4141,3.67969 C10.2734,3.82031 10.2031,4.07813 10.2031,4.45313 L10.2031,4.98438 L11.8281,4.98438 L11.8281,5.75 L10.2031,5.75 L10.2031,11 L9.21875,11 L9.21875,5.75 L8.26563,5.75 L8.26563,4.98438 L9.21875,4.98438 L9.21875,4.5625 C9.21875,3.89583 9.3724,3.40885 9.67969,3.10156 C9.98698,2.79427 10.4792,2.64063 11.1563,2.64063 L12.0938,2.64063"/>
</g>

<g fill="none" stroke="#000000" stroke-opacity="1" stroke-width="1" stroke-linecap="square" stroke-linejoin="bevel" transform="matrix(1.99956,0,0,1.99956,425.192,21.9951)"
font-family="sans" font-size="11" font-weight="100" font-style="normal" 
>
</g>

<g fill="none" stroke="#000000" stroke-opacity="1" stroke-width="1" stroke-linecap="square" stroke-linejoin="bevel" transform="matrix(1.99956,0,0,1.99956,425.192,21.9951)"
font-family="Ubuntu" font-size="11" font-weight="400" font-style="normal" 
>
</g>

<g fill="none" stroke="#000000" stroke-opacity="1" stroke-width="1" stroke-linecap="square" stroke-linejoin="bevel" transform="matrix(1.99956,0,0,1.99956,0.000799823,71.984)"
font-family="Ubuntu" font-size="11" font-weight="400" font-style="normal" 
>
</g>

<g fill="none" stroke="#000000" stroke-opacity="1" stroke-width="1" stroke-linecap="square" stroke-linejoin="bevel" transform="matrix(1.99956,0,0,1.99956,0.000799823,71.984)"
font-family="Ubuntu" font-size="11" font-weight="400" font-style="normal" 
>
</g>

<g fill="none" stroke="#000000" stroke-opacity="1" stroke-width="1" stroke-linecap="square" stroke-linejoin="bevel" transform="matrix(1.99956,0,0,1.99956,0.000799823,71.984)"
font-family="Ubuntu" font-size="11" font-weight="400" font-style="normal" 
>
</g>

<g fill="none" stroke="#000000" stroke-opacity="1" stroke-width="1" stroke-linecap="square" stroke-linejoin="round" transform="matrix(1.99956,0,0,1.99956,0.000799823,71.984)"
font-family="Ubuntu" font-size="11" font-weight="400" font-style="normal" 
>
<path vector-effect="none" fill-rule="evenodd" d="M246.34,-18 C247.43,-18 248.54,-18 249.66,-18 "/>
</g>

<g fill="none" stroke="#000000" stroke-opacity="1" stroke-width="1" stroke-linecap="square" stroke-linejoin="bevel" transform="matrix(1.99956,0,0,1.99956,0.000799823,71.984)"
font-family="Ubuntu" font-size="11" font-weight="400" font-style="normal" 
>
</g>

<g fill="none" stroke="#000000" stroke-opacity="1" stroke-width="1" stroke-linecap="square" stroke-linejoin="bevel" transform="matrix(1.99956,0,0,1.99956,0.000799823,71.984)"
font-family="Ubuntu" font-size="11" font-weight="400" font-style="normal" 
>
</g>

<g fill="#000000" fill-opacity="1" stroke="#000000" stroke-opacity="1" stroke-width="1" stroke-linecap="square" stroke-linejoin="round" transform="matrix(1.99956,0,0,1.99956,0.000799823,71.984)"
font-family="Ubuntu" font-size="11" font-weight="400" font-style="normal" 
>
<path vector-effect="none" fill-rule="evenodd" d="M249.66,-18 L249.66,-14.409 L259.92,-18 L249.66,-21.591 L249.66,-18"/>
</g>

<g fill="none" stroke="#000000" stroke-opacity="1" stroke-width="1" stroke-linecap="square" stroke-linejoin="bevel" transform="matrix(1.99956,0,0,1.99956,0.000799823,71.984)"
font-family="Ubuntu" font-size="11" font-weight="400" font-style="normal" 
>
</g>

<g fill="none" stroke="#000000" stroke-opacity="1" stroke-width="1" stroke-linecap="square" stroke-linejoin="bevel" transform="matrix(1.99956,0,0,1.99956,0.000799823,71.984)"
font-family="Ubuntu" font-size="11" font-weight="400" font-style="normal" 
>
</g>

<g fill="none" stroke="#000000" stroke-opacity="1" stroke-width="1" stroke-linecap="square" stroke-linejoin="bevel" transform="matrix(1.99956,0,0,1.99956,0.000799823,71.984)"
font-family="Ubuntu" font-size="11" font-weight="400" font-style="normal" 
>
</g>

<g fill="none" stroke="#000000" stroke-opacity="1" stroke-width="1" stroke-linecap="square" stroke-linejoin="bevel" transform="matrix(1.99956,0,0,1.99956,0.000799823,71.984)"
font-family="Ubuntu" font-size="11" font-weight="400" font-style="normal" 
>
</g>

<g fill="none" stroke="#000000" stroke-opacity="1" stroke-width="1" stroke-linecap="square" stroke-linejoin="round" transform="matrix(1.99956,0,0,1.99956,0.000799823,71.984)"
font-family="Ubuntu" font-size="11" font-weight="400" font-style="normal" 
>
<path vector-effect="none" fill-rule="evenodd" d="M178.29,-18 C179.49,-18 180.68,-18 181.84,-18 "/>
</g>

<g fill="none" stroke="#000000" stroke-opacity="1" stroke-width="1" stroke-linecap="square" stroke-linejoin="bevel" transform="matrix(1.99956,0,0,1.99956,0.000799823,71.984)"
font-family="Ubuntu" font-size="11" font-weight="400" font-style="normal" 
>
</g>

<g fill="none" stroke="#000000" stroke-opacity="1" stroke-width="1" stroke-linecap="square" stroke-linejoin="bevel" transform="matrix(1.99956,0,0,1.99956,0.000799823,71.984)"
font-family="Ubuntu" font-size="11" font-weight="400" font-style="normal" 
>
</g>

<g fill="#000000" fill-opacity="1" stroke="#000000" stroke-opacity="1" stroke-width="1" stroke-linecap="square" stroke-linejoin="round" transform="matrix(1.99956,0,0,1.99956,0.000799823,71.984)"
font-family="Ubuntu" font-size="11" font-weight="400" font-style="normal" 
>
<path vector-effect="none" fill-rule="evenodd" d="M181.84,-18 L181.84,-14.4755 L191.91,-18 L181.84,-21.5245 L181.84,-18"/>
</g>

<g fill="none" stroke="#000000" stroke-opacity="1" stroke-width="1" stroke-linecap="square" stroke-linejoin="bevel" transform="matrix(1.99956,0,0,1.99956,0.000799823,71.984)"
font-family="Ubuntu" font-size="11" font-weight="400" font-style="normal" 
>
</g>

<g fill="none" stroke="#000000" stroke-opacity="1" stroke-width="1" stroke-linecap="square" stroke-linejoin="bevel" transform="matrix(1,0,0,1,0,0)"
font-family="Ubuntu" font-size="11" font-weight="400" font-style="normal" 
>
</g>
</g>
</svg>
